<svg width="30" height="32" viewBox="0 0 30 32" fill="none" xmlns="http://www.w3.org/2000/svg">
<path d="M9.55762 4.51294C8.22206 5.69825 6.80303 7.2091 5.50085 9.07054C6.90319 10.548 11.6444 15.9904 13.0718 23.6114L13.7229 22.9604C12.8548 11.7917 10.5092 6.32429 9.55762 4.51294Z" fill="black"/>
<path d="M4.85823 10.0303C3.78143 11.7248 2.8215 13.6864 2.10364 15.9485C4.29062 16.8583 9.08194 19.4126 11.5945 25.0804L12.0953 24.5795C10.9684 17.2339 6.41916 11.7248 4.85823 10.0303Z" fill="black"/>
<path d="M25.1418 10.0303C23.5893 11.7248 19.0317 17.2423 17.9048 24.5795L18.4056 25.0804C20.9098 19.4126 25.7095 16.8583 27.8964 15.9485C27.1786 13.6864 26.2103 11.7331 25.1418 10.0303Z" fill="black"/>
<path d="M14.9998 0.848389C14.9998 0.848389 12.9631 1.7165 10.4338 3.76993C11.3687 5.43937 13.7811 10.7232 14.7577 21.9168L14.9998 21.6748L15.2418 21.9168C16.2185 10.7232 18.6308 5.43937 19.5657 3.76993C17.0365 1.7165 14.9998 0.848389 14.9998 0.848389Z" fill="black"/>
<path d="M28.2137 17.042C26.0935 17.9602 21.4941 20.5061 19.2571 25.9319L19.7245 26.3993C23.3305 23.603 29.1736 22.9018 29.1736 22.9018C29.0401 20.7649 28.6978 18.82 28.2137 17.0337" fill="black"/>
<path d="M20.4421 4.51294C19.4989 6.31594 17.145 11.7917 16.2769 22.9604L16.9279 23.6114C18.3553 15.9988 23.0882 10.548 24.4989 9.07054C23.1967 7.2091 21.7777 5.69825 20.4421 4.51294Z" fill="black"/>
<path d="M15.0011 23.2895L11.0701 27.2205L15.0011 31.1515L18.9321 27.2205L15.0011 23.2895Z" fill="currentColor"/>
<path d="M1.78622 17.042C1.30208 18.82 0.95985 20.7732 0.826294 22.9101C0.826294 22.9101 6.66937 23.6113 10.2754 26.4076L10.7428 25.9402C8.50576 20.5144 3.91477 17.9685 1.78622 17.0503" fill="black"/>
</svg>
