<svg fill="red" xmlns="http://www.w3.org/2000/svg" version="1.1" viewBox="0 0 210.3 280">
        <path class="cls-1" d="M145.2,33c8.8,0,17.1-1.2,25.1.2,20.6,3.6,33.6,17.8,38,39.3,3,15.1,2.5,30.3.3,45.4-2.7,18.8-6.5,37.3-8.7,56.1-1.7,13.9-1.6,28.1-2.3,42.1,0,1.1,0,2.3.4,3.3,1.2,4-.5,6.4-4,8.1-9.6,4.5-19.6,7.3-30.1,8.5-4.7.6-9.5.7-14.2.8-2.1,0-2.9.7-2.9,2.8.1,7.8,0,15.7.4,23.5.2,4.3-1.8,6.9-5.2,8-7.3,2.5-14.6,5.2-22.2,6.6-27.2,5.4-52.8-.5-77.3-12.4-1.3-.6-2.6-1.5-3.9-2.3-3-1.7-4.1-4.1-4.2-7.7-.3-14.2-.6-28.4-1.4-42.6-.5-10.1-3.8-19.5-7.9-28.7-6-13.3-11.9-26.6-14.2-41.2-1.7-10.9-1-21.6,3.1-32,.5-1.3.2-3.4-.4-4.8-5.4-11.7-10.5-23.4-12.6-36.2-1.6-9.9-1.3-19.7,1.5-29.3C9.7,16.3,30,5.3,54.7,7.7c6.1.6,11.5.2,17.2-2.2C83.9.3,96.7-1.4,109.7,1.1c16.5,3.2,27.8,12.8,34.1,28.3.5,1.3,1,2.5,1.4,3.6h0ZM111.9,242.1c-3.3-10.2,0-19.2,2.9-28.4,3.1-10.1,5.8-20.4,8.5-30.6.6-2.2.7-4.6,1-6.9.3,4.5.8,8.9.2,13.2-1.4,10.9-3.5,21.6-5.1,32.5-.9,6.2-1.6,12.6.2,19.3,3.7-.9,7.2-1.8,10.7-2.4,2.4-.4,2.9-1.6,3-3.8,0-5.6-.3-11.3.7-16.8,2.4-13.9,5.2-27.6,8.2-41.4,4.3-19.6,7.3-39.2,4.8-59.3-2-16.1-10.7-27.2-24.5-30.7-13-3.3-24.7.9-36.7,6.3,8.8,4.7,17.1,9.1,25.5,13.5-.2.4-.3.8-.5,1.2-4.5,1.5-8.8,1.5-13.2-.9-11.1-6.1-22.5-11.1-35.4-12.6-24.7-2.8-43.2,14.8-39.9,39.3,1.2,8.9,4.1,17.7,7.3,26.1,3.5,9.3,8.5,18,12.1,27.3,7.3,18.9,7.9,38.7,7.4,58.6-.3,9.4-.3,9.4,8.8,12.7,18.4,6.5,37.3,7.7,56.5,5.4,6.6-.8,13.2-2.3,19.8-3.4-.5-5.4-.9-10.1-1.2-14.2-8.9.9-17.4,2.2-26,2.4-8.3.1-16.7-1-25-1.7-.9,0-1.6-1.3-2.4-2,1-.4,2-1.2,3-1.2,2.8,0,5.6.3,8.5.4.3-15.3,11.1-26.9,12-41.5,1.5,13.8-5.3,26.9-3.2,41.1,4.2-.4,7.9-.8,12.1-1.2h0ZM163.1,199.3c-3.2-10-.4-18.8,2.4-27.6,2.9-9.1,5.5-18.4,8-27.6,1-3.6,1.2-7.5,1.8-11.2.3,5.2.8,10.3.2,15.3-1.4,10.4-3.5,20.6-5.1,31-1,6.2-1.7,12.5.2,19,4.1-.9,7.9-1.6,11.5-2.7.9-.3,2-1.9,2-2.9,0-19.9,3.9-39.1,8.8-58.3,5-19.8,7.6-39.9,5-60.4-2.7-21.2-16.8-32.7-37.9-30.9-8.1.7-15.6,3.2-22.8,7,8.5,4.6,16.8,9,25,13.5-.2.4-.3.8-.5,1.2-4.2.8-8.4,1.6-12.5-.7-10.2-5.7-20.7-10.7-32.3-12.4-11.6-1.7-22.8-.8-32.2,7.2-7.5,6.4-10.7,14.9-11.5,24.6,7.3-2.4,14-5.3,21-6.9,19.8-4.4,37.8-1.4,51.8,14.8,8.8,10.2,11.7,22.6,12.8,35.6,1.5,18.6-1,36.8-4.2,55.1-1.1,5.9-2.2,11.9-3.4,18.3,4.2-.4,7.7-.7,12-1.1h0ZM24.2,95.3c10.3-9.3,22-13.5,35.3-13.1,2.5,0,2.3-1.7,2.6-3.2,1.8-9.3,5.3-17.9,11.9-25,11.9-12.9,27.2-16.4,43.8-13.9,6.9,1,11.9-1.3,17.4-4-3.3-15.1-14.9-24.7-30.1-25.3-10.5-.4-20,2.6-29.4,7.4,8.7,4.7,17,9.1,25.3,13.6-.2.4-.4.9-.6,1.3-4.6.9-9.2,1.2-13.6-1.4-10.9-6.3-22.3-10.9-35-12.4-24.4-2.7-42.3,14.4-39.9,38.4,1.3,13.3,6.3,25.3,12.2,37.6h0ZM183.9,202.6c-.6,0-.9-.2-1.3-.1-10.1,1-20.3,2-30.4,3.1-.8,0-2.1.8-2.2,1.3-.8,4.8-1.3,9.7-1.9,14.6,8.2,1,31.4-2.4,37.1-5.3-.4-4.5-.9-9-1.3-13.6Z"/>
          <path class="cls-1" d="M56.4,182.2v-38.1h-14.8v-9c2.1,0,4.1,0,6-.5,1.9-.4,3.7-1,5.2-1.9,1.5-.9,2.8-2.1,3.9-3.7,1.1-1.5,1.8-3.4,2.1-5.6h9.5v58.8h-11.9Z"/>
          <path class="cls-1" d="M83.2,131.3c1.2-2,2.7-3.7,4.6-5,1.9-1.3,4-2.4,6.3-3,2.4-.7,4.7-1,7.1-1,3.6,0,6.7.6,9.2,1.7,2.5,1.1,4.5,2.5,6.1,4.1,1.5,1.6,2.6,3.3,3.3,5.1.7,1.8,1,3.5,1,4.9,0,2.9-.7,5.5-2.1,7.6-1.4,2.2-3.6,3.8-6.4,4.7v.2c3.5.8,6.2,2.4,8.1,5,1.9,2.5,2.9,5.7,2.9,9.4s-.6,5.8-1.9,8.1c-1.3,2.3-2.9,4.2-5,5.7-2.1,1.5-4.4,2.6-7.1,3.4-2.6.8-5.3,1.1-8.1,1.1s-5.6-.3-8.3-1c-2.7-.7-5-1.8-7.1-3.3s-3.8-3.4-5-5.7c-1.3-2.3-1.9-5-1.9-8.2s1-6.9,2.9-9.4c1.9-2.5,4.7-4.2,8.2-5v-.2c-2.9-.8-5-2.3-6.5-4.4-1.5-2.2-2.2-4.7-2.2-7.6s.6-5,1.8-7ZM91.7,168.5c.6,1.2,1.3,2.3,2.2,3.1.9.9,2,1.5,3.3,2,1.3.5,2.6.7,4,.7s2.8-.2,4-.7c1.2-.5,2.3-1.1,3.2-2,.9-.9,1.6-1.9,2.1-3.1.5-1.2.8-2.6.8-4s-.3-2.7-.8-3.8c-.5-1.1-1.3-2.1-2.2-3-.9-.8-2-1.5-3.2-1.9-1.2-.4-2.5-.7-3.9-.7-2.9,0-5.4.8-7.4,2.4-2,1.6-3,3.9-3,6.9s.3,2.9.8,4.1ZM94.9,145.1c1.8,1.3,3.9,2,6.3,2s4.6-.7,6.3-2c1.7-1.3,2.5-3.2,2.5-5.7s-.1-1.6-.3-2.6c-.2-.9-.7-1.8-1.3-2.6-.6-.8-1.5-1.5-2.7-2.1-1.1-.6-2.6-.8-4.5-.8s-2.3.2-3.4.5c-1.1.4-2.1.9-2.9,1.6-.8.7-1.5,1.5-2,2.5-.5,1-.7,2.2-.7,3.5,0,2.5.9,4.4,2.7,5.7Z"/>
</svg>