<svg xmlns="http://www.w3.org/2000/svg" viewBox="0 0 125 125">
        <path class="cls-2" d="M106.36,76.08H93.71a.52.52,0,0,0,.51-.62A29.41,29.41,0,0,0,75.66,53.52a.52.52,0,0,0-.47.92A28.63,28.63,0,0,1,88.52,75.61a.52.52,0,0,0,.52.47H39.66a.34.34,0,0,0,.34-.33,35.28,35.28,0,0,1,4.23-16.13.34.34,0,0,0-.54-.4A30.13,30.13,0,0,0,36,75.69a.34.34,0,0,0,.34.39H30.8C32.36,65.59,37.58,57.58,46,53l1.94,1.92L49,56c4.27,4.23,6.52,8.33,6.88,12.55a.09.09,0,0,0,.08.08.08.08,0,0,0,.09-.07h0c1.09-4.15-.78-8.5-2-10.73A26.69,26.69,0,0,0,50,52.4l-.88-.92a34.8,34.8,0,0,1,4.12-1.4A13,13,0,0,1,57,56.38a0,0,0,0,0,0,0h0a5.08,5.08,0,0,0,.22-2A7.88,7.88,0,0,0,56.68,52a12.73,12.73,0,0,0-1.27-2.44,46.43,46.43,0,0,1,9.53-.94A36.51,36.51,0,0,1,92,60.76a.62.62,0,0,0,1-.77C86.62,51.3,75.88,45.6,63.6,45.23V41.93h4.59a6.33,6.33,0,0,0-11.37,0H61.4v3.28a42.13,42.13,0,0,0-8.69,1.08c-.49-.51-1-1-1.49-1.5a37,37,0,0,1-3.66-4l-.28-.38a8.57,8.57,0,0,1-1.51-3.17,5.87,5.87,0,0,1,.44-3.49,6.51,6.51,0,0,1,.62-1.11l.12-.15c.3-.35.44-.57.42-.64s-.13,0-.3.14l0,0a7.28,7.28,0,0,0-1.1.83,5.89,5.89,0,0,0-1.46,5.51c.77,3.49,3.22,6.12,5.7,8.63a40,40,0,0,0-4.09,1.48c-.79-.78-1.58-1.57-2.34-2.38a17.76,17.76,0,0,1-4.25-6.25,12.5,12.5,0,0,1,.2-7.64,14.85,14.85,0,0,1,1.1-2.58l.09-.15c.52-.81.51-1,.48-1h0l-.1,0a2.08,2.08,0,0,0-1.15.93,14.18,14.18,0,0,0-1.51,15.13,22.12,22.12,0,0,0,3.7,4.65l.75.79C32.51,55.5,25.43,65.38,24.16,76.08H18.64a.69.69,0,0,0-.6,1l3.64,5.77a2,2,0,0,0,1.78,1h78.07a2,2,0,0,0,1.78-1L107,77.11A.69.69,0,0,0,106.36,76.08Z"/>
        <path class="cls-2" d="M92.62,84.95H32.38a.2.2,0,0,0-.17.29L33.5,87a.58.58,0,0,0,.51.29H91A.58.58,0,0,0,91.5,87l1.29-1.72A.2.2,0,0,0,92.62,84.95Z"/>
</svg>
