<svg xmlns="http://www.w3.org/2000/svg" viewBox="0 0 125 125">
        <path class="cls-2" d="M88.21,47.6H71.38a24.86,24.86,0,0,0,12.48-9.22c.12-.16-.06-.39-.2-.25a23.22,23.22,0,0,1-8.85,6,11.47,11.47,0,0,0,1.43-1.71c2.3-3.39,2.52-8.3.47-11C75.26,29.55,72.87,29,70.16,30a11.34,11.34,0,0,0-5.8,4.76A14.34,14.34,0,0,0,63.63,36a11.76,11.76,0,0,0-5.26-6.56c-2.7-1.51-7.29-1.64-10,.78-1.26,1.13-3.05,3.76-1,8.64a13.75,13.75,0,0,0,3.31,4.7,31.87,31.87,0,0,1-7.11-4.75c-.15-.12-.3.07-.2.23a20.28,20.28,0,0,0,11,8.53H36.79A2.41,2.41,0,0,0,34.38,50V67h26V48.7c1,.07,1.89.07,2.51.07h1.63V67h26V50A2.41,2.41,0,0,0,88.21,47.6ZM61.7,45.24a18.27,18.27,0,0,1-4.41-1A11.8,11.8,0,0,1,50,37.78c-1.33-3.11-.59-4.68.26-5.44,1.63-1.47,4.9-1.43,6.72-.41,3.5,2,4.63,6,5,9.75A27.06,27.06,0,0,0,61.7,45.24Zm3.08-3.53c1-6.49,4.63-8.51,6.32-9.1a4.75,4.75,0,0,1,1.56-.32,2.2,2.2,0,0,1,1.83.86c1.29,1.68,1,5.33-.57,7.67-2.13,3.13-5.83,4.17-9,4.41C64.88,45.23,64.89,43.12,64.78,41.72Z"/>
        <path class="cls-2" d="M64.57,90.62H88.21a2.41,2.41,0,0,0,2.41-2.41v-17h-26Z"/>
        <path class="cls-2" d="M34.38,88.21a2.41,2.41,0,0,0,2.41,2.41H60.43V71.19h-26Z"/>
</svg>
