<svg xmlns="http://www.w3.org/2000/svg" viewBox="0 0 125 125">
        <path class="cls-2" d="M84,30.23H41a9.62,9.62,0,0,0-9.61,9.61V85.16A9.62,9.62,0,0,0,41,94.77H84a9.62,9.62,0,0,0,9.61-9.61V39.84A9.62,9.62,0,0,0,84,30.23Zm.53,4.7a2.25,2.25,0,1,1-2.25,2.25A2.25,2.25,0,0,1,84.57,34.93Zm-44.13,0a2.25,2.25,0,1,1-2.25,2.25A2.25,2.25,0,0,1,40.43,34.93Zm49.1,50.23a5.51,5.51,0,0,1-5.5,5.5H41a5.51,5.51,0,0,1-5.5-5.5v-38H89.54Z"/>
        <path class="cls-2" d="M45.13,57.35l1.88-.2c1.88-.16,2.29.49,2.29,2.12V78.49c0,3.51-3.92,2.24-3.92,3.14v.24H56.6v-.24c0-.94-3.92.37-3.92-2.9V54.65l-.12-.08L44.48,56.9l0,.2C44.56,57.39,45,57.35,45.13,57.35Z"/>
        <path class="cls-2" d="M71.58,82.33c6.65,0,8.94-7.47,8.94-14,0-6.94-2.08-13.76-8.94-13.76s-9,7.27-9,13.8C62.56,75.39,64.77,82.33,71.58,82.33Zm0-27.23c4.12,0,5.31,5.67,5.31,13.27,0,7-1.22,13.47-5.27,13.47s-5.31-6.61-5.31-13.51C66.28,61.63,67.58,55.1,71.54,55.1Z"/>
</svg>
