<svg version="1.1" id="Calque_1" xmlns="http://www.w3.org/2000/svg" xmlns:xlink="http://www.w3.org/1999/xlink" x="0px" y="0px"
	 viewBox="0 0 125 125" style="enable-background:new 0 0 125 125;" xml:space="preserve">
	<path class="st1" d="M48.7,102.9c0,2.1,4.4,4.8,4.4,4.8c2.4,1.5,5.7,2.3,9.3,2.3c7.6,0,13.7-3.5,13.7-10V50.5
		c0-4.4-2.9-8.2-7.1-10.2v-2.9V20.5c0-3.1-3-5.1-6.6-5.1s-6.6,1.9-6.6,5.1v19.9c-4,1.9-6.8,5.5-7.1,9.6v4.7
		C48.7,54.7,48.7,100.7,48.7,102.9z M72.9,50.5v49.4c0,2-0.9,3.5-2.6,4.7c-0.4,0.2-0.7,0.5-1.1,0.7v-6.6c-1.5,0.9-3.3,1.5-5.3,1.6
		V61.4c2-0.1,3.8-0.7,5.3-1.6V53c-1.7-0.1-3.8-1.1-5.7-2.3c-0.8-0.5-1.5-1.2-2-1.8c0.3,0,0.6,0.1,0.9,0.1c3.4,0,6.2-2.2,6.6-5
		l0.1,0.1l0,0l0,0c0.3,0.2,0.6,0.4,0.9,0.7C71.9,46.3,72.9,48.4,72.9,50.5z"/>
</svg>
