<?xml version="1.0" encoding="UTF-8"?><svg id="b" xmlns="http://www.w3.org/2000/svg" width="1440" height="837" xmlns:xlink="http://www.w3.org/1999/xlink" viewBox="0 0 1440 837"><defs><clipPath id="d"><rect width="1440" height="837" style="fill:none;"/></clipPath></defs><g id="c"><g style="clip-path:url(#d);"><path d="M809.56,699.55h.03s.02-.02.02-.02l153.46-179.61.16-.18.02-.02v-.03s-69.87-234.54-69.87-234.54l-.07-.24v-.03s-.04,0-.04,0l-223.59-55.05h-.03s-.02.02-.02.02l-153.46,179.61-.16.18-.02.02v.03s69.94,234.79,69.94,234.79v.03s.04,0,.04,0l223.32,54.98.28.07ZM962.13,519.49l-152.9,178.96-222.49-54.78-69.63-233.79,152.9-178.96,222.48,54.78,69.63,233.79Z" style="fill:#fadfad; stroke:#fadfad; stroke-width:.1px;"/><path d="M804.13,890.33l.02.02h.03s193.34-95.37,193.34-95.37l.24-.12h.03s0-.04,0-.04l3.9-234.45v-.25l-.02-.02-189.39-139.08-.22-.16-.02-.02h-.03s-193.34,95.37-193.34,95.37l-.24.12h-.03s0,.04,0,.04l-3.89,234.45v.23s0,.03,0,.03l.02.02,189.61,139.25ZM804.26,889.19l-188.75-138.62,3.88-233.63,192.54-94.96,188.75,138.62-3.88,233.63-192.54,94.96Z" style="fill:#fadfad; stroke:#fadfad; stroke-width:.1px;"/><path d="M826.82,866.06v.03s.03.01.03.01l199.81,88.05.03-.05-.02.05.26.11h.02s.03,0,.03,0l161.98-136.95.19-.16.02-.02v-.03l-37.88-224.96-.04-.23v-.03h-.02s-199.82-88.06-199.82-88.06l-.26-.11h-.03s-.02,0-.02,0l-161.98,136.95-.19.16-.02.02v.03s37.88,224.97,37.88,224.97l.04.23ZM827.72,865.4l-37.74-224.18,161.31-136.38,199.06,87.72,37.74,224.18-161.31,136.39-199.06-87.72Z" style="fill:#fadfad; stroke:#fadfad; stroke-width:.1px;"/><path d="M1239.25,875.96l.02-.02,152.12-142.29.2-.18.02-.02v-.03s-55.45-201.52-55.45-201.52l-.06-.24v-.03s-.04,0-.04,0l-207.55-59.22-.25-.07h-.02s-.02.01-.02.01l-152.13,142.29-.19.18-.02.02v.03s55.45,201.52,55.45,201.52l.07.24v.03h.03s207.55,59.23,207.55,59.23l.25.07h.03ZM1238.97,874.86l-206.76-59-55.22-200.72,151.52-141.72,206.76,59,55.22,200.72-151.52,141.72Z" style="fill:#fadfad; stroke:#fadfad; stroke-width:.1px;"/><path d="M1230.13,729.05l.02.02h.03s184.51-82.32,184.51-82.32l.23-.1h.03v-.04l25.07-204.63.03-.25v-.03l-.02-.02-159.42-122.34-.22-.16-.02-.02h-.03s-184.51,82.32-184.51,82.32l-.23.1h-.02s-.01.04-.01.04l-25.07,204.63-.03.25v.03l.02.02,159.64,122.5ZM1230.29,727.93l-158.76-121.83,24.97-203.83,183.73-81.96,158.76,121.83-24.97,203.83-183.73,81.96Z" style="fill:#fadfad;"/><path d="M1095.83,401.49l184.51-82.31h.03s.02,0,.02,0l.22.16,159.42,122.34.02.02v.03l-.03.25-25.07,204.63v.03h-.03s-.23.11-.23.11l-184.51,82.31h-.03s-.02,0-.02,0l-159.64-122.5-.02-.02v-.03l.03-.25,25.07-204.63v-.03s.03-.01.03-.01l.23-.1ZM1095.83,401.49l.02.05M1230.29,727.93l-158.76-121.83,24.97-203.83,183.73-81.96,158.76,121.83-24.97,203.83-183.73,81.96Z" style="fill:none; stroke:#fadfad; stroke-width:.1px;"/><path d="M1148.7,528.62v.03h.04l187.31-3.49h.28s.03,0,.03,0v-.03s83.97-178.05,83.97-178.05l.1-.21v-.02s0-.02,0-.02l-103.33-174.51-.13-.22-.02-.03h-.02s-187.31,3.49-187.31,3.49h-.28s-.03,0-.03,0l-.02.03-83.95,178.05-.1.21v.02s0,.02,0,.02l103.32,174.51.14.22ZM1149.28,527.65l-102.93-173.84,83.6-177.29,186.44-3.47,102.92,173.84-83.59,177.29-186.44,3.47Z" style="fill:#fadfad;"/><path d="M1129.62,175.54l187.31-3.49h.02s.02.02.02.02l.13.22,103.33,174.51v.02s0,.02,0,.02l-.1.21-83.96,178.05v.03s-.04,0-.04,0h-.28s-187.31,3.5-187.31,3.5h-.03v-.03s-.15-.22-.15-.22l-103.32-174.51v-.02s0-.02,0-.02l.1-.21,83.95-178.05.02-.03h.03s.28,0,.28,0ZM1129.62,175.54v.05M1149.28,527.65l-102.93-173.84,83.6-177.29,186.44-3.47,102.92,173.84-83.59,177.29-186.44,3.47Z" style="fill:none; stroke:#fadfad; stroke-width:.1px;"/><path d="M1224.09,381.09h.03s.02,0,.02,0l132.73-118.54.2-.17.02-.02v-.03s-45.2-190.26-45.2-190.26l-.05-.22v-.03s-.03,0-.03,0L1133.94.06l-.26-.11h-.03s-.03,0-.03,0l-132.73,118.54-.2.18-.02.02v.03s45.2,190.26,45.2,190.26l.05.22v.02s.03.01.03.01l177.87,71.75.27.11ZM1355.99,262.01l-132.08,117.95-177.12-71.45-45.01-189.48L1133.85,1.09l177.13,71.45,45.01,189.48Z" style="fill:#fadfad;"/><path d="M1356.87,262.55l-132.73,118.54-.02.02h-.03s-.27-.12-.27-.12l-177.87-71.75h-.02s-.01-.04-.01-.04l-.05-.22-45.19-190.26v-.03s.01-.02.01-.02l.2-.18L1133.62-.04l.03-.02h.03s.26.12.26.12l177.87,71.75h.02s.01.03.01.03l.05.22,45.19,190.26v.03s-.01.02-.01.02l-.2.17ZM1356.87,262.55l-.03-.04M1355.99,262.01l-132.08,117.95-177.12-71.45-45.01-189.48L1133.85,1.09l177.13,71.45,45.01,189.48Z" style="fill:none; stroke:#fadfad; stroke-width:.1px;"/><path d="M1035.42,424.21l.03.02h.02s170.85-60.2,170.85-60.2h.03v-.04l25.21-193.05.03-.27v-.03s-.01-.02-.01-.02l-145.37-132.91-.19-.18-.02-.02h-.03s-170.58,60.11-170.58,60.11l-.27.09h-.03s0,.04,0,.04l-25.24,193.32v.03s.02.02.02.02l145.37,132.91.19.18ZM1035.67,423.01l-144.76-132.35,25.08-192.12,169.78-59.82,144.75,132.35-25.08,192.12-169.78,59.81Z" style="fill:#fadfad;"/><path d="M915.39,97.62l170.58-60.1h.03s.02.01.02.01l.19.18,145.37,132.91.02.02v.03s-.04.27-.04.27l-25.21,193.05v.03h-.03s-170.85,60.2-170.85,60.2h-.02s-.03,0-.03,0l-.19-.18-145.37-132.91-.02-.02v-.03s25.24-193.32,25.24-193.32v-.03s.03-.01.03-.01l.27-.09ZM915.39,97.62l.02.05M1035.67,423.01l-144.76-132.35,25.08-192.12,169.78-59.82,144.75,132.35-25.08,192.12-169.78,59.81Z" style="fill:none; stroke:#fadfad; stroke-width:.1px;"/><path d="M976.2,393.18h.03s.02-.02.02-.02l90.59-147.61.13-.22.02-.02-.02-.03-85.17-150.94-.13-.22v-.02s-.04,0-.04,0l-175.76-3.32h-.26s-.03,0-.03,0l-.02.02-90.59,147.61-.14.22v.03s0,.02,0,.02l85.17,150.94.13.22v.02s.04,0,.04,0l175.76,3.32h.26ZM1065.83,245.28l-90.16,146.91-174.92-3.31-84.76-150.21,90.16-146.91,174.92,3.31,84.76,150.21Z" style="fill:#fadfad; stroke:#fadfad; stroke-width:.1px;"/><path d="M812.18,712.58l.02.02h.03s146.91-43.02,146.91-43.02l.27-.08h.03s0-.04,0-.04l29.55-162.1v-.02s-.01-.02-.01-.02l-117.34-118.84-.19-.19-.02-.02h-.03s-146.91,43.02-146.91,43.02l-.27.08h-.03s0,.04,0,.04l-29.55,162.1v.03s.01.02.01.02l117.34,118.84.19.19ZM958.56,668.72l-146.06,42.77-116.79-118.28,29.36-161.07,146.06-42.77,116.79,118.28-29.36,161.07Z" style="fill:#fadfad; stroke:#fadfad; stroke-width:.1px;"/><path d="M1152.48,705.49h.03s.02-.02.02-.02l80.21-124.27.14-.21v-.02s0-.03,0-.03l-74.78-144.04-.11-.21v-.02s-.03,0-.03,0l-154.95-19.81-.28-.04h-.04s-.01.02-.01.02l-80.21,124.27-.14.21-.02.03v.02s74.79,144.04,74.79,144.04l.11.21v.02s.04,0,.04,0l154.95,19.81.28.04ZM1231.74,580.91l-79.73,123.53-154.14-19.71-74.41-143.33,79.73-123.53,154.13,19.71,74.41,143.33Z" style="fill:#fadfad;"/><path d="M1232.74,581.2l-80.21,124.27-.02.03h-.03s-.28-.04-.28-.04l-154.95-19.81h-.03s-.01-.03-.01-.03l-.11-.21-74.78-144.04v-.02s0-.03,0-.03l.14-.21,80.21-124.27v-.03s.05,0,.05,0l.28.04,154.95,19.81h.02s.01.03.01.03l.11.21,74.78,144.04v.03s0,.02,0,.02l-.14.21ZM1232.74,581.2l-.04-.03M1231.74,580.91l-79.73,123.53-154.14-19.71-74.41-143.33,79.73-123.53,154.13,19.71,74.41,143.33Z" style="fill:none; stroke:#fadfad; stroke-width:.1px;"/><path d="M293.51,706.9h.03s.02-.02.02-.02l153.46-179.61.16-.18.02-.02v-.03s-69.87-234.54-69.87-234.54l-.07-.24v-.03s-.04,0-.04,0l-223.59-55.05h-.03s-.02.02-.02.02L.12,416.8l-.16.18-.02.02v.03s69.94,234.79,69.94,234.79v.03s.04,0,.04,0l223.32,54.98.28.07ZM446.08,526.84l-152.9,178.96-222.48-54.78L1.06,417.23l152.9-178.96,222.48,54.78,69.63,233.79Z" style="fill:#fadfad; stroke:#fadfad; stroke-width:.1px;"/><path d="M278.79,890.33l.02.02h.03s193.34-95.37,193.34-95.37l.24-.12h.03s0-.04,0-.04l3.89-234.45v-.23s0-.03,0-.03l-.02-.02-189.38-139.08-.22-.16-.02-.02h-.03s-193.34,95.37-193.34,95.37l-.24.12h-.03s0,.04,0,.04l-3.89,234.45v.23s0,.03,0,.03l.02.02,189.38,139.08.22.17ZM278.92,889.19l-188.75-138.62,3.88-233.63,192.54-94.96,188.75,138.62-3.88,233.63-192.54,94.96Z" style="fill:#fadfad; stroke:#fadfad; stroke-width:.1px;"/><path d="M426.64,917.15l.02.02h.03s218.8-9,218.8-9h.29s.03-.01.03-.01v-.03s82.58-193.65,82.58-193.65l.1-.23v-.03s0-.02,0-.02l-136.25-184.6-.14-.19-.02-.02h-.03s-218.8,9-218.8,9h-.29s-.03.01-.03.01v.03s-82.58,193.65-82.58,193.65l-.1.23v.03s0,.02,0,.02l136.25,184.6.14.19ZM427.15,916.16l-135.78-183.96,82.23-192.84,217.97-8.97,135.78,183.96-82.23,192.84-217.97,8.97Z" style="fill:#fadfad;"/><path d="M426.5,916.96l-136.25-184.6-.02-.02v-.03s.11-.23.11-.23l82.57-193.65v-.03s.04,0,.04,0h.29s218.8-9.01,218.8-9.01h.03s.02.02.02.02l.14.19,136.25,184.6.02.02v.03s-.11.23-.11.23l-82.57,193.65v.03s-.04,0-.04,0h-.29s-218.8,9.01-218.8,9.01h-.03s-.02-.02-.02-.02l-.14-.19ZM426.5,916.96l.04-.03M427.15,916.16l-135.78-183.96,82.23-192.84,217.97-8.97,135.78,183.96-82.23,192.84-217.97,8.97Z" style="fill:none; stroke:#fadfad; stroke-width:.1px;"/><path d="M738.6,870.27l.02-.02,152.13-142.29.19-.18.02-.02v-.03s-55.45-201.52-55.45-201.52l-.07-.24v-.03s-.03,0-.03,0l-207.55-59.23-.25-.07h-.03s-.02.01-.02.01l-152.13,142.29-.19.18-.02.02v.03s55.45,201.52,55.45,201.52l.07.24v.03s.03,0,.03,0l207.55,59.23.25.07h.03ZM889.84,727.45l-151.51,141.72-206.76-59-55.22-200.72,151.51-141.72,206.76,59,55.22,200.72Z" style="fill:#fadfad; stroke:#fadfad; stroke-width:.1px;"/><path d="M669.02,522.92v.02h.04l187.31-3.49h.28s.03,0,.03,0v-.03s83.97-178.05,83.97-178.05l.1-.21v-.02s0-.02,0-.02l-103.32-174.51-.13-.23-.02-.02h-.03s-187.31,3.49-187.31,3.49h-.28s-.03,0-.03,0v.03s-83.97,178.05-83.97,178.05l-.1.21v.02s0,.02,0,.02l103.46,174.74ZM669.6,521.95l-102.93-173.84,83.6-177.29,186.44-3.47,102.93,173.84-83.6,177.29-186.44,3.47Z" style="fill:#fadfad;"/><path d="M649.94,169.84l187.31-3.49h.03s.02.02.02.02l.13.23,103.32,174.51v.02s0,.02,0,.02l-.1.21-83.96,178.05v.03s-.04,0-.04,0h-.28s-187.31,3.49-187.31,3.49h-.03v-.02s-103.47-174.74-103.47-174.74v-.02s0-.02,0-.02l.1-.21,83.96-178.05v-.03s.04,0,.04,0h.28ZM649.94,169.84v.05M669.6,521.95l-102.93-173.84,83.6-177.29,186.44-3.47,102.93,173.84-83.6,177.29-186.44,3.47Z" style="fill:none; stroke:#fadfad; stroke-width:.1px;"/><path d="M679.15,414.04h.03s.02,0,.02,0l132.74-118.54.2-.18.02-.02v-.03s-45.2-190.26-45.2-190.26l-.05-.22v-.03s-.03,0-.03,0l-177.87-71.75-.26-.11h-.03s-.02,0-.02,0l-132.93,118.71-.02.02v.03s45.2,190.26,45.2,190.26l.05.22v.03s.03,0,.03,0l177.87,71.75.26.11ZM678.98,412.9l-177.13-71.45-45.01-189.48,132.07-117.95,177.13,71.45,45.01,189.48-132.07,117.95Z" style="fill:#fadfad;"/><path d="M811.94,295.49l-132.74,118.54-.02.02h-.03s-.26-.12-.26-.12l-177.87-71.75h-.02s0-.04,0-.04l-.05-.22-45.19-190.26v-.03s.01-.02.01-.02l132.93-118.71.02-.02h.03s.26.12.26.12l177.87,71.75h.02s0,.03,0,.03l.05.22,45.19,190.26v.03s-.02.02-.02.02l-.2.18ZM811.94,295.49l-.03-.04M678.98,412.9l-177.13-71.45-45.01-189.48,132.07-117.95,177.13,71.45,45.01,189.48-132.07,117.95Z" style="fill:none; stroke:#fadfad; stroke-width:.1px;"/><path d="M491.76,387.52l.02.02h.02s170.58-54.23,170.58-54.23l.27-.09h.03s0-.04,0-.04l25.21-174.18.04-.24v-.03s-.02-.02-.02-.02l-145.37-119.92-.19-.16-.02-.02h-.03s-170.58,54.23-170.58,54.23l-.27.08h-.03s0,.04,0,.04l-25.24,174.43v.03s.02.02.02.02l145.37,119.92.19.16ZM492,386.43l-144.75-119.41,25.08-173.33,169.78-53.97,144.75,119.41-25.08,173.33-169.78,53.97Z" style="fill:#fadfad;"/><path d="M491.57,387.36l-145.37-119.92-.02-.02v-.03s25.24-174.43,25.24-174.43v-.03s.03,0,.03,0l.27-.08,170.58-54.22h.03s.02,0,.02,0l.19.16,145.37,119.92.02.02v.03s-.04.24-.04.24l-25.21,174.18v.03s-.04,0-.04,0l-.27.09-170.58,54.22h-.02s-.02,0-.02,0l-.19-.16ZM491.57,387.36l.03-.04M492,386.43l-144.75-119.41,25.08-173.33,169.78-53.97,144.75,119.41-25.08,173.33-169.78,53.97Z" style="fill:none; stroke:#fadfad; stroke-width:.1px;"/><path d="M435.99,435.77h.03l.02-.02,90.59-147.61.14-.22.02-.02v-.03s-85.18-150.93-85.18-150.93l-.12-.22v-.03h-.04l-175.76-3.32h-.26s-.03,0-.03,0v.02s-90.61,147.61-90.61,147.61l-.14.22v.02s0,.03,0,.03l85.17,150.93.13.22v.03h.04l175.76,3.32h.26ZM525.62,287.86l-90.16,146.91-174.92-3.31-84.76-150.21,90.16-146.91,174.92,3.31,84.76,150.22Z" style="fill:#fadfad; stroke:#fadfad; stroke-width:.1px;"/><path d="M373.09,583.99h.03s.02,0,.02,0l128.47-106.1.19-.15.02-.02v-.03s-22.37-170.71-22.37-170.71l-.03-.25v-.03s-.03-.01-.03-.01l-151.08-64.76h-.03s-.02,0-.02,0l-128.47,106.1-.19.15-.02.02v.03s22.37,170.71,22.37,170.71l.03.25v.03s.03.01.03.01l151.08,64.76ZM500.75,477.3l-127.81,105.56-150.04-64.31-22.26-169.93,127.81-105.56,150.04,64.31,22.26,169.93Z" style="fill:#fadfad; stroke:#fadfad; stroke-width:.1px;"/><path d="M340.02,708.43l.02.02h.03s156.21-43.02,156.21-43.02l.28-.08h.03s0-.04,0-.04l31.42-162.11v-.03s-.02-.02-.02-.02l-124.78-118.84-.2-.19-.02-.02h-.03s-156.21,43.02-156.21,43.02l-.28.08h-.03s0,.04,0,.04l-31.42,162.1v.03s.01.02.01.02l124.78,118.84.2.19ZM340.35,707.34l-124.19-118.28,31.22-161.07,155.31-42.77,124.19,118.28-31.22,161.07-155.31,42.77Z" style="fill:#fadfad;"/><path d="M339.82,708.23l-124.78-118.84-.02-.02v-.03s31.43-162.1,31.43-162.1v-.03s.04,0,.04,0l.28-.08,156.21-43.02h.03s.02.01.02.01l.2.19,124.78,118.84.02.02v.03s-31.43,162.11-31.43,162.11v.03s-.04,0-.04,0l-.28.08-156.21,43.02h-.03s-.02-.01-.02-.01l-.2-.19ZM339.82,708.23l.04-.04M340.35,707.34l-124.19-118.28,31.22-161.07,155.31-42.77,124.19,118.28-31.22,161.07-155.31,42.77Z" style="fill:none; stroke:#fadfad; stroke-width:.1px;"/></g></g></svg>