<?xml version="1.0" encoding="UTF-8"?>
<svg xmlns="http://www.w3.org/2000/svg" xmlns:xlink="http://www.w3.org/1999/xlink" version="1.1" viewBox="0 0 1440 808">
  <defs>
    <style>
      .cls-10 {
        fill: none;
      }

      .cls-2 {
        mask: url(#mask);
      }

      .cls-3 {
        isolation: isolate;
      }

      .cls-4 {
        fill: #fadfad;
      }

      .cls-5 {
        fill: #fff;
      }

      .cls-6 {
        mix-blend-mode: darken;
      }

      .cls-7 {
        clip-path: url(#clippath);
      }
    </style>
    <clipPath id="clippath">
      <rect class="cls-10" width="1484" height="808"/>
    </clipPath>
    <mask id="mask" x="-48.1" y="-224.1" width="2078.6" height="1613.7" maskUnits="userSpaceOnUse">
      <g id="mask0_5_1618">
        <path class="cls-5" d="M.5,808.5h1484V.5H.5v808Z"/>
      </g>
    </mask>
  </defs>
  <!-- Generator: Adobe Illustrator 28.7.1, SVG Export Plug-In . SVG Version: 1.2.0 Build 142)  -->
  <g class="cls-3">
    <g id="Calque_1">
      <g class="cls-7">
        <g class="cls-6">
          <g class="cls-2">
            <g>
              <path class="cls-10" d="M.5,808.5h1484V.5H.5v808Z"/>
              <path class="cls-4" d="M1482.9,1.4l-254.2,331.3-15.9,20.7c-2.6,3.4-5.4,6.9-7.8,10.4-1.3,1.7-2.5,3.5-3.6,5.3-.6.9-1.2,1.8-1.8,2.7l-1.7,2.8c-8.8,14.7-15.3,30.6-18.7,47.1-3.5,16.4-4,33.4-1.6,50s7.8,32.8,15.8,47.9c4,7.6,8.6,14.8,13.8,21.8l15.9,20.7,31.9,41.4,63.7,82.7,127.4,165.5c2.7,3.4,5.4,6.9,7.9,10.5,1.3,1.7,2.5,3.6,3.7,5.4,1.2,1.8,2.3,3.7,3.4,5.5,4.5,7.4,8.3,15.2,11.5,23.1,6.3,15.9,9.9,32.7,10.4,49.7.5,16.9-2,33.9-7.4,50.2-5.4,16.2-13.6,31.6-24.1,45.7l-253.9,331.5-3.3-2.1,254.7-331c10.3-13.8,18.5-29,23.8-44.9,5.4-15.9,7.9-32.6,7.4-49.3-.4-16.6-3.9-33.3-10.1-49-3.1-7.9-6.9-15.5-11.3-22.9-1.1-1.8-2.2-3.7-3.4-5.4-1.2-1.8-2.3-3.6-3.6-5.3-2.4-3.5-5.1-7-7.8-10.4l-127-165.8-63.5-82.9-31.8-41.4-15.9-20.7c-5.2-7-9.8-14.4-13.8-22-8-15.3-13.4-31.6-15.8-48.4-2.4-16.7-1.8-33.8,1.7-50.3,3.5-16.5,10-32.5,19-47.4l1.7-2.8c.6-.9,1.2-1.8,1.8-2.7,1.2-1.8,2.4-3.6,3.7-5.3,2.5-3.6,5.2-7,7.9-10.4l15.9-20.7L1482.9,1.4Z"/>
              <path class="cls-4" d="M1482.9,1.4l-243.8,337.1-15.2,21.1c-5.2,7-10,14.1-14.1,21.6-8.2,15-14,31.1-16.7,47.6-2.7,16.5-2.5,33.4.6,49.9,3.1,16.4,9.2,32.4,17.8,47.3,4.3,7.4,9.2,14.6,14.5,21.3,5.5,6.7,11,13.5,16.5,20.2l33,40.5,66.1,81.1,132.2,162.1,4.1,5.1,2.1,2.5,2,2.6,2,2.6,1.9,2.7,1.9,2.7,1.8,2.7c4.7,7.3,8.9,14.9,12.4,22.7,7,15.6,11.3,32.4,12.5,49.3,1.3,16.9-.5,33.9-5.2,50.3-4.7,16.4-12.3,32.1-22.2,46.4l-243.5,337.3-3.3-2,244.3-336.8c9.8-14.1,17.3-29.6,22-45.6,4.7-16.1,6.5-32.9,5.3-49.5-1.2-16.6-5.3-33.1-12.2-48.5-3.4-7.8-7.5-15.3-12.1-22.4l-1.7-2.7-1.8-2.6-1.8-2.6-2-2.6-2-2.6-2-2.5-4.1-5.1-131.8-162.3-65.9-81.2-32.9-40.6c-5.5-6.8-10.9-13.6-16.5-20.2-5.4-6.9-10.3-14-14.6-21.5-8.6-14.9-14.7-31.1-17.8-47.7-3.1-16.6-3.3-33.6-.5-50.3,2.8-16.6,8.6-32.9,16.9-47.9,4.1-7.5,9-14.7,14.2-21.7l15.3-21.1L1482.9,1.4Z"/>
              <path class="cls-4" d="M1482.9,1.4l-233.1,342.7-14.6,21.4c-5,7.1-9.4,14.4-13.2,22.1-7.6,15.3-12.6,31.5-14.6,48.2-2,16.6-1,33.5,2.9,49.8,3.9,16.4,10.6,32.1,19.8,46.5,4.6,7.2,9.7,14.2,15.3,20.9,5.7,6.6,11.4,13.2,17.1,19.8l34.2,39.7,68.4,79.4,136.8,158.6,4.3,5c1.4,1.6,2.9,3.3,4.2,5.1,1.4,1.7,2.8,3.4,4.1,5.2,1.3,1.7,2.6,3.4,3.9,5.2,5,7.1,9.4,14.6,13.2,22.3,7.6,15.5,12.6,31.9,14.5,48.7,2,16.8.9,33.9-3.1,50.4-4,16.5-10.9,32.4-20.2,47.1l-232.8,342.9-3.4-1.9,233.6-342.4c9.2-14.4,16.1-30,20-46.3,4-16.3,5-33.1,3.2-49.6-1.9-16.5-6.7-32.8-14.2-48-3.7-7.6-8.1-15-13-22.1-1.2-1.8-2.5-3.5-3.8-5.2-1.3-1.7-2.6-3.4-4-5.1-1.3-1.7-2.8-3.3-4.2-5l-4.3-5-136.4-158.9-68.2-79.4-34.1-39.8c-5.7-6.6-11.3-13.3-17.1-19.9-5.7-6.7-10.8-13.7-15.4-21.1-9.2-14.6-15.9-30.5-19.8-47s-4.8-33.4-2.8-50.2,7.1-33.1,14.8-48.4c3.8-7.7,8.3-15.1,13.3-22.1l14.6-21.4L1482.9,1.4Z"/>
              <path class="cls-4" d="M1482.9,1.4l-222.3,348.1-13.9,21.8c-4.7,7.2-8.8,14.7-12.3,22.4-7,15.5-11.2,31.9-12.5,48.5-1.3,16.6.5,33.4,5,49.6,4.6,16.2,12,31.6,21.7,45.8,9.5,14.4,22.2,26.7,33.8,39.7l35.3,38.8,70.7,77.5,141.3,155.2c2.9,3.3,5.9,6.4,8.8,9.8,1.4,1.7,2.9,3.3,4.2,5.1,1.3,1.7,2.7,3.4,4,5.2,5.3,7,10,14.3,14.1,21.9,8.2,15.2,13.8,31.5,16.5,48.2,2.7,16.7,2.4,33.8-.9,50.4-3.3,16.6-9.5,32.7-18.2,47.6l-222,348.3-3.5-1.8,222.8-347.8c8.6-14.6,14.8-30.6,18.1-46.9,3.3-16.4,3.6-33.2,1-49.6-2.6-16.4-8.1-32.5-16.1-47.5-4-7.5-8.7-14.6-13.8-21.6-1.3-1.7-2.7-3.4-4-5.1-1.3-1.7-2.8-3.3-4.2-5-2.8-3.3-5.8-6.4-8.8-9.7l-140.9-155.5-70.5-77.7-35.2-38.9-17.6-19.4c-5.9-6.5-11.3-13.4-16.2-20.5-9.7-14.4-17.2-29.9-21.7-46.3-4.6-16.3-6.3-33.3-4.9-50,1.3-16.8,5.7-33.4,12.7-48.9,3.5-7.8,7.7-15.3,12.4-22.5l14-21.7L1482.9,1.4Z"/>
              <path class="cls-4" d="M1482.9,1.4l-211.3,353.4c-8.6,14.8-18.5,29.1-24.6,44.9-6.3,15.6-9.8,32.3-10.4,48.9-.5,16.6,1.9,33.4,7.2,49.3,5.2,16,13.3,31.2,23.5,45.1,5.1,7,10.7,13.6,16.8,19.8l18.2,19,36.4,37.9,72.8,75.8,145.7,151.7,9.1,9.5,4.4,4.9,4.2,5.1c5.5,6.8,10.5,13.9,14.9,21.4,8.8,14.8,15.1,30.9,18.5,47.5,3.4,16.5,3.9,33.6,1.3,50.3-2.5,16.7-8.1,33.1-16.2,48.3-1.1,1.9-2.1,3.8-3.1,5.6l-3.3,5.5-6.6,11-13.2,22.1-26.4,44.2-52.7,88.4-105.5,176.7-3.5-1.7,105.9-176.5,53-88.3,26.5-44.1,13.2-22,6.6-11,3.3-5.5c1.1-1.8,2.1-3.7,3.1-5.5,8-14.9,13.5-31,16.1-47.5,2.6-16.5,2.1-33.3-1.2-49.5-3.3-16.4-9.5-32.2-18.1-46.8-4.3-7.3-9.2-14.4-14.6-21.1l-4.2-5-4.3-4.9-9.1-9.5-145.3-151.9-72.6-75.9-36.3-38-18.2-19c-6.1-6.3-11.8-13-16.9-20-10.3-14-18.3-29.4-23.6-45.5-5.2-16.1-7.7-33-7.1-49.8.6-16.8,4.2-33.4,10.6-49.3,3.2-7.9,7-15.5,11.5-22.9l13.3-22.1L1482.9,1.4Z"/>
              <path class="cls-4" d="M1482.9,1.4l-200,358.4-12.5,22.4c-4.1,7.5-7.6,15.2-10.4,23.1-5.6,15.9-8.4,32.5-8.2,49.3.2,16.6,3.4,33.3,9.3,49.1,5.9,15.8,14.5,30.7,25.2,44.3,5.4,6.8,11.2,13.2,17.5,19.3l18.7,18.5,37.5,37.1,75,74,149.9,148,9.4,9.2c1.6,1.5,3,3.2,4.6,4.8,1.5,1.6,2.9,3.3,4.4,4.9,5.7,6.6,11,13.6,15.6,20.9,9.3,14.6,16.3,30.4,20.4,46.8,4.1,16.5,5.4,33.4,3.5,50.3-1.8,16.8-6.7,33.3-14.2,48.7-.9,1.9-2,3.8-2.9,5.8-1,1.9-2.1,3.7-3.1,5.6l-6.2,11.2-12.5,22.4-25,44.8-49.9,89.7-99.8,179.2-3.6-1.6,100.3-179,50.1-89.6,25.1-44.7,12.5-22.4,6.3-11.2c1-1.9,2.1-3.7,3.1-5.5,1-1.9,2-3.7,2.9-5.6,7.4-15.2,12.2-31.4,14.1-47.9,1.8-16.5.6-33.3-3.4-49.4-4-16.2-10.8-31.8-20-46.2-4.6-7.2-9.7-14.1-15.4-20.7-1.4-1.6-2.8-3.3-4.3-4.9-1.5-1.5-3-3.2-4.5-4.7l-9.3-9.2-149.6-148.3-74.8-74.2-37.4-37.1-18.7-18.5c-6.3-6.1-12.2-12.7-17.6-19.4-10.8-13.6-19.4-28.7-25.3-44.6-5.9-15.9-9.1-32.6-9.3-49.4-.2-16.8,2.7-33.6,8.4-49.5,2.8-8,6.4-15.7,10.5-23.2l12.6-22.4L1482.9,1.4Z"/>
              <path class="cls-4" d="M1482.9,1.4l-188.5,363.2-11.8,22.7c-3.8,7.6-6.9,15.5-9.4,23.5-4.9,16.1-7,32.8-6,49.4,1,16.6,4.9,33.1,11.5,48.6,6.6,15.5,15.8,30.2,27,43.4,5.6,6.6,11.7,12.8,18.2,18.8l19.3,18.1,38.5,36.1,77,72.2,154,144.4,9.7,9c3.2,3.1,6.3,6.1,9.3,9.4,6,6.4,11.5,13.3,16.4,20.4,9.9,14.3,17.5,29.8,22.3,46.1,4.8,16.3,6.8,33.3,5.7,50.1-1.1,16.8-5.2,33.4-12.1,49.2-.8,2-1.8,3.9-2.7,5.9-.9,2-1.9,3.8-2.9,5.7l-5.9,11.4-11.8,22.7-23.5,45.5-47.1,90.8-94.1,181.7-3.6-1.5,94.6-181.5,47.3-90.7,23.6-45.4,11.8-22.7,5.9-11.3c1-1.9,2-3.7,2.9-5.7.9-1.9,1.9-3.8,2.7-5.7,6.8-15.4,10.9-31.7,12-48.3,1.1-16.5-.7-33.3-5.4-49.3-4.7-16.1-12.1-31.4-21.9-45.5-4.9-7-10.3-13.8-16.1-20.2-2.9-3.2-6-6.3-9.2-9.3l-9.6-9-153.7-144.7-76.8-72.4-38.4-36.2-19.2-18.1c-6.5-6-12.7-12.3-18.3-19-11.2-13.4-20.5-28.1-27.1-43.8-6.6-15.7-10.5-32.3-11.4-49.1-.9-16.7,1.2-33.6,6.2-49.8,2.5-8,5.7-16,9.5-23.6l11.9-22.7L1482.9,1.4Z"/>
              <path class="cls-4" d="M1482.9,1.4l-176.9,367.8c-3.7,7.7-7.4,15.4-11,23-3.5,7.7-6.3,15.6-8.4,23.8-4.2,16.2-5.6,33.1-3.9,49.6,1.7,16.6,6.3,32.9,13.5,48.3,7.2,15.4,17,29.6,28.6,42.5,5.8,6.4,12.1,12.6,18.8,18.3l19.8,17.6,39.5,35.2,79,70.4,158,140.7c6.5,5.9,13.4,11.7,19.5,17.9,6.2,6.2,11.9,12.9,17.1,19.9,10.4,13.9,18.7,29.2,24.1,45.4,5.4,16.1,8.1,33,7.8,49.8-.3,16.8-3.8,33.6-10,49.5-3,8-7.1,15.5-10.7,23.2l-11,23-22.1,46-44.1,92-88.3,184-3.7-1.5,88.7-183.8,44.4-91.9,22.2-45.9,11.1-23c3.6-7.7,7.6-15.2,10.6-23,6.1-15.6,9.6-32.1,9.9-48.7.4-16.5-2.2-33.2-7.5-49.1-5.3-15.9-13.4-31-23.6-44.7-5.1-6.9-10.8-13.5-16.9-19.7-6.1-6.2-12.8-11.9-19.3-17.9l-157.7-141.1-78.8-70.6-39.4-35.2-19.7-17.6c-6.7-5.8-13.1-11.9-18.9-18.4-11.7-13-21.5-27.5-28.7-42.9-7.2-15.5-11.9-31.9-13.5-48.6-1.7-16.7-.3-33.6,4-50,2.1-8.1,5-16.2,8.5-24,3.7-7.7,7.4-15.4,11.1-23L1482.9,1.4Z"/>
              <path class="cls-4" d="M1482.9,1.4l-165,372.3-5.2,11.7-2.6,5.8c-.9,1.9-1.7,3.9-2.5,5.9-3.2,7.9-5.6,15.9-7.4,24-3.5,16.4-4.1,33.2-1.7,49.7,2.4,16.5,7.7,32.6,15.5,47.7,7.8,15.1,18.1,29.1,30.3,41.6,6.1,6.3,12.6,12.1,19.4,17.7l20.2,17.2,40.5,34.3,81,68.5,161.9,137.1c6.7,5.8,13.7,11.3,20,17.4,6.4,6.1,12.4,12.6,17.8,19.3,10.9,13.6,19.7,28.7,25.8,44.6,6.1,15.9,9.5,32.6,9.9,49.5.4,16.8-2.3,33.7-7.9,49.8-1.4,4.1-2.9,8-4.7,11.9l-5.2,11.7-10.3,23.3-20.6,46.6-41.2,93.1-82.3,186.2-3.7-1.3,82.8-186,41.4-93,20.7-46.5,10.4-23.2,5.2-11.6c1.7-3.9,3.2-7.8,4.6-11.7,5.5-15.8,8.2-32.4,7.9-49-.3-16.5-3.7-33.1-9.6-48.7-6-15.6-14.6-30.5-25.4-44-5.4-6.8-11.3-13.1-17.6-19.2-6.3-6.1-13.2-11.6-19.9-17.4l-161.6-137.4-80.8-68.7-40.4-34.3-20.2-17.2c-6.8-5.6-13.4-11.6-19.5-17.9-12.2-12.7-22.5-26.8-30.4-41.9-7.9-15.2-13.1-31.5-15.5-48.1-2.4-16.6-1.8-33.6,1.8-50.1,1.8-8.2,4.3-16.4,7.5-24.2.8-2,1.6-3.9,2.5-5.9l2.6-5.8,5.2-11.7L1482.9,1.4Z"/>
              <path class="cls-4" d="M1482.9,1.4l-153,376.4-4.8,11.7c-1.6,3.9-3.3,7.8-4.6,11.8-2.8,8-5,16.1-6.4,24.3-2.8,16.4-2.6,33.3.5,49.7,3.1,16.4,9.1,32.4,17.5,47.2,8.4,14.8,19.3,28.5,31.8,40.7.8.7,1.6,1.5,2.4,2.3l2.4,2.3,2.4,2.3,2.5,2.2c3.3,2.9,6.8,5.6,10.3,8.4l20.7,16.6,41.4,33.3,82.8,66.7,165.7,133.3,10.4,8.3c3.5,2.7,6.9,5.6,10.2,8.6,6.6,5.9,12.8,12.2,18.5,18.9,11.4,13.3,20.8,28,27.5,43.7,6.7,15.7,10.9,32.3,12,49.2,1.1,16.8-.9,33.8-5.7,50.1-.7,2-1.3,4.1-2,6-.7,2-1.4,4-2.2,6-1.6,4-3.2,7.9-4.8,11.8l-9.5,23.5-19.1,47.1-38.2,94.2-76.3,188.3-3.8-1.3,76.8-188.2,38.4-94.1,19.2-47,9.6-23.5c1.6-3.9,3.2-7.9,4.8-11.8.8-2,1.5-3.9,2.2-5.9s1.3-4,1.9-6c4.8-16,6.8-32.6,5.8-49.2-1-16.5-5.1-32.9-11.7-48.4s-15.8-30-27-43.2c-5.6-6.6-11.7-12.8-18.2-18.7-3.3-2.9-6.6-5.8-10.1-8.5l-10.3-8.3-165.4-133.7-82.7-66.9-41.3-33.4-20.7-16.7c-3.4-2.8-7-5.5-10.3-8.4l-2.5-2.2-2.4-2.3-2.4-2.3c-.8-.7-1.6-1.5-2.4-2.3-12.6-12.3-23.5-26-31.9-41-8.4-14.9-14.4-31-17.5-47.5-3.1-16.5-3.3-33.5-.4-50.1,1.4-8.3,3.6-16.4,6.5-24.4,1.4-4,3.1-7.9,4.7-11.8l4.8-11.7L1482.9,1.4Z"/>
              <path class="cls-4" d="M1482.9,1.4l-140.7,380.4-4.4,11.9-2.2,6c-.7,2-1.3,4-2,6-2.5,8-4.3,16.2-5.3,24.5-2.1,16.5-1.2,33.4,2.7,49.7,3.8,16.3,10.5,32,19.5,46.5,9,14.6,20.3,27.9,33.3,39.7,1.6,1.5,3.3,2.9,4.9,4.3,1.6,1.4,3.4,2.8,5.1,4.2.9.7,1.7,1.4,2.6,2.1l2.7,2,5.3,4.1,21.2,16.2,42.3,32.4,84.7,64.8,169.3,129.6,10.6,8.1c1.8,1.4,3.6,2.7,5.3,4.1,1.7,1.4,3.5,2.8,5.2,4.2,6.8,5.7,13.2,11.8,19.1,18.3,11.8,12.9,21.8,27.4,29.2,42.8,7.4,15.5,12.3,31.9,14.1,48.7,1.8,16.8.6,33.8-3.6,50.3-.5,2.1-1.1,4.1-1.7,6.1-.6,2.1-1.3,4.1-2,6.1l-4.4,11.9-8.8,23.8-17.5,47.5-35.1,95.1-70.2,190.2-3.8-1.2,70.7-190.2,35.3-95.1,17.7-47.5,8.8-23.8,4.4-11.8c.6-2,1.3-4,1.9-6s1.2-4,1.7-6.1c4.2-16.2,5.4-32.9,3.7-49.3-1.7-16.5-6.5-32.7-13.7-48-7.2-15.3-17-29.5-28.7-42.3-5.8-6.4-12.1-12.5-18.8-18.2-1.7-1.4-3.4-2.8-5.1-4.2-1.7-1.4-3.5-2.7-5.2-4.1l-10.6-8.1-169-130-84.5-65-42.3-32.4-21.1-16.3-5.3-4.1-2.7-2c-.9-.7-1.7-1.4-2.6-2.1-1.7-1.4-3.5-2.8-5.1-4.2-1.7-1.4-3.4-2.9-5-4.4-13.1-11.9-24.4-25.4-33.4-40-9-14.6-15.7-30.5-19.5-46.9-3.8-16.4-4.7-33.4-2.6-50.1,1.1-8.3,2.9-16.5,5.4-24.7.7-2,1.3-4.1,2-6.1l2.2-6,4.4-11.8L1482.9,1.4Z"/>
              <path class="cls-4" d="M1482.9,1.4l-128.3,384.1-4,12-2,6-1.7,6.1c-2.2,8.1-3.6,16.4-4.3,24.7-1.4,16.6.3,33.4,4.8,49.6s11.8,31.6,21.4,45.9c9.6,14.3,21.3,27.3,34.7,38.7,3.4,2.9,6.8,5.6,10.3,8.3,1.7,1.4,3.6,2.6,5.4,4l5.4,3.9,21.6,15.7,43.2,31.5,86.4,62.9,172.9,125.8,10.8,7.9,5.4,4,5.3,4.1c7,5.6,13.6,11.5,19.7,17.8,12.3,12.7,22.8,26.8,30.8,41.9,8,15.2,13.5,31.5,16,48.3,2.5,16.7,2,33.8-1.5,50.3-.9,4.2-1.9,8.2-3.2,12.3-.6,2.1-1.3,4.1-2,6l-2,6-8,24-16,48-32,96.1-64,192-3.8-1.1,64.5-192,32.2-96,16.1-48,8.1-24.1,2-6c.7-2,1.4-4,2-6,1.2-4,2.3-8,3.1-12.1,3.5-16.3,4-33.1,1.6-49.4-2.4-16.4-7.8-32.5-15.7-47.5-7.8-15-18.1-28.9-30.3-41.5-6.1-6.2-12.6-12.1-19.4-17.6l-5.2-4.1-5.4-3.9-10.8-7.9-172.6-126.2-86.3-63.1-43.1-31.5-21.6-15.8-5.4-4c-1.8-1.4-3.6-2.6-5.4-4-3.6-2.7-7-5.5-10.4-8.4-13.5-11.6-25.3-24.7-34.9-39-9.6-14.4-16.9-30-21.4-46.3-4.5-16.3-6.1-33.2-4.7-49.9.7-8.4,2.2-16.6,4.4-24.9l1.8-6.1,2-6,4-12L1482.9,1.4Z"/>
              <path class="cls-4" d="M1482.9,1.4l-115.7,387.6-3.6,12.1c-1.3,4-2.3,8-3.2,12.2-1.8,8.1-2.9,16.4-3.2,24.9-.7,16.6,1.7,33.4,6.9,49.4,5.1,16,13.1,31.3,23.2,45.2,10.1,13.9,22.3,26.6,36.1,37.7l5.2,4.1,5.4,4c3.6,2.5,7.3,5.1,11,7.6l22,15.3,44.1,30.5,88.2,61,176.3,122,11,7.6,5.5,3.8c1.8,1.3,3.6,2.6,5.4,4,7.1,5.4,13.9,11.1,20.3,17.3,12.7,12.3,23.7,26,32.3,41s14.7,31.1,17.9,47.7,3.5,33.7.7,50.3l-.5,3.2-.7,3.1-.7,3.1-.8,3.1-.8,3.1-.9,3.1-1.8,6.1-7.2,24.2-14.4,48.4-28.8,96.9-57.7,193.8-3.9-.9,58.2-193.7,29.1-96.9,14.5-48.5,7.3-24.2,1.8-6,.9-3,.8-3,.8-3,.7-3.1.7-3.1.5-3.1c2.8-16.4,2.6-33.2-.5-49.5-3.1-16.4-9.2-32.3-17.5-47-8.4-14.7-19.2-28.4-31.8-40.6-6.3-6.1-13-11.8-20-17.2-1.8-1.3-3.5-2.6-5.4-4l-5.5-3.8-11-7.7-176-122.4-88-61.2-44-30.6-22-15.3c-3.6-2.5-7.4-5.1-11-7.7l-5.4-4-5.3-4.2c-13.8-11.2-26.1-24-36.2-38-10.1-14.1-18.1-29.5-23.2-45.6-5.2-16.1-7.6-33-6.8-49.7.4-8.4,1.5-16.7,3.3-24.9.9-4.1,2-8.2,3.3-12.2l3.7-12.1L1482.9,1.4Z"/>
              <path class="cls-4" d="M1482.9,1.4l-103,390.8c-2.1,8.1-4.6,16.3-6,24.5-1.5,8.2-2.2,16.5-2.2,24.9,0,16.7,3.2,33.4,9,49.2,5.8,15.8,14.3,30.8,24.9,44.5,10.6,13.6,23.3,25.9,37.4,36.7,1.8,1.4,3.6,2.6,5.4,4l5.5,3.8,11.2,7.3,22.5,14.7,44.9,29.6,89.8,59.1,179.7,118.2,11.2,7.4,5.6,3.7c1.9,1.2,3.7,2.5,5.5,3.8,7.3,5.2,14.3,10.8,20.9,16.7,13.1,11.9,24.7,25.4,33.8,40.1s15.9,30.6,19.9,47.1c3.9,16.5,4.9,33.6,2.8,50.3-.3,2.1-.5,4.2-.9,6.2-.4,2.1-.7,4.2-1.2,6.2-.8,4.2-2.1,8.2-3.1,12.3l-6.4,24.4-12.8,48.9-25.7,97.7-51.3,195.4-3.9-.8,51.8-195.3,25.9-97.7,13-48.8,6.5-24.4c1.1-4.1,2.3-8,3.1-12.2.5-2,.8-4.1,1.2-6.1s.6-4.1.9-6.1c2.1-16.4,1.2-33.3-2.6-49.5-3.8-16.3-10.5-31.9-19.4-46.5-8.9-14.6-20.3-27.8-33.2-39.6-6.5-5.9-13.4-11.5-20.6-16.6-1.8-1.3-3.6-2.6-5.5-3.8l-5.6-3.7-11.2-7.4-179.4-118.6-89.7-59.3-44.8-29.6-22.4-14.8-11.2-7.4-5.5-3.9c-1.8-1.4-3.6-2.7-5.4-4-14.2-10.8-26.9-23.2-37.6-37.1-10.7-13.7-19.2-28.9-25-44.8-5.8-15.9-8.9-32.7-8.9-49.5s.8-16.8,2.2-25c1.4-8.3,4-16.4,6-24.5L1482.9,1.4Z"/>
              <path class="cls-4" d="M1482.9,1.4l-90.1,393.7c-1.8,8.2-4,16.4-5.1,24.7-1.1,8.3-1.5,16.6-1.1,25,.7,16.7,4.6,33.3,11.1,48.9,6.5,15.6,15.5,30.4,26.6,43.7,11.1,13.4,24.2,25.3,38.7,35.7,1.8,1.3,3.6,2.6,5.5,3.8,1.9,1.3,3.7,2.4,5.6,3.7l11.4,7.1,22.9,14.3,45.7,28.6,91.4,57.2,182.9,114.3,11.4,7.1c3.8,2.3,7.7,4.7,11.4,7.2,7.5,5.1,14.6,10.4,21.4,16.2,6.8,5.8,13.2,11.9,19,18.5,5.9,6.5,11.3,13.5,16.1,20.7,9.7,14.5,17.1,30.1,21.7,46.5s6.3,33.4,4.9,50.3c-.7,8.4-2.2,16.8-4.3,25l-5.6,24.6-11.2,49.3-22.4,98.4-44.9,196.8-3.9-.7,45.4-196.8,22.7-98.4,11.3-49.2,5.7-24.6c2.1-8.1,3.6-16.4,4.3-24.6,1.4-16.5-.2-33.4-4.7-49.4-4.5-16.1-11.8-31.5-21.3-45.8-4.8-7.1-10.1-13.9-15.9-20.4-5.8-6.5-12.1-12.6-18.8-18.3-6.7-5.7-13.8-11.1-21.1-16.1-3.7-2.5-7.5-4.8-11.3-7.2l-11.4-7.1-182.6-114.7-91.3-57.4-45.7-28.7-22.8-14.4-11.4-7.1c-1.9-1.2-3.8-2.4-5.6-3.7-1.9-1.3-3.7-2.6-5.5-3.9-14.5-10.5-27.7-22.5-38.9-36-11.2-13.5-20.2-28.3-26.7-44.1-6.5-15.7-10.3-32.4-11-49.2-.4-8.4,0-16.8,1.2-25.1.3-2.1.6-4.2,1-6.2.4-2.1.8-4.2,1.3-6.1l2.9-12.3L1482.9,1.4Z"/>
              <path class="cls-4" d="M1482.9,1.4l-77.1,396.3-2.4,12.4c-.4,2.1-.7,4.2-1,6.2-.3,2.1-.5,4.2-.7,6.2-.8,8.3-.8,16.7,0,25,1.4,16.6,6,33.1,13.1,48.5,7.1,15.5,16.7,29.9,28.3,42.9s25.1,24.6,39.9,34.6c3.7,2.5,7.5,4.9,11.3,7.2l11.6,6.9,23.3,13.8,46.5,27.7,93,55.2,186,110.5,11.6,6.9c3.9,2.3,7.8,4.5,11.6,7,7.6,4.8,15,10,21.9,15.6,13.9,11.2,26.3,24,36.5,38.1,10.2,14.1,18.3,29.6,23.5,45.8,5.3,16.2,7.6,33.3,6.9,50.2-.4,8.4-1.5,16.9-3.3,25.1l-4.8,24.8-9.6,49.5-19.2,99.1-38.4,198.2-3.9-.6,38.9-198.1,19.4-99.1,9.7-49.5,4.9-24.8c1.8-8.1,3-16.4,3.3-24.8.7-16.6-1.5-33.3-6.7-49.3-5.1-16-13.1-31.2-23.1-45.2-10-13.9-22.2-26.7-36-37.8-6.9-5.6-14.1-10.8-21.7-15.5-3.7-2.4-7.7-4.6-11.5-7l-11.6-7-185.8-110.9-92.9-55.4-46.4-27.7-23.2-13.8-11.6-7c-3.9-2.3-7.7-4.8-11.4-7.3-14.9-10.1-28.5-21.8-40.1-35-11.6-13.1-21.3-27.7-28.4-43.3-7.1-15.5-11.6-32.1-13.1-48.9-.7-8.4-.7-16.8.1-25.2.3-2.1.4-4.2.7-6.2.3-2.1.6-4.2,1-6.2l2.5-12.4L1482.9,1.4Z"/>
              <path class="cls-4" d="M1482.9,1.4l-63.9,398.7-2,12.5-.7,6.2-.5,6.2c-.4,8.3-.1,16.7,1,25,2.1,16.6,7.3,32.9,15.1,48.1,7.7,15.2,17.9,29.4,29.9,42.1,12,12.7,26,24,41.1,33.6l2.8,1.8c1,.6,1.9,1.2,2.9,1.7,1.9,1.2,3.8,2.3,5.8,3.4l11.8,6.6,23.6,13.3,47.3,26.7,94.5,53.3,189.1,106.6,11.8,6.7,5.9,3.3,3,1.6,2.9,1.7c7.8,4.6,15.3,9.7,22.4,15.1,14.3,10.8,27.1,23.4,37.8,37.2,10.7,13.8,19.4,29,25.3,45.1,5.9,16.1,9,33,9,49.9s-.8,17-2.3,25.3l-4,24.9-7.9,49.8-15.9,99.7-31.8,199.4-4-.5,32.3-199.3,16.1-99.7,8.1-49.8,4-24.9c1.5-8.2,2.3-16.5,2.3-24.9,0-16.6-2.9-33.3-8.7-49.1-5.7-15.8-14.3-30.8-24.8-44.5-10.6-13.6-23.2-26-37.3-36.8-7.1-5.4-14.5-10.4-22.2-15l-2.9-1.7-2.9-1.6-5.9-3.3-11.8-6.7-188.8-107-94.4-53.5-47.2-26.8-23.6-13.4-11.8-6.7c-2-1.1-3.9-2.3-5.9-3.4-1-.5-1.9-1.2-2.9-1.7l-2.8-1.8c-15.2-9.8-29.2-21.1-41.2-33.9-12.1-12.8-22.3-27.1-30-42.4-7.8-15.3-12.9-31.7-15-48.4-1.1-8.4-1.4-16.8-.9-25.2l.5-6.3.8-6.2,2-12.5L1482.9,1.4Z"/>
              <path class="cls-4" d="M1482.9,1.4l-50.7,400.7c-.5,4.2-1.1,8.3-1.6,12.5-.2,2.1-.4,4.2-.5,6.2,0,2.1-.2,4.2-.2,6.2,0,8.4.6,16.7,2,25,2.8,16.5,8.7,32.6,17,47.6,8.3,15,19,28.8,31.5,41.2,6.2,6.2,12.9,12,20,17.4,7.1,5.4,14.5,10.5,22.2,15.1,7.7,4.7,15.8,8.8,23.8,13.1l24,12.8,48,25.7,96,51.3,192,102.8,12,6.4,6,3.3c2,1.1,4,2.1,6,3.3,7.9,4.4,15.6,9.3,22.9,14.6,14.6,10.6,27.8,22.7,39.1,36.2,5.6,6.8,10.7,13.9,15.3,21.3,4.5,7.4,8.4,15.1,11.7,23,6.5,15.9,10.3,32.7,11,49.6.3,8.5,0,17-1.3,25.4l-3.2,25-6.3,50.1-12.6,100.2-25.2,200.4-4-.4,25.7-200.4,12.8-100.2,6.4-50.1,3.2-25c1.2-8.3,1.6-16.6,1.3-24.9-.6-16.6-4.3-33.2-10.7-48.8-3.2-7.9-7-15.5-11.5-22.8-4.4-7.3-9.5-14.4-15-21.1-11-13.4-24.1-25.4-38.5-35.9-7.2-5.2-14.8-10-22.6-14.5-1.9-1.2-3.9-2.2-5.9-3.3l-6-3.3-12-6.4-191.8-103.1-95.9-51.5-47.9-25.8-24-12.9c-8-4.3-16.1-8.4-23.8-13.2-7.7-4.7-15.2-9.8-22.3-15.3-7.1-5.5-13.8-11.4-20-17.6-12.5-12.5-23.3-26.5-31.6-41.6-8.3-15.1-14.1-31.4-17-48-1.4-8.3-2.1-16.8-2-25.2,0-2.1.2-4.2.2-6.3s.3-4.2.5-6.3c.5-4.2,1.1-8.4,1.6-12.6L1482.9,1.4Z"/>
              <path class="cls-4" d="M1482.9,1.4l-428.3,173.8-53.5,21.7c-17.8,7.1-34.9,16-50.4,26.7-15.5,10.7-29.6,23-41.6,37-11.9,13.9-21.8,29.4-28.6,45.9-6.8,16.4-10.6,34-11,51.6l-2.1,53-4.2,106-4.2,106-2.1,53-1.1,26.5c-.4,8.8-.4,17.7-1.7,26.6-2.4,17.7-8.1,35-16.8,51-8.6,16-20,30.8-33.2,43.9-13.3,13.1-28.5,24.6-45,34.3-8.2,4.9-16.8,9.2-25.6,13.2l-6.6,2.9-6.7,2.7-13.4,5.4-428.2,174-1.6-3.3,428.6-173.2,13.4-5.4,6.7-2.7,6.6-2.8c8.7-3.9,17.2-8.2,25.3-13,16.3-9.6,31.4-20.9,44.6-33.8,13.2-12.9,24.4-27.5,32.9-43.3,8.5-15.7,14.3-32.8,16.6-50.3,1.3-8.7,1.3-17.5,1.7-26.4l1.1-26.5,2.2-53,4.5-106,4.5-106,2.2-53c.4-17.7,4.3-35.4,11.2-52.1,6.9-16.6,16.8-32.2,28.9-46.2,12.1-14,26.3-26.5,41.9-37.1,15.6-10.7,32.8-19.5,50.7-26.7l53.6-21.6L1482.9,1.4Z"/>
              <path class="cls-4" d="M1482.9,1.4l-422.6,181.9-52.8,22.8c-17.6,7.5-34.3,16.7-49.5,27.7-15.2,11-28.9,23.7-40.3,37.9-11.5,14.2-20.7,29.8-26.9,46.5-6.2,16.6-9.3,34.2-9.1,51.8l-.3,52.9-.7,105.7-.7,105.7-.3,52.9-.2,26.5c0,8.8.2,17.7-.7,26.6-1.7,17.7-6.8,35.1-14.8,51.3-8,16.2-18.9,31.3-31.7,44.6-12.8,13.5-27.7,25.2-43.9,35.2-8.1,5.1-16.5,9.6-25.2,13.7l-6.6,3c-2.2,1-4.4,1.9-6.6,2.8l-13.2,5.7-422.5,182.2-1.7-3.2,423-181.4,13.2-5.7c2.2-.9,4.4-1.8,6.6-2.8l6.5-3c8.6-4.1,16.9-8.6,24.9-13.6,16-9.9,30.7-21.5,43.4-34.8,12.7-13.2,23.4-28,31.4-44,7.9-16,13-33.1,14.8-50.5.9-8.7.6-17.4.8-26.3l.2-26.5.5-52.9.9-105.7.9-105.7.4-52.9c-.2-17.7,3-35.4,9.3-52.1,6.3-16.8,15.6-32.5,27.2-46.8,11.6-14.3,25.3-27,40.6-38s32.1-20.2,49.8-27.7l52.9-22.6L1482.9,1.4Z"/>
              <path class="cls-4" d="M1482.9,1.4l-416.8,190-52.1,23.8c-17.3,7.9-33.7,17.4-48.6,28.7-14.8,11.3-28,24.3-39,38.9-10.9,14.5-19.6,30.4-25.1,47.1-5.6,16.7-8,34.3-7.1,51.9l1.4,52.7,2.9,105.5,2.9,105.5,1.4,52.7.7,26.4.4,13.2v3.3c0,0,0,3.3,0,3.3v3.3l-.2,3.3c-1.1,17.7-5.5,35.2-12.9,51.6-7.4,16.4-17.7,31.6-30.1,45.4-12.4,13.7-26.8,25.8-42.6,36.2-7.9,5.2-16.2,9.9-24.7,14.3-2.1,1.1-4.3,2.1-6.5,3.2-2.2,1.1-4.4,2-6.5,3l-13,6-416.6,190.2-1.8-3.2,417.1-189.4,13-5.9c2.2-1,4.4-1.9,6.5-3,2.1-1,4.3-2.1,6.4-3.1,8.5-4.2,16.6-8.9,24.5-14.1,15.7-10.2,30-22.2,42.2-35.7,12.2-13.6,22.4-28.6,29.8-44.7,7.3-16.2,11.8-33.3,12.9-50.8l.2-3.3v-6.5c.1,0,.1-3.3.1-3.3l-.4-13.2-.7-26.4-1.3-52.7-2.6-105.5-2.6-105.5-1.3-52.7c-.9-17.6,1.7-35.4,7.3-52.3,5.6-16.9,14.4-32.9,25.4-47.5,11-14.6,24.4-27.7,39.3-39,14.9-11.3,31.4-21,48.9-28.8l52.2-23.7L1482.9,1.4Z"/>
              <path class="cls-4" d="M1482.9,1.4l-410.7,198-51.3,24.8c-17.1,8.2-33.1,18.2-47.6,29.8-14.4,11.7-27.2,24.9-37.6,39.7-10.4,14.7-18.5,30.8-23.4,47.7-4.9,16.9-6.7,34.5-5.2,51.9l3.2,52.5,6.4,105,6.4,105,3.2,52.5,1.6,26.2.8,13.1c0,2.2.3,4.4.3,6.6v6.7c-.4,17.6-4.2,35.2-11,51.8-6.8,16.5-16.5,32.1-28.4,46.1-11.9,14-25.9,26.5-41.4,37.2-7.7,5.3-15.8,10.3-24.2,14.8-4.2,2.3-8.5,4.4-12.8,6.4l-12.8,6.1-410.5,198.2-1.9-3.2,411-197.4,12.8-6.1c4.3-2,8.5-4.2,12.7-6.3,8.3-4.4,16.3-9.3,24-14.6,15.3-10.6,29.2-22.9,40.9-36.7,11.7-13.8,21.4-29.1,28.1-45.4,6.7-16.3,10.5-33.6,10.9-51v-6.5c0-2.2-.2-4.3-.4-6.5l-.8-13.1-1.5-26.2-3.1-52.5-6.1-105-6.1-105-3.1-52.5c-1.5-17.5.3-35.3,5.3-52.3,5-17,13.1-33.3,23.7-48,10.5-14.8,23.4-28.2,37.9-39.9s30.7-21.6,47.9-29.8l51.4-24.7L1482.9,1.4Z"/>
              <path class="cls-4" d="M1482.9,1.4l-404.4,205.9-50.5,25.8c-16.8,8.6-32.5,18.9-46.5,30.9-14,11.9-26.3,25.6-36.2,40.6-9.9,15-17.3,31.3-21.5,48.3-4.3,17-5.4,34.6-3.2,51.9l4.9,52.2,9.9,104.5,9.9,104.5,4.9,52.2,2.5,26.1,1.2,13.1c.5,4.3.8,8.8.8,13.2.3,17.6-2.8,35.2-9,52-6.1,16.7-15.3,32.4-26.6,46.7-11.4,14.3-24.9,27.1-40.1,38.1-7.5,5.5-15.5,10.7-23.7,15.3-4.1,2.4-8.3,4.6-12.6,6.7l-12.6,6.4-404.2,206.1-2-3.2,404.7-205.3,12.6-6.4c4.2-2.1,8.4-4.3,12.4-6.6,8.1-4.6,16-9.6,23.5-15.1,14.9-10.9,28.4-23.5,39.6-37.6,11.2-14.1,20.3-29.6,26.4-46.1,6.1-16.4,9.2-33.8,9-51.2,0-4.3-.3-8.7-.8-13l-1.2-13-2.4-26.1-4.8-52.2-9.6-104.5-9.6-104.5-4.8-52.2c-2.2-17.4-1-35.2,3.3-52.3s11.9-33.5,21.8-48.5c9.9-15.1,22.3-28.7,36.5-40.8,14.1-12,30-22.3,46.8-30.9l50.6-25.7L1482.9,1.4Z"/>
              <path class="cls-4" d="M1482.9,1.4l-397.9,213.7-49.7,26.7c-16.5,8.9-31.9,19.6-45.4,31.9-13.6,12.3-25.4,26.2-34.7,41.4-9.3,15.2-16.1,31.6-19.6,48.7-1.8,8.5-2.8,17.2-3,25.8v6.5c.1,2.2.2,4.3.3,6.5.2,2.2.4,4.3.6,6.5l.9,6.5,6.7,52,13.3,103.8,13.3,103.8,6.7,52,3.3,25.9,1.7,13c.6,4.3,1.1,8.7,1.3,13.1,1,17.5-1.4,35.2-7,52.1-5.5,16.8-14,32.8-24.9,47.4-10.8,14.6-24,27.7-38.7,39.1-7.4,5.7-15.1,11-23.2,15.8-8.1,4.9-16.5,9.1-24.8,13.6l-397.7,213.9-2-3.1,398.2-213.2c8.3-4.5,16.7-8.7,24.7-13.5,8-4.8,15.7-9.9,23-15.6,14.6-11.2,27.6-24.2,38.3-38.5,10.7-14.4,19.2-30.1,24.6-46.6,5.5-16.5,7.9-34,7-51.2-.2-4.3-.7-8.6-1.3-12.9l-1.6-13-3.3-25.9-6.5-52-13.1-103.9-13.1-103.9-6.5-52-.9-6.5c-.3-2.2-.4-4.3-.6-6.5,0-2.2-.2-4.3-.3-6.6v-6.6c.2-8.8,1.2-17.4,3.1-26.1,3.7-17.2,10.5-33.8,19.9-49.1,9.4-15.3,21.3-29.3,35-41.7,13.7-12.4,29.2-23,45.8-32l49.8-26.6L1482.9,1.4Z"/>
              <path class="cls-4" d="M1482.9,1.4l-391.1,221.4-48.9,27.7c-16.2,9.3-31.2,20.3-44.3,33-13.1,12.7-24.4,26.8-33.1,42.3-8.7,15.5-14.8,32.1-17.7,49.2-1.5,8.6-2.1,17.2-1.9,25.8,0,2.2,0,4.3.3,6.5s.3,4.3.6,6.5l.4,3.3.2,1.6.3,1.6,1.1,6.4,8.4,51.6,16.8,103.2,16.8,103.2,8.4,51.6,4.2,25.8,2.1,12.9c.3,2.2.7,4.3,1.1,6.5.2,2.2.6,4.3.8,6.5,1.6,17.4,0,35.2-4.9,52.1-4.8,17-12.8,33.2-23,48-10.3,14.8-22.9,28.3-37.3,40-7.2,5.9-14.7,11.3-22.7,16.4-7.9,5.1-16.2,9.5-24.3,14.2l-391,221.7-2.1-3.1,391.5-220.9c8.1-4.7,16.4-9,24.2-14,7.8-5,15.3-10.3,22.4-16.1,14.2-11.6,26.7-24.9,36.9-39.4,10.2-14.6,18-30.5,22.8-47.3,4.8-16.7,6.5-34.1,5-51.3-.2-2.2-.5-4.2-.7-6.4-.3-2.2-.7-4.2-1-6.4l-2.1-12.9-4.1-25.8-8.3-51.6-16.5-103.2-16.5-103.2-8.3-51.6-1.1-6.4-.3-1.6-.2-1.6-.4-3.3c-.3-2.2-.4-4.3-.6-6.5-.2-2.2-.2-4.3-.3-6.5,0-8.8.5-17.4,2-26.1,3-17.3,9.2-34,18-49.5,8.8-15.5,20.2-29.8,33.4-42.5,13.3-12.7,28.4-23.7,44.6-33.1l49-27.6L1482.9,1.4Z"/>
              <path class="cls-4" d="M1482.9,1.4l-384.2,229.1-48,28.6c-15.8,9.7-30.4,21.1-43.1,34-12.7,12.9-23.4,27.5-31.5,43.1-8.1,15.6-13.6,32.4-15.8,49.5-1.1,8.6-1.4,17.3-.9,25.8.2,2.2.2,4.3.5,6.4.3,2.2.4,4.3.8,6.4.6,4.2,1.6,8.5,2.4,12.7l10.1,51.2,20.1,102.4,20.1,102.4,10.1,51.2,5,25.6,2.5,12.8,1.3,6.4,1,6.5c2.3,17.4,1.3,35.1-2.9,52.1-4.1,17.1-11.4,33.4-21.1,48.5-9.7,15.1-21.9,28.8-35.8,40.9-7,6.1-14.3,11.7-22.1,16.9-7.7,5.2-15.9,9.9-23.9,14.6l-384,229.3-2.2-3,384.6-228.6c8-4.8,16.1-9.3,23.7-14.6,7.6-5.2,15-10.7,21.8-16.6,13.8-11.9,25.8-25.4,35.4-40.3,9.6-14.8,16.8-31,20.9-47.8,4.1-16.8,5.2-34.2,2.9-51.3l-1-6.4-1.3-6.3-2.5-12.8-5-25.6-9.9-51.2-19.9-102.4-19.9-102.4-9.9-51.2c-.8-4.2-1.8-8.5-2.4-12.8-.4-2.2-.6-4.3-.8-6.5-.3-2.2-.4-4.3-.5-6.5-.5-8.7-.2-17.4,1-26,2.3-17.3,7.8-34.2,16-49.9s19-30.4,31.8-43.3c12.8-13,27.5-24.4,43.4-34.1l48.1-28.6L1482.9,1.4Z"/>
              <path class="cls-4" d="M1482.9,1.4l-377,236.7-47.1,29.6c-15.5,10-29.7,21.8-41.9,35.1-12.2,13.3-22.4,28-29.8,43.9-7.5,15.8-12.3,32.7-13.8,49.9-.8,8.6-.7,17.2.1,25.8l.3,3.3c0,1.1.3,2.2.5,3.2l.5,3.2.6,3.2.6,3.2.8,3.2,1.5,6.3,11.7,50.8,23.4,101.5,23.4,101.5,11.7,50.8,5.9,25.4,2.9,12.7,1.5,6.3c.5,2.2.8,4.2,1.3,6.4,3,17.2,2.7,34.9-.8,52-3.5,17.2-10.1,33.7-19.2,49.1-9.1,15.4-20.8,29.4-34.3,41.8-6.7,6.2-13.9,12-21.5,17.4-1.9,1.4-3.8,2.7-5.7,4-1.9,1.3-3.9,2.6-5.8,3.8l-11.8,7.4-376.9,236.9-2.3-3,377.4-236.2,11.8-7.3c2-1.2,3.9-2.5,5.8-3.8,1.9-1.3,3.8-2.6,5.7-3.9,7.5-5.3,14.6-11,21.2-17.2,13.3-12.2,24.9-26.1,33.9-41.2,9-15.1,15.6-31.5,19-48.3,3.5-16.9,3.8-34.3.9-51.2-.4-2.1-.7-4.2-1.2-6.3l-1.5-6.3-2.9-12.7-5.8-25.4-11.6-50.8-23.2-101.6-23.2-101.6-11.6-50.8-1.5-6.3-.7-3.2-.6-3.3-.6-3.3-.5-3.3c0-1.1-.3-2.2-.4-3.3l-.3-3.3c-.8-8.7-.9-17.4,0-26,1.6-17.4,6.4-34.3,14-50.3,7.6-15.9,17.8-30.8,30.1-44.1,12.3-13.3,26.6-25.1,42.2-35.2l47.2-29.5L1482.9,1.4Z"/>
              <path class="cls-4" d="M1482.9,1.4l-369.7,244.1-46.2,30.5c-15.2,10.4-28.9,22.5-40.6,36.1-11.7,13.6-21.3,28.7-28.1,44.6-6.9,16-10.9,33-11.7,50.2-.4,8.6,0,17.2,1.2,25.7.2,1.1.3,2.2.5,3.2l.6,3.2c.3,2.1.8,4.2,1.3,6.3.4,2.1,1,4.2,1.6,6.2l1.7,6.2,13.4,50.3,26.7,100.6,26.7,100.6,13.4,50.3,6.7,25.1,3.3,12.6c1.1,4.2,2.3,8.4,3.2,12.7,3.6,17.1,4.1,34.6,1.3,51.9-2.8,17.2-8.7,34-17.3,49.5-8.5,15.5-19.7,29.9-32.7,42.7-6.5,6.4-13.5,12.4-20.8,18-3.7,2.8-7.5,5.4-11.3,8l-11.6,7.6-369.5,244.4-2.4-2.9,370.1-243.7,11.6-7.6c3.8-2.5,7.6-5.2,11.2-8,7.3-5.5,14.2-11.4,20.6-17.7,12.9-12.6,23.9-26.7,32.3-42,8.5-15.3,14.4-31.8,17.1-48.7,2.8-16.9,2.3-34.3-1.2-51.1-.8-4.2-2-8.3-3.1-12.6l-3.3-12.6-6.6-25.1-13.2-50.3-26.5-100.7-26.5-100.7-13.2-50.3-1.7-6.3c-.6-2.1-1.2-4.2-1.6-6.3-.5-2.1-1-4.2-1.3-6.4l-.6-3.2c-.2-1.1-.3-2.2-.5-3.3-1.2-8.6-1.5-17.3-1.1-25.9.8-17.3,5-34.4,11.9-50.5,6.9-16.2,16.6-31.3,28.4-44.9,11.8-13.6,25.7-25.8,40.9-36.2l46.3-30.5L1482.9,1.4Z"/>
              <path class="cls-4" d="M1482.9,1.4l-362.1,251.5c-15.1,10.5-30.2,21-45.2,31.5-14.8,10.8-28.1,23.1-39.3,37.1-11.2,13.8-20.1,29.2-26.3,45.4s-9.5,33.3-9.6,50.4c0,8.6.7,17.1,2.2,25.6.8,4.2,1.7,8.4,2.8,12.6.5,2.1,1.2,4.2,1.8,6.2l1.9,6.2,15,49.8,29.9,99.6,29.9,99.6,15,49.8,7.5,24.9,3.7,12.5,1.9,6.2c.3,1.1.7,2.1.9,3.2l.8,3.2c4.3,16.9,5.5,34.4,3.4,51.6-2,17.3-7.3,34.2-15.3,49.9-7.9,15.8-18.5,30.5-31,43.6-6.3,6.5-13,12.7-20.2,18.4-1.8,1.4-3.6,2.9-5.4,4.2l-5.6,4.1-11.4,7.9-361.9,251.7-2.4-2.9,362.5-251.1,11.3-7.8,5.5-4.1c1.8-1.4,3.6-2.8,5.4-4.2,7.1-5.7,13.8-11.7,20-18.2,12.4-12.9,22.9-27.3,30.7-42.8,7.8-15.5,13.1-32.2,15.1-49.1,2.1-17,1-34.3-3.2-50.9l-.8-3.2c-.3-1.1-.6-2.1-.9-3.1l-1.9-6.2-3.7-12.5-7.4-24.9-14.9-49.8-29.7-99.6-29.7-99.6-14.9-49.8-1.9-6.2c-.6-2.1-1.3-4.2-1.8-6.2-1.1-4.2-2.1-8.4-2.8-12.7-1.5-8.5-2.2-17.2-2.2-25.8.1-17.3,3.5-34.5,9.8-50.8,6.3-16.3,15.3-31.7,26.6-45.6,11.3-13.9,24.7-26.4,39.6-37.1,15.1-10.6,30.2-21,45.3-31.4L1482.9,1.4Z"/>
              <path class="cls-4" d="M1482.9,1.4l-354.3,258.8-22.1,16.2-11.1,8-5.5,4.1-2.8,2-2.7,2.1c-14.4,11.1-27.2,23.9-37.9,38-10.6,14.1-19,29.7-24.5,46.1-5.5,16.4-8.1,33.5-7.5,50.5s1.4,17.1,3.2,25.4c.5,2.1,1,4.2,1.5,6.2.6,2.1,1.2,4.2,1.8,6.2l4.2,12.3,16.6,49.3,33.1,98.5,33.1,98.5,16.6,49.3,8.3,24.6,4.1,12.3,2.1,6.1,1,3.1c.3,1,.6,2.1.9,3.2,4.9,16.7,6.8,34.2,5.5,51.3-1.3,17.3-5.9,34.3-13.2,50.3-7.3,16-17.3,30.9-29.3,44.3-6,6.7-12.5,13-19.5,19l-5.3,4.3-5.4,4.2-11.1,8.1-354.1,259-2.5-2.8,354.7-258.3,11.1-8,5.4-4.2,5.2-4.3c6.9-5.9,13.3-12.1,19.3-18.7,11.9-13.2,21.8-27.9,29-43.7,7.2-15.7,11.8-32.4,13.1-49.4,1.4-17-.4-34.2-5.3-50.6-.3-1-.6-2.1-.9-3.1l-1-3.1-2.1-6.1-4.1-12.3-8.2-24.7-16.4-49.3-32.9-98.5-32.9-98.5-16.4-49.3-4.1-12.3c-.6-2.1-1.2-4.2-1.8-6.2-.5-2.1-1.1-4.2-1.5-6.3-1.9-8.5-2.9-17.1-3.2-25.7-.6-17.3,2.1-34.5,7.7-51,5.6-16.4,14-32.1,24.8-46.4,10.7-14.2,23.7-27,38.2-38.1l2.7-2.1,2.8-2,5.6-4.1,11.1-8,22.2-16.1L1482.9,1.4Z"/>
              <path class="cls-4" d="M1482.9,1.4l-346.3,266-21.6,16.6-10.8,8.3c-3.6,2.8-7.3,5.5-10.7,8.4-14,11.5-26.3,24.6-36.4,39-10.1,14.5-17.8,30.2-22.6,46.6s-6.7,33.6-5.4,50.7c.7,8.5,2.1,17,4.3,25.2.6,2.1,1.2,4.2,1.8,6.1.7,2.1,1.3,4.1,2.1,6.1l4.6,12.1,18.1,48.6,36.2,97.3,72.4,194.7c5.6,16.5,8.2,33.8,7.5,51.1-.6,17.3-4.5,34.3-11.1,50.5-6.6,16.2-16,31.4-27.6,45.1-5.8,6.9-12.1,13.4-18.8,19.4-1.7,1.5-3.4,3-5.1,4.5-1.7,1.5-3.5,2.9-5.3,4.3-3.6,2.9-7.3,5.5-10.8,8.3l-346.1,266.2-2.6-2.7,346.7-265.5c3.6-2.8,7.3-5.4,10.8-8.3,1.7-1.4,3.5-2.8,5.2-4.2,1.7-1.4,3.4-2.9,5.1-4.4,6.7-6,12.9-12.4,18.6-19.2,11.4-13.5,20.7-28.5,27.3-44.4,6.6-15.9,10.4-32.7,11.1-49.7.7-17-1.8-34.1-7.3-50.3l-71.9-194.8-36-97.4-18-48.7-4.5-12.2c-.7-2.1-1.4-4.2-2.1-6.1-.6-2.1-1.2-4.2-1.8-6.2-2.2-8.4-3.6-16.9-4.3-25.5-1.3-17.2.6-34.5,5.6-51.1,4.9-16.6,12.7-32.4,22.9-47,10.2-14.6,22.6-27.7,36.7-39.1,3.5-2.9,7.2-5.6,10.8-8.4l10.8-8.3,21.7-16.5L1482.9,1.4Z"/>
              <path class="cls-4" d="M1482.9,1.4l-338,273.1-21.1,17.1-10.6,8.5-5.3,4.2c-1.8,1.4-3.4,2.9-5.2,4.3-13.5,11.8-25.4,25.3-34.9,39.9-9.5,14.7-16.5,30.6-20.7,47.3-4.2,16.6-5.3,33.8-3.2,50.7,1,8.4,2.8,16.8,5.3,25,1.3,4.1,2.7,8.1,4.3,12.1l4.9,12,19.6,48.1,39.3,96.1,78.5,192.2c6.2,16.3,9.5,33.4,9.6,50.6,0,17.2-3,34.4-9,50.7-5.9,16.4-14.7,31.8-25.8,45.8-5.5,7-11.6,13.6-18.1,20-1.6,1.6-3.3,3.1-5,4.6-1.6,1.5-3.4,3-5.1,4.5-1.7,1.5-3.5,2.9-5.3,4.3l-5.3,4.2-337.8,273.3-2.7-2.7,338.5-272.6,5.3-4.2c1.8-1.4,3.5-2.8,5.2-4.2,1.7-1.4,3.4-2.9,5.1-4.4,1.6-1.5,3.3-3,4.9-4.5,6.4-6.1,12.4-12.7,17.9-19.6,10.9-13.8,19.6-29,25.5-45.1,5.9-16.1,9-33,9-50s-3.2-33.9-9.3-49.9l-78-192.3-39-96.2-19.5-48.1-4.9-12c-1.6-4.1-3.1-8.1-4.3-12.3-2.5-8.2-4.3-16.7-5.3-25.2-2-17.1-.8-34.4,3.4-51.1,4.2-16.7,11.4-32.8,20.9-47.5,9.6-14.8,21.6-28.3,35.2-40.1,1.7-1.4,3.4-3,5.2-4.3l5.3-4.2,10.6-8.5,21.2-17L1482.9,1.4Z"/>
              <path class="cls-4" d="M1482.9,1.4l-329.6,280.1-20.6,17.5-10.3,8.8-5.2,4.3-5,4.5c-13.1,12.2-24.4,25.9-33.3,40.9-8.9,14.9-15.3,31.2-18.7,47.8-3.4,16.7-3.8,33.9-1.1,50.6,1.4,8.4,3.5,16.7,6.3,24.8,2.8,8.1,6.6,15.9,10.1,23.8l21.1,47.5,42.2,94.8,84.5,189.6c6.8,16,10.8,33,11.6,50.2.8,17.2-1.6,34.4-6.8,50.9-5.3,16.5-13.5,32.2-23.9,46.5-5.2,7.1-11,14-17.3,20.4-.8.8-1.6,1.6-2.4,2.4l-2.4,2.3-2.4,2.3-2.5,2.3c-3.3,3.1-6.9,5.9-10.3,8.9l-329.4,280.3-2.7-2.6,330.1-279.6c3.4-3,7-5.7,10.2-8.8l2.5-2.3,2.4-2.4,2.4-2.3c.8-.8,1.5-1.6,2.3-2.3,6.2-6.3,11.9-13,17.1-20.1,10.3-14.1,18.4-29.6,23.7-45.7,5.2-16.3,7.6-33.3,6.9-50.1-.7-16.9-4.6-33.6-11.3-49.4l-84-189.8-42-94.9-21-47.4c-3.4-8-7.3-15.7-10.1-24-2.8-8.1-5-16.5-6.3-24.9-2.7-16.9-2.3-34.3,1.2-51.1,3.5-16.8,9.9-33.1,18.9-48.2,9-15.1,20.4-28.8,33.6-41.1l5-4.5,5.2-4.3,10.3-8.8,20.6-17.4L1482.9,1.4Z"/>
              <path class="cls-4" d="M1482.9,1.4l-320.9,287-20.1,17.9-10,8.9c-1.7,1.5-3.4,3-5,4.5-1.6,1.5-3.2,3.1-4.8,4.6-12.6,12.6-23.4,26.6-31.7,41.8-8.3,15.2-13.9,31.5-16.6,48.4-2.7,16.7-2.4,33.9,1.1,50.5,1.7,8.3,4.2,16.5,7.3,24.5.4,1,.8,2,1.2,3l1.3,3c.4,1,.8,2,1.3,3l1.4,2.9,5.7,11.7,22.6,46.7,45.2,93.5,90.4,187c7.4,15.7,12.1,32.5,13.6,49.6,1.5,17.1,0,34.3-4.7,51-4.6,16.6-12.1,32.5-22,47.2-4.9,7.3-10.5,14.3-16.5,20.9-6,6.6-12.6,12.8-19.4,18.7l-320.7,287.1-2.8-2.5,321.4-286.5c6.8-5.9,13.3-11.9,19.2-18.4s11.4-13.4,16.3-20.5c9.8-14.4,17.2-30,21.8-46.5,4.6-16.4,6.2-33.4,4.8-50.2-1.5-16.8-6-33.4-13.3-49l-89.9-187.1-44.9-93.5-22.5-46.8-5.6-11.7-1.4-2.9c-.5-1-.9-2-1.3-3l-1.3-3c-.4-1-.8-2-1.2-3-3.2-8-5.6-16.3-7.3-24.7-3.4-16.8-3.7-34.1-1-51,2.8-16.9,8.5-33.4,16.9-48.6,8.3-15.3,19.2-29.5,32-42,1.6-1.5,3.2-3.1,4.9-4.6,1.6-1.5,3.3-3,5-4.5l10.1-8.9,20.1-17.9L1482.9,1.4Z"/>
              <path class="cls-4" d="M1482.9,1.4l-312.1,293.6-19.5,18.3-9.8,9.1c-1.6,1.5-3.3,3.1-4.8,4.6-1.6,1.5-3.2,3.1-4.6,4.8-12.1,12.8-22.4,27.2-30,42.7-7.7,15.5-12.6,32-14.6,48.7-2,16.8-.9,33.9,3.2,50.3,2.1,8.2,4.8,16.4,8.3,24.1,1.7,3.9,3.6,7.8,5.7,11.6l6,11.5,24,46,48,92.1,96.1,184.2c8,15.5,13.4,32.1,15.6,49.1,2.3,17,1.3,34.3-2.5,51-3.9,16.7-10.7,32.9-20,47.8-9.3,14.9-21,28.5-34.4,40.6l-311.8,293.8-2.9-2.5,312.6-293.3c13.2-11.9,24.8-25.3,34-39.9,9.2-14.6,16-30.5,19.8-47,3.9-16.4,4.8-33.5,2.6-50.3-2.2-16.7-7.4-33.1-15.3-48.4l-95.6-184.3-47.8-92.2-23.9-46.1-6-11.5c-2.1-3.8-4-7.7-5.7-11.7-3.5-8-6.3-16.1-8.3-24.4-4.1-16.6-5.2-33.9-3.1-50.8,2-16.9,7-33.5,14.8-49.1,7.7-15.5,18.1-30,30.3-42.8,1.5-1.6,3.1-3.2,4.7-4.8,1.6-1.6,3.2-3.1,4.8-4.6l9.8-9.1,19.5-18.3L1482.9,1.4Z"/>
              <path class="cls-4" d="M1482.9,1.4l-303,300.2-18.9,18.8c-6.3,6.3-12.8,12.4-18.6,19-11.6,13.2-21.3,27.8-28.3,43.5-7,15.6-11.2,32.3-12.5,49.1-1.2,16.8.6,33.8,5.4,50.2,2.4,8.1,5.5,16.1,9.3,23.9,1,1.9,2,3.8,2.9,5.7,1,1.9,2.1,3.8,3.2,5.6l6.4,11.3,25.4,45.3,50.8,90.7,101.6,181.3c8.5,15.2,14.6,31.5,17.5,48.4,3,16.8,2.8,34.2-.4,51-3.1,16.8-9.3,33.2-18,48.4-8.7,15.2-19.9,29.1-32.8,41.5l-302.7,300.4-3-2.4,303.5-299.9c12.8-12.2,23.9-25.9,32.5-40.9,8.6-14.9,14.7-31,17.8-47.5,3.2-16.5,3.4-33.5.5-50.2s-8.8-32.7-17.2-47.8l-101.2-181.5-50.6-90.7-25.3-45.4-6.3-11.3c-1.1-1.9-2.2-3.8-3.2-5.7s-2-3.9-3-5.8c-3.8-7.8-6.9-15.8-9.3-24-4.8-16.4-6.6-33.6-5.3-50.5,1.3-17,5.6-33.7,12.7-49.4,7.1-15.7,16.8-30.5,28.5-43.7,5.8-6.7,12.4-12.7,18.7-19.1l19-18.7L1482.9,1.4Z"/>
              <path class="cls-4" d="M1482.9,1.4l-293.6,306.8-18.4,19.2-9.2,9.6c-3,3.3-5.9,6.5-8.7,9.9-11.1,13.6-20.2,28.5-26.4,44.3-6.3,15.8-9.8,32.6-10.3,49.4-.5,16.8,2.1,33.7,7.5,49.8,2.7,8,6.2,15.9,10.2,23.5,1.1,1.9,2.1,3.8,3.2,5.6l3.4,5.5,6.7,11.1,26.8,44.6,53.5,89.1,107,178.2c9.1,14.9,15.8,31,19.4,47.7,3.7,16.7,4.3,34,1.8,50.9-2.4,16.9-7.8,33.4-15.9,48.8-8.1,15.4-18.7,29.6-31.2,42.4l-293.4,306.9-3-2.3,294.2-306.4c12.4-12.6,22.9-26.6,30.9-41.7,8-15.1,13.4-31.4,15.8-48,2.4-16.6,1.9-33.6-1.7-50.1-3.5-16.4-10.1-32.4-19-47.1l-106.6-178.5-53.3-89.2-26.6-44.6-6.7-11.1-3.4-5.6c-1.1-1.9-2.1-3.8-3.2-5.7-4.1-7.7-7.5-15.5-10.2-23.7-5.5-16.3-8-33.3-7.5-50.3.6-17,4.1-33.8,10.5-49.8,6.4-16,15.5-31,26.7-44.6,2.8-3.4,5.7-6.7,8.8-9.9l9.2-9.6,18.4-19.2L1482.9,1.4Z"/>
              <path class="cls-4" d="M1482.9,1.4l-284.1,313.2-17.8,19.6-8.9,9.8-4.3,5c-1.4,1.7-2.7,3.4-4.1,5.2-10.6,13.8-19,29-24.6,45.1-5.6,16-8.4,32.9-8.1,49.7.2,16.8,3.5,33.5,9.6,49.4,3.1,8,6.8,15.6,11.1,23,2.1,3.7,4.6,7.3,6.9,10.9l7,10.9,28.1,43.8,56.2,87.6,112.3,175.2c9.6,14.6,16.9,30.5,21.3,47,4.4,16.5,5.7,33.7,4,50.7-1.7,16.9-6.5,33.6-13.9,49.3s-17.5,30.2-29.5,43.3l-283.9,313.2-3.1-2.2,284.6-312.7c11.9-12.9,21.8-27.2,29.2-42.6,7.4-15.4,12.1-31.7,13.8-48.4,1.7-16.6.4-33.6-3.8-49.9-4.2-16.3-11.4-32-20.9-46.4l-111.9-175.4-56-87.7-28-43.8-7-10.9c-2.3-3.6-4.8-7.2-6.9-11-4.4-7.5-8.1-15.3-11.2-23.3-6.1-16-9.4-32.9-9.6-49.9-.2-16.9,2.6-33.9,8.3-50,5.7-16.2,14.2-31.5,24.8-45.4,1.4-1.7,2.7-3.4,4.1-5.2l4.3-5.1,8.9-9.8,17.8-19.5L1482.9,1.4Z"/>
              <path class="cls-4" d="M1482.9,1.4l-274.3,319.3-17.1,20c-2.8,3.3-5.8,6.6-8.5,9.9-1.3,1.7-2.8,3.3-4.1,5.2-1.3,1.7-2.6,3.4-3.9,5.2-10,14.1-17.8,29.6-22.7,45.8-4.9,16.2-6.9,33.1-5.9,49.8,1,16.7,5,33.4,11.7,49,3.4,7.8,7.4,15.4,12,22.7l1.7,2.7,1.8,2.7,3.7,5.3,7.3,10.8,29.4,43,58.8,86,117.5,172c10.1,14.2,18.1,29.8,23.1,46.2,5,16.4,7.1,33.4,6.1,50.4-1,17-5,33.8-11.8,49.6-6.8,15.8-16.2,30.7-27.7,44.1l-274.1,319.5-3.2-2.3,274.9-319c11.4-13.2,20.7-27.8,27.4-43.4,6.7-15.5,10.7-32.1,11.7-48.8s-1-33.5-5.9-49.6c-4.9-16.2-12.7-31.5-22.7-45.6l-117.1-172.3-58.5-86.1-29.3-43-7.3-10.8-3.7-5.4-1.8-2.7-1.7-2.7c-4.6-7.3-8.7-15-12.1-22.9-6.8-15.7-10.8-32.5-11.7-49.4s1.1-33.9,6.1-50.3c5-16.3,12.8-31.8,23-46.1,1.3-1.8,2.6-3.5,3.9-5.2,1.3-1.7,2.7-3.4,4.1-5.2,2.8-3.3,5.7-6.7,8.6-10l17.2-19.9L1482.9,1.4Z"/>
              <path class="cls-4" d="M1482.9,1.4l-264.4,325.5-16.5,20.3-4.1,5.1c-1.4,1.7-2.8,3.3-4.1,5.2-1.3,1.7-2.6,3.4-3.9,5.2-1.2,1.8-2.5,3.5-3.6,5.3-9.4,14.5-16.6,30.1-20.7,46.5-4.2,16.4-5.5,33.3-3.8,50,1.7,16.7,6.4,33.1,13.8,48.4,3.7,7.7,8,15.1,12.9,22.2,1.2,1.8,2.5,3.5,3.8,5.2l3.8,5.2,7.7,10.6,30.6,42.2,61.3,84.4,122.5,168.7c10.6,13.9,19.1,29.2,24.8,45.4s8.5,33.2,8.3,50.1c-.2,17-3.5,33.9-9.6,49.9-6.1,16.1-15,31.2-25.9,44.9l-264.2,325.6-3.2-2.2,264.9-325c10.8-13.6,19.6-28.4,25.6-44.2,6-15.7,9.3-32.4,9.6-49.1.3-16.7-2.4-33.4-8-49.3-5.5-15.9-13.9-31-24.4-44.8l-122.1-169-61.1-84.5-30.5-42.3-7.6-10.6-3.8-5.2c-1.3-1.8-2.6-3.5-3.8-5.3-4.9-7.1-9.3-14.6-13-22.4-7.4-15.5-12.1-32.1-13.8-48.9-1.7-16.8-.3-33.9,3.9-50.3,4.3-16.4,11.5-32.3,21-46.7,1.1-1.8,2.4-3.6,3.7-5.4,1.2-1.8,2.6-3.5,3.9-5.2,1.3-1.7,2.7-3.4,4.1-5.2l4.2-5.1,16.6-20.3L1482.9,1.4Z"/>
              <path class="cls-4" d="M1482.9,1.4l-435.8-18.4-108.9-4.6c-36.2-1.9-72.8,2-107.4,12.1-8.6,2.4-17.1,5.4-25.4,8.7-4.2,1.6-8.3,3.3-12.4,5.2l-6.1,2.8c-2,.9-4,2-6,2.9-7.9,4-15.6,8.4-23,13.1-7.4,4.7-14.4,9.9-21.2,15.4-6.7,5.5-13.1,11.3-19,17.5-1.4,1.5-2.9,3.1-4.4,4.7l-4.2,4.8-8.5,9.7-33.9,38.6-135.7,154.4-67.9,77.2-17,19.3c-5.8,6.4-12,12.5-18.7,18.2-13.3,11.4-28,21.3-43.8,29.6-31.5,16.8-66.8,27.5-103,32.2-18.1,2.4-36.4,3.2-54.7,2.5l-54.5-2.3-217.9-9,.2-3.6,217.9,9.5,54.4,2.3c18.1.6,36.2,0,54.1-2.3,35.8-4.6,70.7-15.1,101.9-31.6,15.6-8.2,30.2-18,43.3-29.2,6.6-5.6,12.7-11.6,18.5-17.9l17-19.3,68-77,136.1-154,34-38.5,8.5-9.7,4.2-4.9c1.4-1.6,2.9-3.2,4.4-4.7,6-6.2,12.4-12.1,19.2-17.6s13.9-10.7,21.4-15.5c7.5-4.8,15.2-9.1,23.2-13.1,2-1,4-2,6-3l6.1-2.8c4.1-1.7,8.2-3.5,12.4-5.2,8.4-3.3,16.9-6.1,25.6-8.7,34.7-10,71.5-13.9,107.9-11.9l108.9,4.8L1482.9,1.4Z"/>
              <path class="cls-4" d="M1482.9,1.4l-439-10.2-109.8-2.5c-36.5-.9-73.2,4.2-107.5,15.5-8.6,2.8-17,6-25.2,9.6-8.2,3.6-16.2,7.5-24,11.8-7.8,4.3-15.3,9-22.4,14.1-7.2,5.1-14,10.6-20.5,16.4-6.4,5.8-12.5,12-18.1,18.5-5.4,6.6-11,13.2-16.5,19.8l-33,39.7-132,158.6-66,79.4c-5.5,6.6-10.8,13.4-16.9,19.7-6,6.3-12.4,12.3-19.3,17.9-13.6,11.2-28.8,20.8-44.9,28.9-32.2,16.2-67.9,26.3-104.5,30.3-9.1,1-18.3,1.5-27.5,1.8-4.6.2-9.2,0-13.8,0l-13.7-.4-54.9-1.3-219.5-5.1v-3.6c0,0,219.6,5.5,219.6,5.5l54.9,1.4,13.7.4h13.6c9.1-.2,18.2-.7,27.2-1.7,36.1-3.9,71.5-13.8,103.4-29.7,15.9-8,30.9-17.4,44.4-28.5,6.7-5.5,13.1-11.4,19.1-17.6,6-6.1,11.2-12.9,16.8-19.5l66.2-79.2,132.4-158.3,33.1-39.6c5.5-6.6,11-13.2,16.5-19.8,5.6-6.6,11.8-12.7,18.3-18.6,6.5-5.9,13.4-11.3,20.7-16.4,7.2-5.2,14.8-9.9,22.6-14.2,7.8-4.3,15.9-8.3,24.2-11.8,8.3-3.5,16.8-6.7,25.4-9.6,34.5-11.2,71.4-16.4,108.1-15.4l109.8,2.8L1482.9,1.4Z"/>
              <path class="cls-4" d="M1482.9,1.4l-442.5-2-110.6-.5c-36.8.4-73.6,6.6-107.6,19.3-2.1.8-4.3,1.5-6.4,2.4l-6.3,2.5c-4.1,1.8-8.3,3.6-12.3,5.6-8.1,3.9-16,8.2-23.6,12.8-15.2,9.4-29.2,20.3-41.4,32.6-6.1,6.1-11.8,12.7-17,19.6l-16,20.3-32,40.8-128.2,163-64.1,81.5c-10.6,13.7-23.2,26.2-37.4,37.1-14.1,10.8-29.6,20.2-46.1,28-32.8,15.6-69.2,24.9-106.1,28-9.2.7-18.5,1.2-27.8,1.2l-27.7-.2-55.3-.3-221.3-1v-3.6l221.3,1.4,55.3.4,27.6.2c9.2,0,18.3-.4,27.5-1.1,36.5-3.1,72.5-12.1,105-27.5,16.3-7.6,31.6-16.9,45.6-27.6,14-10.7,26.5-23,37-36.5l64.3-81.3,128.6-162.8,32.1-40.7,16.1-20.3c5.2-6.9,11-13.5,17.2-19.7,12.4-12.5,26.5-23.4,41.8-32.8,7.7-4.7,15.6-8.9,23.8-12.9,4.1-2,8.2-3.8,12.4-5.6l6.3-2.5c2.1-.8,4.3-1.6,6.4-2.4,34.2-12.7,71.2-18.9,108.2-19.2l110.6.7,442.5,2.9h0Z"/>
              <path class="cls-4" d="M1482.9,1.4l-445.7,6.3-55.7.8-27.9.4-13.9.2c-4.6,0-9.3,0-13.9.3-37,1.4-73.8,9-107.5,23-16.8,7-32.9,15.5-47.7,25.6-14.8,10-28.3,21.7-39.8,34.8l-4.2,5-4,5.1-7.7,10.5-15.5,20.9-31,41.8-124.1,167.3-31,41.8-15.5,20.9-7.8,10.5-3.9,5.2c-1.3,1.7-2.7,3.4-4.1,5.2-11.1,13.6-24.3,25.8-38.8,36.4s-30.5,19.6-47.2,27.1c-33.5,14.9-70.4,23.6-107.6,25.8-4.7.4-9.3.5-14,.5l-14,.2-27.9.5-55.7.8-222.8,3.3v-3.6l222.8-2.9,55.7-.7,27.9-.4,13.9-.2c4.6,0,9.2-.3,13.8-.5,36.9-2.2,73.3-10.7,106.5-25.3,16.6-7.4,32.4-16.2,46.7-26.7,14.4-10.5,27.4-22.4,38.4-35.9,1.3-1.7,2.7-3.3,4-5.1l3.9-5.2,7.8-10.5,15.6-20.9,31.1-41.8,124.5-167,31.1-41.8,15.6-20.9,7.8-10.5,4.1-5.2,4.3-5c11.7-13.1,25.3-24.9,40.2-35,14.9-10.1,31.1-18.6,48-25.6,33.9-13.9,70.9-21.6,108.1-22.9,4.6-.2,9.3-.2,13.9-.3l13.9-.2,27.9-.4,55.7-.7,445.7-5.4v.2Z"/>
              <path class="cls-4" d="M1482.9,1.4l-448.6,14.8-56.1,1.9-28,.9-14,.5c-2.3,0-4.7,0-7,.3l-7,.4c-18.6,1.4-37.1,4.2-55.1,8.7s-35.5,10.5-52.1,18.2c-8.3,3.8-16.4,8-24.2,12.7-7.8,4.6-15.3,9.7-22.5,15-14.3,10.8-27.2,23.1-37.9,36.9-1.3,1.7-2.6,3.5-3.9,5.2s-2.5,3.5-3.7,5.3l-7.5,10.8-15,21.4-30,42.9-119.8,171.5-30,42.9-15,21.4-3.7,5.4-1.9,2.7-2,2.6-2,2.6-2.1,2.5-2.1,2.5-2.2,2.5c-11.6,13.4-25.2,25.3-40.2,35.6-7.5,5.2-15.3,9.9-23.4,14.3-2,1.1-4,2.2-6.1,3.2l-6.2,3.1-6.3,2.9c-2.1,1-4.2,1.8-6.4,2.7-8.5,3.5-17.3,6.7-26.2,9.5-8.9,2.7-18,5.1-27.1,7-18.3,4-37,6.1-55.8,7l-112.2,3.7-224.3,7.5v-3.6c0,0,224.2-7.1,224.2-7.1l112.1-3.5c18.6-.7,37.1-2.9,55.2-6.8,9.1-1.9,18-4.2,26.8-7,8.8-2.7,17.4-5.9,25.9-9.3,2.1-.9,4.2-1.7,6.3-2.7l6.2-2.8,6.1-3c2.1-1,4-2.1,6-3.2,8-4.3,15.7-8.9,23.1-14,14.8-10.1,28.3-22,39.8-35.1l2.2-2.4,2.1-2.5,2.1-2.5,2-2.6,2-2.6,1.9-2.6,3.7-5.3,15-21.4,30.1-42.8,120.2-171.3,30.1-42.8,15-21.4,7.5-10.8c1.3-1.8,2.5-3.6,3.8-5.3,1.3-1.7,2.6-3.5,4-5.2,10.9-13.8,23.9-26.3,38.3-37.1,7.2-5.4,14.8-10.5,22.7-15.1,7.9-4.6,16-8.9,24.4-12.7,16.7-7.7,34.4-13.7,52.4-18.2,18.1-4.4,36.7-7.2,55.3-8.6l7-.4c2.3-.2,4.7-.2,7-.3l14-.5,28-.9,56.1-1.7L1482.9,1.4Z"/>
              <path class="cls-4" d="M1482.9,1.4l-452.3,23.5-56.5,3-28.3,1.4-14.1.7c-4.7.4-9.4.6-14.1,1.2-18.7,2-37.2,5.5-55.1,10.8-9,2.6-17.8,5.6-26.4,9-8.6,3.4-17,7.2-25.2,11.5-16.4,8.4-31.7,18.5-45.4,30.1-13.7,11.6-25.8,24.9-35.6,39.3l-57.7,88-115.6,176.1-28.9,44-7.2,11-3.6,5.5-1.8,2.8-1.9,2.7c-5.1,7.2-10.8,14.1-17,20.7-12.4,13-26.6,24.6-42.2,34.4-15.5,9.9-32.3,18.2-49.8,24.8-8.8,3.3-17.7,6.2-26.8,8.8-9.1,2.4-18.3,4.5-27.6,6.2-9.3,1.7-18.7,3-28.1,3.8-9.4.9-18.9,1.2-28.3,1.7l-113.1,6-226.1,11.9-.2-3.6,226.2-11.5,113.1-5.7c9.4-.5,18.8-.8,28.2-1.6,9.3-.8,18.6-2.1,27.8-3.7,9.2-1.6,18.3-3.7,27.3-6.1s17.8-5.3,26.5-8.6c17.3-6.5,33.9-14.6,49.3-24.4,15.4-9.7,29.5-21.1,41.7-33.9,6.1-6.4,11.7-13.2,16.8-20.3l1.9-2.7,1.8-2.7,3.6-5.5,7.2-11,29-43.9,116-175.9,58-87.9c9.9-14.6,22.1-27.9,36-39.6,13.9-11.7,29.3-21.8,45.8-30.2,8.2-4.2,16.7-8,25.4-11.5,8.7-3.4,17.6-6.4,26.6-9,18-5.2,36.6-8.8,55.4-10.7,4.7-.5,9.4-.8,14.1-1.2l14.1-.7,28.3-1.4,56.5-2.8L1482.9,1.4Z"/>
              <path class="cls-4" d="M1482.9,1.4l-455.8,32.4-57,4.1-28.5,2c-9.5.5-19,1.4-28.3,2.8-37.5,5.2-74,17.3-106.1,35.8-16,9.2-30.8,20.2-43.9,32.6-6.5,6.2-12.6,12.8-18.1,19.8-2.8,3.5-5.4,7.1-7.9,10.8-1.2,1.8-2.5,3.6-3.6,5.5l-3.4,5.6-55.5,90.3-111.1,180.6-27.8,45.1-3.5,5.7-1.7,2.8-1.8,2.8-1.9,2.8-2,2.7-2,2.7-2.1,2.6c-5.5,7-11.6,13.8-18.1,20.2-13.1,12.7-28,23.8-44,33.2-8,4.7-16.4,9-24.9,12.9-8.6,3.9-17.4,7.3-26.3,10.4-9,3.1-18.1,5.7-27.3,8-9.3,2.2-18.6,4-28.1,5.4-9.4,1.4-19,2.4-28.5,2.9l-28.5,2-113.9,8.1-227.9,16.2-.3-3.6,227.9-15.7,114-7.9,28.5-2c9.5-.5,18.9-1.5,28.2-2.8,9.4-1.4,18.6-3.1,27.8-5.2s18.2-4.8,27.1-7.8c8.9-3,17.6-6.4,26.1-10.2,8.5-3.9,16.7-8.1,24.7-12.7,15.9-9.2,30.7-20.2,43.6-32.7,6.5-6.2,12.5-12.9,17.9-19.9l2-2.6,1.9-2.7,1.9-2.7,1.8-2.7,1.8-2.7,1.7-2.8,3.5-5.6,27.9-45.1,111.5-180.3,55.8-90.2,3.5-5.7c1.1-1.9,2.4-3.7,3.6-5.6,2.5-3.7,5.2-7.3,7.9-10.8,5.6-7,11.7-13.6,18.3-20,13.2-12.6,28.1-23.5,44.2-32.7,32.3-18.5,68.9-30.5,106.7-35.7,9.4-1.4,18.9-2.2,28.5-2.7l28.5-2,57-3.9L1482.9,1.4Z"/>
              <path class="cls-4" d="M1482.9,1.4l-458.9,41.3-57.4,5.2c-19.1,1.9-38.3,2.9-57.1,6.3-18.8,3.3-37.2,8.4-54.9,15.1-17.6,6.8-34.5,15.2-50.1,25.2-15.6,10.1-29.8,21.8-42.1,35.2-6.1,6.6-11.8,13.6-16.8,21.1-5.1,7.3-9.2,15.2-13.7,22.9l-53.2,92.5-106.3,184.9-13.3,23.1-6.6,11.6-3.3,5.8c-1.1,1.9-2.2,3.9-3.4,5.8-9.4,15.3-21.4,29.2-35.1,41.6-13.7,12.3-29.2,23-45.8,31.9-8.3,4.5-16.8,8.6-25.6,12.2-8.8,3.6-17.8,6.9-26.9,9.7-18.3,5.6-37.2,9.5-56.4,11.7-4.8.6-9.6.9-14.4,1.4l-14.3,1.3-28.7,2.6-114.7,10.4-229.4,20.8-.4-3.6,229.5-20.3,114.8-10.1,28.7-2.5,14.3-1.3c4.8-.5,9.5-.7,14.3-1.4,19-2.2,37.7-5.9,55.8-11.4,9.1-2.7,18-5.9,26.7-9.5,8.7-3.6,17.2-7.6,25.4-12,16.4-8.9,31.8-19.3,45.3-31.5,13.6-12.1,25.4-25.8,34.7-40.9,1.2-1.9,2.3-3.8,3.4-5.7l3.3-5.8,6.7-11.6,13.3-23,106.8-184.7,53.4-92.4c4.5-7.7,8.7-15.5,13.8-23,5.1-7.4,10.8-14.5,17-21.1,12.4-13.4,26.8-25.1,42.5-35.2,15.7-10,32.7-18.5,50.5-25.3,17.8-6.7,36.3-11.7,55.2-15.1,18.9-3.4,38.2-4.4,57.3-6.2l57.4-5.1L1482.9,1.4Z"/>
              <path class="cls-4" d="M1482.9,1.4l-462.5,50.5-57.8,6.3c-9.6,1.1-19.3,2.1-28.9,3.2-9.6,1.2-19.1,2.8-28.5,4.9-18.8,4.2-37.2,9.9-54.6,17.5-17.4,7.6-34,16.9-49.1,27.8-15.1,11-28.6,23.7-39.9,37.8-5.7,7-10.8,14.6-15.2,22.3-1.2,1.9-2.2,3.9-3.2,5.9l-3.2,6-6.3,11.8-50.7,94.7-101.5,189.4-12.7,23.7-3.2,6-1.6,3c-.5,1-1.1,2-1.7,2.9l-1.7,2.9-1.8,2.9-1.8,2.9-1.9,2.8c-10.4,15-23.2,28.5-37.7,40.3-7.2,5.9-14.9,11.4-22.9,16.5-8,5.1-16.3,9.7-24.9,13.9-8.6,4.2-17.4,8-26.4,11.4-9,3.3-18.3,6.2-27.6,8.7-9.4,2.4-18.9,4.5-28.5,6.1l-7.2,1.2-7.2,1c-4.8.5-9.7,1-14.5,1.5l-57.8,6.3-115.6,12.7-231.2,25.3-.5-3.6,231.3-24.9,115.6-12.5,57.8-6.2c4.8-.5,9.6-1,14.4-1.5l7.2-.9,7.1-1.1c9.5-1.6,18.9-3.6,28.2-6.1,9.3-2.4,18.4-5.2,27.4-8.6,8.9-3.3,17.7-7,26.2-11.2,8.5-4.2,16.7-8.8,24.6-13.7s15.5-10.4,22.7-16.3c14.3-11.7,27-25,37.3-39.8l1.9-2.8,1.8-2.8,1.8-2.8,1.7-2.9c.6-1,1.1-1.9,1.7-2.9l1.6-3,3.2-5.9,12.7-23.7,101.9-189.3,51-94.6,6.4-11.8,3.2-6c1.1-2,2.1-4,3.2-5.9,4.5-7.9,9.6-15.4,15.4-22.4,11.4-14.3,25.2-27,40.3-38.1,15.2-10.9,31.9-20.2,49.4-27.9,17.6-7.6,36-13.4,54.9-17.5,9.5-2.1,19-3.7,28.7-4.9,9.6-1.1,19.3-2.1,28.9-3.2l57.8-6.2L1482.9,1.4Z"/>
              <path class="cls-4" d="M1482.9,1.4l-465.8,59.8-58.2,7.5-14.6,1.9c-2.4.4-4.9.6-7.3.9l-7.2,1.1c-9.6,1.6-19.2,3.6-28.5,6.1-18.8,5-37,11.6-54.2,20.1-17.1,8.5-33.3,18.6-47.8,30.5-14.5,11.8-27.2,25.5-37.5,40.5-5.1,7.5-9.6,15.4-13.4,23.5l-12.1,24.2-48.2,97-96.4,194-6,12.1-3,6.1-1.5,3.1-1.6,3c-4.4,8-9.4,15.7-15.1,23-11.3,14.6-25,27.7-40.2,39-7.6,5.7-15.6,10.9-23.9,15.7-8.3,4.8-16.9,9.1-25.8,13.1-17.7,7.9-36.3,13.9-55.5,18.2-9.6,2.2-19.2,3.9-29,5.2l-29.1,3.7-58.2,7.5-116.5,14.9-232.9,29.9-.6-3.6,233-29.5,116.5-14.7,58.2-7.3,29.1-3.6c9.7-1.3,19.2-2.9,28.7-5,18.9-4.2,37.4-10.2,54.9-17.9,8.8-3.9,17.3-8.1,25.5-12.8,8.2-4.8,16.1-9.9,23.7-15.5,15.1-11.2,28.6-24,39.8-38.5,5.6-7.2,10.6-14.8,14.9-22.7l1.6-3,1.5-3,3-6.1,6.1-12.1,96.9-193.8,48.4-96.9,12.1-24.2c3.8-8.1,8.4-16.1,13.6-23.7,10.4-15.1,23.3-28.8,37.8-40.8,29.3-23.8,64.9-40.9,102.6-50.7,9.4-2.4,19-4.5,28.7-6.1l7.3-1.1c2.4-.4,4.9-.6,7.3-.9l14.6-1.8,58.2-7.4L1482.9,1.4Z"/>
              <path class="cls-4" d="M1482.9,1.4l-469,69.3-58.6,8.7-14.6,2.2-7.3,1.3c-2.4.5-4.8.9-7.2,1.4-9.6,2-19.1,4.4-28.5,7.3-18.7,5.8-36.7,13.3-53.5,22.7-16.8,9.4-32.5,20.4-46.2,33.3s-25.5,27.3-34.6,43.2c-2.2,4-4.3,8-6.2,12.1l-5.7,12.4-11.4,24.8-45.5,99.1-91.1,198.4-2.8,6.2c-.5,1-.9,2.1-1.4,3.1l-1.6,3.1c-1,2.1-2.1,4.1-3.3,6.1-1.1,2-2.3,4-3.5,6-4.9,7.9-10.4,15.4-16.5,22.5-12.2,14.3-26.7,26.8-42.6,37.6-15.9,10.8-33.3,19.9-51.5,27.1-18.2,7.2-37.3,12.7-56.8,16.3-2.4.5-4.9.8-7.3,1.3-2.4.5-4.9.7-7.4,1.1l-14.7,2.2-29.3,4.3-58.6,8.7-117.2,17.4-234.5,34.8-.6-3.5,234.6-34.3,117.3-17.2,58.6-8.6,29.3-4.3,14.7-2.2c2.4-.4,4.9-.6,7.3-1.1,2.4-.5,4.8-.8,7.3-1.3,19.3-3.5,38.2-8.9,56.3-16,18.1-7,35.2-16,51-26.8,15.8-10.7,30.1-23,42.2-37.1,6-7,11.5-14.5,16.3-22.1,1.2-2,2.4-3.9,3.5-5.9,1.1-2,2.2-4,3.2-6l1.5-3.1c.5-1,.9-2.1,1.4-3.1l2.8-6.1,91.6-198.2,45.8-99.1,11.4-24.8,5.7-12.4c1.9-4.2,4.1-8.2,6.3-12.2,9.1-16,21.1-30.5,34.9-43.5,13.9-12.8,29.6-24,46.6-33.3,16.9-9.4,35.1-16.9,53.9-22.7,9.4-2.9,19-5.3,28.6-7.3,2.4-.5,4.8-1,7.3-1.4l7.3-1.3,14.7-2.2,58.6-8.6L1482.9,1.4Z"/>
              <path class="cls-4" d="M1482.9,1.4l-472.6,79.2-59.1,9.9c-19.7,3.1-39.1,7.9-57.6,14.6-18.6,6.7-36.3,15.2-52.7,25.5-16.4,10.3-31.4,22.4-44.2,36.2-12.8,13.8-23.5,29.3-31.1,45.9l-21.4,50.7-42.8,101.5-42.8,101.5-21.4,50.7-10.7,25.4-5.4,12.7-2.7,6.3c-.4,1.1-.9,2.1-1.4,3.2l-1.5,3.2c-8,16.7-19.2,32.2-32.4,45.9-13.2,13.7-28.6,25.8-45.3,35.9-16.7,10.2-34.7,18.5-53.5,25-9.4,3.3-19,6-28.7,8.3-2.4.6-4.9,1.1-7.3,1.6-2.4.5-4.9,1-7.4,1.4l-3.7.7-3.7.6-7.4,1.3-472.5,79.5-.7-3.5,472.7-78.7,7.4-1.2,3.7-.6,3.7-.7c2.4-.5,4.9-.9,7.3-1.4,2.4-.5,4.9-1,7.3-1.6,9.6-2.3,19.2-5,28.5-8.2,18.6-6.4,36.5-14.6,53-24.7,16.5-10,31.8-21.9,44.9-35.4,13.1-13.6,24.1-28.7,32.1-45.2l1.5-3.1c.5-1,1-2.1,1.4-3.2l2.7-6.3,5.4-12.7,10.8-25.3,21.5-50.7,43.1-101.4,43.1-101.4,21.6-50.7c7.7-16.8,18.5-32.4,31.5-46.3,13-13.9,28.1-26,44.6-36.4s34.4-18.9,53-25.6c18.7-6.7,38.1-11.5,57.9-14.5l59.1-9.8L1482.9,1.4Z"/>
              <path class="cls-4" d="M1482.9,1.4l-476.1,89.2-59.5,11.1c-19.8,3.9-39.1,9.6-57.4,17.3-18.4,7.6-35.8,17.1-51.6,28.5s-30.1,24.5-41.9,39.3c-11.8,14.8-21.1,31.2-27.2,48.6l-20,51.9-40,103.8-40,103.8-20,51.9-10,25.9c-3.1,8.8-7.1,17.3-11.7,25.5-9.3,16.4-21.6,31.4-35.8,44.6-14.3,13.2-30.5,24.6-47.9,34.1-17.5,9.5-36.2,17.1-55.5,22.8-9.7,2.9-19.5,5.2-29.5,7.1l-29.8,5.6-476,89.3-.8-3.5,476.2-88.5,29.7-5.5c9.9-1.9,19.6-4.2,29.2-7,19.2-5.6,37.7-13.1,55-22.4,17.3-9.4,33.3-20.6,47.4-33.6,14.1-12.9,26.2-27.7,35.5-43.9,4.6-8,8.5-16.4,11.7-25.1l10.1-25.9,20.1-51.8,40.2-103.7,40.2-103.7,20.1-51.8c6.2-17.5,15.6-34.1,27.5-49,11.9-14.9,26.3-28.1,42.2-39.5,15.9-11.4,33.5-20.9,51.9-28.6,18.5-7.6,37.9-13.4,57.7-17.2l59.5-11L1482.9,1.4Z"/>
              <path class="cls-4" d="M1482.9,1.4l-469.3,97.4-58.7,12.2c-19.5,4-38.6,9.7-56.8,17.4-18.1,7.7-35.3,17.2-51,28.5-15.6,11.3-29.7,24.3-41.4,39-11.7,14.6-20.8,31-26.8,48.2l-18.1,51.9-36.2,103.8-36.2,103.8-18.1,51.9-9.1,25.9-4.5,13c-.8,2.2-1.7,4.3-2.5,6.4-.9,2.1-1.9,4.2-2.8,6.3-7.9,16.8-18.9,32.4-32,46.3-13.2,13.8-28.4,26-45,36.3-16.6,10.3-34.7,18.8-53.5,25.4-9.4,3.3-19,6.1-28.7,8.5l-7.3,1.7-7.4,1.5-14.7,3.1L-6.5,827.3l-.9-3.5,469.5-96.8,14.7-3,7.3-1.4,7.3-1.6c9.6-2.3,19.1-5.2,28.5-8.4,18.6-6.5,36.5-14.8,52.9-25,16.5-10.2,31.6-22.1,44.6-35.8,13-13.6,23.9-29,31.7-45.6,1-2.1,1.9-4.2,2.8-6.2.8-2.1,1.7-4.2,2.5-6.3l4.5-12.9,9.1-25.9,18.2-51.9,36.5-103.7,36.5-103.7,18.2-51.9c6-17.4,15.4-33.8,27.1-48.5,11.8-14.8,26-27.9,41.7-39.2,15.7-11.3,33-20.9,51.3-28.5,18.2-7.7,37.4-13.4,57.1-17.4l58.7-12L1482.9,1.4Z"/>
              <path class="cls-4" d="M1482.9,1.4l-465.7,106.2-58.2,13.3c-19.4,4.3-38.3,10.4-56.2,18.4-17.9,8-34.8,17.8-50.1,29.4-15.3,11.6-29,24.9-40.1,39.9-11.2,14.9-19.8,31.4-25.2,48.7l-16.4,52.2-32.8,104.4-32.8,104.4-16.4,52.2-8.2,26.1-4.1,13.1c-.7,2.2-1.5,4.3-2.3,6.5-.9,2.2-1.7,4.2-2.6,6.4-7.4,17-17.8,32.8-30.5,46.9s-27.6,26.6-43.9,37.2c-16.3,10.7-34.1,19.4-52.7,26.4-9.3,3.4-18.8,6.5-28.5,9l-7.3,1.8-7.3,1.6-14.6,3.3L21.7,855.2l-1-3.5,465.9-105.6,14.6-3.3,7.3-1.6,7.2-1.8c9.6-2.5,19-5.4,28.2-8.9,18.4-6.9,36-15.5,52.2-25.9,16.2-10.5,30.9-22.8,43.5-36.7,12.6-13.9,22.9-29.5,30.2-46.2.9-2.1,1.7-4.2,2.6-6.3.8-2.2,1.6-4.2,2.3-6.4l4.1-13,8.2-26.1,16.5-52.2,33-104.3,33-104.3,16.5-52.2c5.5-17.4,14.2-34.1,25.5-49.1s25.1-28.5,40.5-40c15.4-11.7,32.4-21.5,50.4-29.5,18-8,37-14.1,56.5-18.3l58.2-13.2L1482.9,1.4Z"/>
              <path class="cls-4" d="M1482.9,1.4l-461.8,114.9-57.7,14.4c-19.2,4.6-38,11.1-55.6,19.4-17.7,8.3-34.3,18.4-49.2,30.4-14.9,11.8-28.2,25.5-38.9,40.7-10.7,15.2-18.8,31.8-23.6,49.3l-14.6,52.4-29.2,104.9-29.2,104.9-14.6,52.5-7.3,26.2-3.6,13.1c-.6,2.2-1.4,4.3-2.1,6.5-.8,2.2-1.6,4.3-2.4,6.4-6.8,17.1-16.7,33.2-29,47.5-12.3,14.4-26.8,27.1-42.8,38.1-16,10.9-33.5,20.1-51.9,27.4-9.2,3.6-18.6,6.8-28.2,9.6l-7.2,2-7.2,1.8-14.4,3.6-461.7,115.1-1.1-3.5,462-114.2,14.4-3.5,7.2-1.7,7.1-1.9c9.5-2.7,18.8-5.8,27.9-9.4,18.2-7.1,35.5-16.2,51.4-26.9,15.8-10.8,30.2-23.4,42.3-37.6,12.1-14.2,22-30,28.7-46.8.8-2.1,1.6-4.2,2.4-6.3.7-2.2,1.4-4.2,2.1-6.4l3.7-13.1,7.4-26.2,14.7-52.4,29.5-104.9,29.5-104.9,14.7-52.4c4.9-17.5,13.1-34.3,23.9-49.6,10.8-15.3,24.2-28.9,39.2-40.9,15-11.9,31.8-22.1,49.5-30.5,17.8-8.3,36.6-14.8,55.9-19.4l57.8-14.3L1482.9,1.4Z"/>
              <path class="cls-4" d="M1482.9,1.4l-457.7,123.5-57.2,15.5c-9.5,2.5-18.9,5.4-28.1,8.9-9.2,3.4-18.2,7.3-26.9,11.6-17.4,8.7-33.7,19.1-48.2,31.3-14.6,12.2-27.4,26.1-37.6,41.5-10.2,15.4-17.7,32.2-21.9,49.7l-12.8,52.7-25.7,105.4-25.7,105.4-12.8,52.7-6.4,26.4-3.2,13.2c-.6,2.2-1.2,4.4-1.8,6.6l-2.2,6.5c-6.2,17.3-15.6,33.4-27.4,48.1-11.8,14.6-25.9,27.7-41.5,39-15.7,11.3-32.9,20.7-51,28.4-9.1,3.8-18.4,7.1-27.8,10l-7.1,2.1-7.2,1.9-14.3,3.9-457.6,123.7-1.1-3.4,457.9-122.8,14.3-3.8,7.1-1.9,7.1-2.1c9.4-2.9,18.6-6.1,27.6-9.9,18-7.5,35-16.8,50.5-27.9,15.5-11.1,29.5-24,41.1-38.4,11.7-14.5,21-30.5,27.1-47.4l2.1-6.4c.6-2.2,1.3-4.3,1.8-6.5l3.2-13.1,6.5-26.3,13-52.7,25.9-105.4,25.9-105.4,12.9-52.7c4.3-17.6,11.9-34.6,22.2-50.1,10.3-15.5,23.2-29.5,37.9-41.7,14.7-12.2,31.1-22.8,48.6-31.4,8.8-4.3,17.8-8.2,27-11.6,9.2-3.4,18.7-6.3,28.3-8.9l57.2-15.4L1482.9,1.4Z"/>
              <path class="cls-4" d="M1482.9,1.4l-453.3,132-56.7,16.5c-9.5,2.7-18.7,5.8-27.8,9.4-9.1,3.6-17.9,7.6-26.5,12.1-17.1,8.9-33.1,19.8-47.2,32.3-14.2,12.5-26.5,26.7-36.2,42.3-9.7,15.5-16.6,32.5-20.2,50.2l-11,52.9-22.1,105.7-22.1,105.7-11.1,52.9-5.5,26.4-2.8,13.3c-.5,2.2-1.1,4.4-1.6,6.6-.6,2.2-1.3,4.3-1.9,6.5-5.6,17.4-14.4,33.8-25.7,48.7-11.3,14.9-25,28.3-40.3,39.9-15.3,11.6-32.2,21.3-50.1,29.4-9,4-18.1,7.5-27.5,10.6l-7.1,2.3-7.1,2.1-14.2,4.2-453.2,132.2-1.2-3.4,453.6-131.4,14.2-4.1,7.1-2,7-2.2c9.3-3,18.4-6.5,27.3-10.4,17.7-7.9,34.5-17.5,49.6-28.9,15.1-11.4,28.7-24.6,39.9-39.3,11.2-14.6,19.9-30.9,25.5-48,.6-2.2,1.3-4.3,1.9-6.4.5-2.2,1.1-4.3,1.6-6.5l2.8-13.2,5.6-26.4,11.2-52.9,22.4-105.7,22.4-105.7,11.2-52.9c3.6-17.7,10.7-34.8,20.5-50.5,9.8-15.7,22.3-29.9,36.5-42.5,14.3-12.6,30.4-23.4,47.6-32.4,8.6-4.5,17.5-8.5,26.6-12.1,9.1-3.5,18.5-6.7,28-9.3l56.7-16.4L1482.9,1.4Z"/>
              <path class="cls-4" d="M1482.9,1.4l-448.8,140.5-56.1,17.5c-9.4,2.9-18.5,6.1-27.5,9.9-9,3.8-17.7,8-26.1,12.7-16.8,9.3-32.5,20.4-46.2,33.2-13.8,12.7-25.6,27.2-34.8,43-9.1,15.8-15.5,32.9-18.4,50.5l-9.2,53-18.5,106-18.5,106-9.3,53-4.6,26.5-2.3,13.3c-.4,2.3-.9,4.4-1.4,6.6s-1.1,4.4-1.7,6.6c-5,17.4-13.2,34.1-24,49.3-10.8,15.1-24,28.8-39,40.7-14.9,11.9-31.6,22.1-49.2,30.4-8.8,4.2-17.9,7.9-27.2,11.1l-7,2.3-7,2.2-14,4.4-448.7,140.7-1.3-3.4,449-139.9,14-4.3,7-2.2,6.9-2.3c9.2-3.2,18.2-6.9,26.9-10.9,17.5-8.2,33.9-18.2,48.7-29.9,14.8-11.7,27.9-25.2,38.6-40.1,10.7-14.9,18.9-31.3,23.8-48.5.6-2.2,1.2-4.3,1.7-6.5.5-2.2,1-4.3,1.4-6.5l2.3-13.2,4.7-26.5,9.4-53,18.8-105.9,18.8-105.9,9.4-53c3-17.7,9.4-35,18.7-50.9,9.2-15.9,21.2-30.5,35.1-43.3,13.9-12.8,29.6-24,46.5-33.4,8.5-4.7,17.2-8.9,26.2-12.7,9-3.7,18.3-7,27.6-9.9l56.1-17.4L1482.9,1.4Z"/>
              <path class="cls-4" d="M1482.9,1.4l-444,148.9-55.5,18.6c-18.5,6.1-36.3,13.9-52.9,23.6-16.5,9.7-31.8,21.1-45.1,34.2-13.3,13.1-24.7,27.7-33.3,43.7-8.6,16-14.3,33.2-16.6,50.9l-7.5,53.1-15,106.1-15,106.1-7.5,53.1-3.7,26.6-1.9,13.3c-.1,1.1-.3,2.3-.5,3.3l-.6,3.3c-.4,2.2-1,4.4-1.5,6.6-4.3,17.5-12,34.3-22.3,49.7-10.3,15.4-23.1,29.3-37.6,41.5-14.6,12.2-30.9,22.7-48.2,31.4-8.7,4.3-17.6,8.2-26.8,11.7l-6.9,2.5-7,2.3-13.9,4.7-443.9,149.2-1.4-3.4,444.2-148.3,13.9-4.6,6.9-2.3,6.8-2.4c9.1-3.3,17.9-7.2,26.5-11.5,17.2-8.5,33.3-18.8,47.7-30.9,14.4-12,27.1-25.8,37.2-40.9,10.2-15.1,17.8-31.7,22.1-49,.5-2.2,1-4.3,1.5-6.5l.6-3.3c.2-1.1.4-2.2.5-3.3l1.9-13.3,3.8-26.6,7.6-53.1,15.2-106.1,15.2-106.1,7.6-53.1c2.4-17.8,8.2-35.2,16.9-51.2,8.7-16.1,20.2-30.9,33.6-44,13.4-13.1,28.8-24.6,45.5-34.3,16.6-9.7,34.6-17.5,53.2-23.6l55.5-18.5L1482.9,1.4Z"/>
              <path class="cls-4" d="M1482.9,1.4l-439,157.4-54.9,19.7c-18.3,6.4-35.9,14.6-52.1,24.6-16.2,9.9-31.1,21.8-44,35.1-12.9,13.4-23.8,28.3-31.8,44.5-8,16.2-13.1,33.5-14.8,51.2l-5.7,53.1-11.4,106.2-11.4,106.2-5.7,53.1-2.8,26.6-1.4,13.3c-.5,4.4-1.2,8.9-2.1,13.3-3.6,17.6-10.8,34.6-20.5,50.2-9.7,15.6-22.1,29.8-36.2,42.3-14.2,12.5-30.1,23.3-47.2,32.4-8.5,4.5-17.4,8.6-26.4,12.2l-6.8,2.6-6.9,2.4-13.7,4.9-438.8,157.5-1.5-3.3,439.2-156.7,13.7-4.9,6.9-2.4,6.8-2.6c9-3.5,17.7-7.5,26.2-12,16.9-8.9,32.7-19.5,46.7-31.8s26.2-26.4,35.8-41.8c9.6-15.4,16.7-32.1,20.3-49.4.9-4.3,1.6-8.7,2.1-13.1l1.4-13.3,2.9-26.6,5.8-53.1,11.6-106.2,11.6-106.2,5.8-53.1c1.7-17.8,6.9-35.2,15-51.6,8.1-16.3,19.1-31.4,32.1-44.7,13-13.5,28-25.2,44.3-35.2s34-18.2,52.4-24.6l54.9-19.5L1482.9,1.4Z"/>
              <path class="cls-4" d="M1482.9,1.4l-433.7,165.6-54.2,20.7c-18.1,6.8-35.4,15.3-51.3,25.7-15.9,10.3-30.4,22.4-42.8,36.1-12.4,13.6-22.8,28.8-30.2,45.2-7.4,16.4-11.9,33.8-12.9,51.4l-3.9,53.1-7.8,106.2-7.8,106.2-3.9,53.1-1.9,26.6-1,13.3c-.3,4.4-.9,8.9-1.7,13.3-3,17.6-9.5,34.8-18.6,50.6-9.2,15.8-21,30.4-34.8,43.1-13.7,12.8-29.3,24-46.1,33.3-8.4,4.7-17.1,8.9-26,12.7l-6.7,2.8-6.8,2.5-13.6,5.2-433.6,165.8-1.6-3.3,434-165,13.6-5.2,6.8-2.5,6.7-2.7c8.8-3.7,17.5-7.9,25.8-12.5,16.6-9.2,32.1-20.2,45.7-32.8,13.6-12.7,25.3-26.9,34.4-42.5s15.5-32.4,18.5-49.9c.7-4.3,1.3-8.7,1.7-13.1l1-13.3,2-26.6,4-53.1,8-106.1,8-106.1,4-53.1c1.1-17.8,5.6-35.3,13.1-51.8,7.5-16.4,18-31.8,30.5-45.5,12.5-13.7,27.2-25.8,43.1-36.2,16-10.4,33.4-18.9,51.6-25.7l54.3-20.6L1482.9,1.4Z"/>
              <path class="cls-4" d="M1482.9,1.4l-375.8-157-93.9-39.2-11.7-4.9c-1.9-.8-3.9-1.5-5.9-2.3l-3-1.2-3-1.1c-4-1.4-8-2.8-12.1-4.1l-6.1-1.8c-2-.6-4.1-1.1-6.2-1.7-16.5-4.4-33.5-7.4-50.6-9-34.2-3.3-69.1-1.4-102.5,5.9-8.4,1.8-16.6,4-24.8,6.5-8.1,2.5-16.1,5.4-24,8.6l-5.9,2.4-5.8,2.6-11.6,5.2-23.2,10.3L345.6-14.3C314.7,0,280.8,8.9,246.3,12.3c-34.5,3.3-69.6,1.4-103.4-5.9-16.9-3.6-33.4-8.8-49.2-15.2l-47-19.6-94-39.2,1.7-3.3L48.4-31.5l46.9,19.7c15.6,6.3,31.9,11.4,48.5,15.1,33.3,7.3,68.1,9.3,102.2,6.1,34.1-3.3,67.6-11.9,98.2-26l371.8-164.5,23.2-10.3,11.6-5.2,5.8-2.6,5.9-2.4c7.9-3.2,16-6.1,24.2-8.6,8.2-2.5,16.5-4.6,24.9-6.5,33.7-7.2,68.7-9.1,103.1-5.7,17.2,1.7,34.2,4.8,50.8,9.2,2.1.5,4.2,1.1,6.2,1.7l6.2,1.8c4.1,1.4,8.1,2.6,12.1,4.2l3,1.1,3,1.2c2,.8,4,1.5,5.9,2.4l11.7,5,93.8,39.5L1482.9,1.4Z"/>
              <path class="cls-4" d="M1482.9,1.4l-379.2-149.2-94.8-37.3c-7.9-3.1-15.7-6.3-23.8-9.1-8-2.8-16.2-5.2-24.5-7.3-8.3-2.2-16.7-3.8-25.1-5.2-4.2-.7-8.5-1.3-12.7-1.9-4.3-.5-8.5-1-12.8-1.4-34.2-3-69-.7-102.3,7-4.2.9-8.3,2-12.4,3.1l-6.1,1.7c-2.1.5-4.1,1.3-6.1,1.9-8.1,2.6-16.1,5.5-23.8,8.8-7.8,3.3-15.3,7.1-23,10.6l-22.9,10.8L346.6,6.6c-30.4,15-64,24.7-98.3,28.7-34.3,4.2-69.5,3.1-103.4-3.5-4.2-.8-8.4-1.7-12.7-2.7l-6.3-1.5c-2.1-.5-4.2-1.2-6.2-1.7-8.3-2.3-16.5-5-24.5-8L47.8-.7-47-38l1.6-3.3L49.4-3.8l47.3,18.7c7.9,3.1,16,5.6,24.1,8,2,.5,4.1,1.2,6.1,1.7l6.2,1.5c4.2.9,8.3,1.9,12.5,2.7,33.5,6.6,68.2,7.7,102.2,3.7,34-4.1,67.2-13.5,97.4-28.3l367.2-171.9,23-10.8c7.7-3.5,15.2-7.3,23.1-10.6,7.8-3.3,15.9-6.1,24-8.8,2-.6,4.1-1.4,6.1-1.9l6.2-1.7c4.2-1.1,8.3-2.2,12.5-3.1,33.5-7.6,68.5-9.9,102.9-6.8,4.3.4,8.6.9,12.9,1.4,4.3.6,8.5,1.2,12.8,1.9,8.5,1.4,16.9,3.2,25.2,5.3,8.3,2.2,16.5,4.5,24.6,7.4,8.1,2.8,15.9,6.1,23.8,9.1l94.7,37.5L1482.9,1.4Z"/>
              <path class="cls-4" d="M1482.9,1.4l-382.5-141.4-95.6-35.3-12-4.4-6-2.2-6-2.1c-8.1-2.6-16.3-5-24.6-7-8.3-2-16.7-3.6-25.2-5s-17-2.3-25.6-2.9c-34.2-2.5-69,0-102.1,8.1-8.3,2-16.5,4.4-24.5,7.1-8.1,2.6-16,5.7-23.7,9.1l-2.9,1.3-2.9,1.4c-1.9.9-3.8,1.7-5.7,2.7l-11.3,5.6-22.6,11.3L347.7,27.7c-29.9,15.7-63.3,26-97.5,30.8-34.2,4.8-69.3,4.4-103.4-1.4-4.3-.7-8.5-1.5-12.7-2.4-4.2-1-8.4-1.9-12.6-3-8.3-2.2-16.6-4.6-24.6-7.5l-47.9-17.6L-46.6-8.7l1.5-3.3L50.5,23.5l47.7,17.7c8,2.8,16.1,5.2,24.3,7.4,4.1,1.1,8.3,2,12.4,3,4.2.8,8.3,1.7,12.6,2.4,33.6,5.9,68.4,6.3,102.2,1.6,33.8-4.7,66.8-14.8,96.5-30.3l362.5-179.4,22.7-11.2,11.3-5.6c1.9-1,3.8-1.8,5.7-2.7l2.9-1.4,2.9-1.3c7.8-3.3,15.8-6.4,23.9-9.1,8.1-2.6,16.3-5.1,24.7-7,33.4-8,68.3-10.6,102.7-8,8.6.7,17.2,1.6,25.7,3,8.5,1.4,16.9,3,25.3,5.1,8.3,2.1,16.6,4.4,24.7,7.1l6.1,2.1,6,2.3,11.9,4.4,95.5,35.6L1482.9,1.4Z"/>
              <path class="cls-4" d="M1482.9,1.4l-386.3-133.9-96.6-33.4-12.1-4.2-6-2.1c-2-.7-4.1-1.3-6.1-2-8.1-2.5-16.4-4.8-24.7-6.6-8.4-1.8-16.8-3.3-25.3-4.6-8.5-1.2-17.1-2-25.6-2.5-34.3-2-69,1.2-102.1,9.8-16.5,4.3-32.6,9.9-47.9,17-3.9,1.7-7.6,3.6-11.4,5.5l-11.1,5.9-22.4,11.7L347.5,49.8c-29.7,16.2-62.9,26.9-97.1,32.3-34.2,5.2-69.3,5.3-103.5,0-17.1-2.7-33.9-6.8-50.2-12.2l-48.3-16.7L-48.1,19.5l1.4-3.3L49.9,49.8l48.2,16.8c16.1,5.3,32.6,9.5,49.5,12.2,33.7,5.4,68.5,5.5,102.4.4,33.8-5.2,66.6-15.7,96.1-31.7l358.2-187.2,22.4-11.7,11.2-5.9c3.8-1.9,7.6-3.8,11.4-5.5,15.4-7.1,31.7-12.7,48.3-17,33.3-8.6,68.2-11.7,102.7-9.6,8.6.5,17.2,1.4,25.8,2.6,8.5,1.3,17,2.8,25.4,4.7s16.7,4.2,24.8,6.7c2,.6,4.1,1.3,6.1,2l6,2.1,12.1,4.2,96.5,33.7L1482.9,1.4Z"/>
              <path class="cls-4" d="M1482.9,1.4l-389.4-126.2-97.3-31.5-12.2-4c-4.1-1.3-8.1-2.7-12.2-3.9-8.2-2.4-16.4-4.5-24.8-6.2-16.7-3.5-33.8-5.6-51-6.5-34.3-1.6-69,2.1-101.9,11-8.2,2.3-16.3,4.9-24.3,7.8-7.9,3-15.7,6.2-23.3,9.9l-5.7,2.8-5.6,2.9c-3.7,2-7.3,4.1-11,6.1l-22,12.2L349.6,71.1c-29.2,16.8-62.2,28.3-96.2,34.2-34,5.9-69.2,6.6-103.5,1.8-8.6-1.3-17.1-2.7-25.5-4.6-8.4-1.9-16.7-4.1-24.9-6.7l-48.7-15.8-97.3-31.5,1.4-3.4,97.3,31.7,48.6,15.9c8.1,2.5,16.3,4.7,24.6,6.6,8.3,1.9,16.7,3.3,25.2,4.6,33.8,4.8,68.6,4.2,102.3-1.5,33.7-5.8,66.2-17,95.2-33.6l353.2-194.6,22.1-12.2c3.7-2,7.3-4.1,11.1-6.1l5.6-2.9,5.7-2.8c7.7-3.6,15.5-6.9,23.5-9.9,8-2.9,16.2-5.5,24.5-7.8,33.1-8.9,68-12.6,102.5-10.8,17.2.9,34.4,3.1,51.2,6.6,8.4,1.7,16.7,3.9,24.9,6.3,4.1,1.2,8.1,2.6,12.2,3.9l12.2,4,97.3,31.7L1482.9,1.4Z"/>
              <path class="cls-4" d="M1482.9,1.4l-392.7-118.6-98.2-29.6-12.3-3.7-6.1-1.9c-2-.6-4.1-1.3-6.1-1.8-8.2-2.3-16.6-4.2-25-5.9-8.4-1.6-16.9-2.9-25.5-3.9-8.5-.9-17.1-1.6-25.7-1.8-34.4-1.1-69,3.2-101.7,12.7-8.2,2.4-16.2,5.2-24.1,8.2s-15.6,6.5-23.1,10.3l-5.6,2.9-5.5,3c-3.7,2.1-7.2,4.2-10.9,6.3l-21.7,12.7L350.7,93.4c-29,17.3-61.8,29.2-95.7,35.5-34,6.3-69.2,7.3-103.5,3-8.6-1.2-17.1-2.6-25.6-4.3-8.5-1.8-16.8-4-25-6.4l-49.1-14.8-98.2-29.6,1.3-3.4,98.1,29.8,49,14.9c8.1,2.4,16.4,4.6,24.7,6.3,8.3,1.7,16.8,3.2,25.3,4.3,34,4.4,68.8,3.4,102.4-2.7,33.6-6.1,66.1-17.8,94.8-34.9l348.4-202.3,21.8-12.7c3.6-2.1,7.2-4.2,10.9-6.3l5.6-3.1,5.7-2.9c7.6-3.8,15.4-7.1,23.3-10.3,8-3.1,16.1-5.8,24.3-8.2,33-9.6,67.8-13.7,102.3-12.6,8.6.3,17.3.9,25.8,1.9,8.6.9,17.1,2.3,25.6,3.9s16.8,3.6,25.1,6c2.1.5,4.1,1.2,6.2,1.8l6.1,1.9,12.3,3.7,98.1,29.8L1482.9,1.4Z"/>
              <path class="cls-4" d="M1482.9,1.4l-396.1-111-99-27.7-12.4-3.4c-4.1-1.2-8.2-2.3-12.4-3.4-8.3-2.2-16.7-4-25.1-5.4-4.2-.8-8.5-1.4-12.7-2-4.3-.5-8.5-1.1-12.8-1.4-8.6-.8-17.2-1.3-25.8-1.4-34.5-.5-69,4.3-101.6,14.5-8.1,2.5-16.2,5.4-24,8.7-7.8,3.3-15.5,6.9-22.9,10.8l-5.5,3-5.4,3.2c-3.6,2.2-7.1,4.4-10.7,6.6l-21.4,13.2L352.1,116.1c-28.7,17.7-61.5,29.8-95.4,36.5-34,6.7-69.2,8-103.6,3.9-2.2-.3-4.3-.5-6.5-.8l-6.4-1c-4.3-.7-8.5-1.4-12.8-2.4-8.5-1.7-16.9-3.7-25.2-6.1l-49.5-13.8-99-27.7,1.2-3.4,99,27.9,49.5,13.9c8.2,2.4,16.5,4.4,24.8,6.1,4.2.9,8.4,1.6,12.6,2.4l6.4,1c2.1.4,4.3.5,6.4.8,34,4.2,68.9,2.9,102.5-3.6,33.6-6.5,66-18.4,94.4-35.9l343.5-210,21.5-13.1c3.6-2.2,7.1-4.4,10.8-6.6l5.5-3.2,5.6-3c7.5-3.9,15.2-7.5,23.1-10.8s16-6.1,24.2-8.7c32.8-10.2,67.6-14.9,102.2-14.4,8.7,0,17.3.6,25.9,1.4,4.3.4,8.6.9,12.9,1.4,4.3.6,8.6,1.3,12.8,2,8.5,1.5,16.9,3.3,25.2,5.5,4.2,1.1,8.3,2.3,12.4,3.4l12.4,3.5,98.9,27.9L1482.9,1.4Z"/>
              <path class="cls-4" d="M1482.9,1.4l-399.3-103.4-99.8-25.8c-8.3-2.2-16.6-4.3-24.9-6.4-8.3-2.1-16.8-3.6-25.3-5-2.1-.3-4.2-.7-6.4-.9l-6.4-.8c-4.3-.5-8.6-.9-12.9-1.2-4.3-.4-8.6-.5-12.9-.7-4.3,0-8.6-.3-12.9-.2-34.5,0-69.1,5.5-101.4,16.4-8.1,2.7-16,5.8-23.8,9.1-7.7,3.4-15.3,7.1-22.7,11.2l-5.5,3.2-5.4,3.3c-3.5,2.3-7,4.5-10.5,6.8l-21.1,13.6-337.9,218.4c-28.6,18-61.2,30.5-95.2,37.4-33.9,7-69.2,8.6-103.8,4.8-8.6-1-17.2-2.3-25.7-3.9-8.5-1.6-16.9-3.7-25.2-6l-49.9-12.9-99.8-25.8,1.1-3.4,99.8,26,49.9,13c8.3,2.3,16.6,4.2,25,6,8.4,1.6,16.9,2.9,25.4,3.9,34.1,3.9,69,2.4,102.6-4.5,33.6-6.8,65.9-19.1,94.2-36.8l338.4-217.7,21.2-13.6c3.5-2.3,7-4.6,10.6-6.8l5.4-3.3,5.5-3.2c7.4-4.1,15.1-7.9,22.9-11.3,7.8-3.4,15.8-6.4,24-9.1,32.6-10.8,67.3-16.2,102-16.3,4.3,0,8.7,0,13,.2,4.3.2,8.7.4,13,.8,4.3.3,8.6.8,12.9,1.3l6.4.8c2.1.3,4.3.6,6.4,1,8.5,1.4,17,3,25.4,5.1,8.4,2.1,16.6,4.3,25,6.5l99.8,26L1482.9,1.4Z"/>
              <path class="cls-4" d="M1482.9,1.4l-403.1-95.9-100.8-24-12.6-3c-4.2-1-8.4-2.1-12.6-3-8.4-1.9-16.9-3.3-25.5-4.5-4.3-.6-8.6-1.1-12.9-1.5-4.3-.4-8.6-.7-13-.9-8.6-.5-17.3-.6-26-.4-34.6.8-69.1,7-101.3,18.6-8,2.9-15.9,6.2-23.6,9.8-7.7,3.6-15.1,7.6-22.4,11.8-3.6,2.2-7.1,4.4-10.7,6.7l-10.4,7-20.8,14.2-166.5,113.2-83.3,56.7-41.6,28.3-20.8,14.2-10.4,7c-3.5,2.4-6.9,4.8-10.5,7-28.6,18.3-61.4,30.6-95.4,37.7-34,7.1-69.5,8.7-104.1,4.8-8.7-1-17.3-2.3-25.8-4-2.1-.4-4.3-.9-6.4-1.4-2.1-.5-4.3-.9-6.4-1.4l-12.6-3-50.4-11.9-100.8-24,1-3.5,100.7,24.1,50.4,12.1,12.6,3.1c2.1.5,4.2,1,6.3,1.4,2.1.5,4.2.9,6.3,1.4,8.4,1.7,17,3,25.5,4,34.3,3.9,69.3,2.4,103-4.5,33.7-6.9,66.1-19.2,94.4-37.1,3.6-2.2,7-4.6,10.4-7l10.4-7.1,20.9-14.1,41.7-28.2,83.4-56.5,166.8-112.9,20.9-14.1,10.4-7c3.5-2.3,7.1-4.6,10.8-6.7,7.3-4.3,14.8-8.3,22.6-11.9s15.7-6.9,23.8-9.8c32.4-11.7,67.1-17.8,101.9-18.5,8.7-.3,17.4,0,26.1.5,4.3.2,8.7.6,13,1,4.3.5,8.6.9,12.9,1.5,8.6,1.2,17.2,2.7,25.6,4.6,4.2.9,8.4,2,12.6,3l12.6,3,100.7,24.2L1482.9,1.4Z"/>
              <path class="cls-4" d="M1482.9,1.4l-406.1-88.3-101.5-22.1-12.7-2.8c-4.2-.9-8.4-1.9-12.7-2.7-8.5-1.7-17-3-25.6-4.1-4.3-.5-8.6-.9-12.9-1.3-4.3-.3-8.7-.5-13-.7-8.7-.3-17.4-.4-26,0-34.7,1.5-69.1,8.3-101,20.7-8,3.1-15.8,6.5-23.4,10.3-7.6,3.8-14.9,8-22.1,12.4-3.6,2.2-7,4.6-10.5,7l-10.2,7.3-20.5,14.6-163.8,117.1-81.9,58.6-40.9,29.3-20.5,14.6-10.2,7.3c-3.4,2.5-6.9,4.9-10.5,7.1-28.5,18.3-61.3,31.2-95.3,38.4-34.1,7.2-69.5,9.1-104.3,5.3-8.7-.9-17.3-2.3-25.9-3.9-2.1-.5-4.3-.8-6.4-1.3l-6.4-1.4-12.7-2.7-50.8-11-101.5-22.1.9-3.5,101.5,22.2,50.7,11.1,12.7,2.8,6.3,1.4c2.1.5,4.2.8,6.3,1.3,8.5,1.6,17,3,25.6,3.9,34.3,3.8,69.4,2.1,103.1-5.1,33.7-7,66.1-19.7,94.3-37.8,7-4.5,13.7-9.5,20.6-14.4l20.5-14.6,41-29.2,82-58.4,164.1-116.8,20.5-14.6,10.2-7.3c3.5-2.3,7-4.8,10.6-7,7.2-4.5,14.6-8.7,22.3-12.5,7.7-3.8,15.5-7.2,23.5-10.3,32.1-12.4,66.8-19.2,101.6-20.6,8.7-.4,17.4-.4,26.2,0,4.4,0,8.7.5,13.1.7,4.3.4,8.7.7,13,1.3,8.6,1,17.3,2.3,25.8,4.1,4.3.8,8.5,1.8,12.7,2.7l12.7,2.8,101.5,22.3L1482.9,1.4Z"/>
              <path class="cls-4" d="M1482.9,1.4l-409.4-80.7-102.4-20.2-12.8-2.5-6.4-1.3c-2.1-.5-4.3-.8-6.4-1.2-8.5-1.5-17.2-2.7-25.8-3.5-8.7-.8-17.4-1.4-26.1-1.4-8.7,0-17.4,0-26.1.6-8.7.6-17.3,1.4-25.9,2.7-8.6,1.3-17.1,2.8-25.6,4.7-8.4,2-16.8,4.2-25,6.8-8.2,2.6-16.3,5.6-24.2,8.9-7.9,3.3-15.6,7-23.1,10.9-1.9,1-3.8,2-5.6,3.1l-5.5,3.2-5.4,3.3c-1.8,1.1-3.5,2.3-5.3,3.4-7,4.7-13.5,9.9-20.3,14.9l-20.1,15.2-161.1,121.1-80.5,60.6-40.3,30.3-20.1,15.2c-3.4,2.5-6.7,5.1-10.1,7.6l-5.2,3.7-5.3,3.5c-28.6,18.5-61.5,31.3-95.6,38.5-34.2,7.2-69.8,9-104.7,5.2-8.7-1-17.4-2.3-26-3.9l-25.6-5.1-51.2-10-102.4-20.2.9-3.5,102.3,20.3,51.2,10.2,25.5,5.2c8.5,1.6,17.1,2.9,25.7,3.9,34.5,3.8,69.7,2.1,103.5-5,33.8-7.1,66.3-19.7,94.6-37.9l5.3-3.4,5.1-3.6c3.4-2.4,6.7-5,10.1-7.5l20.2-15.1,40.3-30.2,80.7-60.4,161.4-120.7,20.2-15.1c6.7-5,13.3-10.2,20.4-14.9,1.8-1.2,3.5-2.3,5.3-3.5l5.4-3.3,5.5-3.2c1.8-1.1,3.8-2.1,5.6-3.1,7.6-4,15.3-7.7,23.3-11,8-3.3,16.1-6.2,24.4-8.9s16.7-4.8,25.2-6.8c8.5-1.9,17.1-3.4,25.7-4.7,8.6-1.3,17.4-2.1,26.1-2.6,8.7-.6,17.5-.7,26.2-.5,8.8,0,17.5.6,26.2,1.5,8.7.8,17.4,2,25.9,3.5,2.2.4,4.3.8,6.4,1.2l6.4,1.3,12.8,2.5,102.3,20.4L1482.9,1.4Z"/>
              <path class="cls-4" d="M1482.9,1.4l-413.1-73.2-103.3-18.3-12.9-2.3c-4.3-.7-8.6-1.6-12.9-2.2-8.6-1.4-17.3-2.3-26-2.9-8.7-.6-17.5-.9-26.2-.8s-17.5.5-26.2,1.3c-34.8,3.1-69.1,11.7-100.4,25.8-3.9,1.7-7.7,3.6-11.6,5.6l-5.7,3c-1.9,1-3.7,2.1-5.6,3.2-7.4,4.2-14.5,8.9-21.3,13.8l-5,3.8c-1.7,1.3-3.3,2.6-4.9,3.9l-9.9,7.9-19.8,15.6-158.4,125.3-79.2,62.6-39.6,31.3-19.8,15.6c-6.6,5.3-13.5,10.3-20.7,14.8-28.8,18.4-62,31.1-96.3,38.2-34.4,7.1-70.2,8.7-105.2,4.6-8.7-1-17.4-2.4-26-4.1l-25.8-4.5-51.6-9.1-103.3-18.3.8-3.5,103.2,18.4,51.6,9.2,25.8,4.6c8.6,1.6,17.1,3.1,25.8,4.1,34.6,4.1,70,2.6,104-4.3,34-7,66.8-19.3,95.3-37.5,7.1-4.5,14-9.4,20.5-14.6l19.8-15.6,39.7-31.3,79.4-62.5L676.8-15.9l19.8-15.6,9.9-7.8c1.7-1.3,3.3-2.6,5-3.9l5.1-3.8c6.9-5,14.1-9.6,21.5-13.8,1.9-1.1,3.7-2.2,5.6-3.2l5.7-3c3.9-1.9,7.7-3.8,11.7-5.6,31.5-14.2,66-22.7,101-25.8,8.8-.7,17.5-1.1,26.3-1.2,8.8,0,17.6.3,26.3.9,8.8.6,17.5,1.6,26.2,3,4.3.6,8.6,1.4,12.9,2.3l12.9,2.3,103.2,18.5L1482.9,1.4Z"/>
              <path class="cls-4" d="M1482.9,1.4l-416.3-65.5-104.1-16.4-13-2.1-6.5-1c-2.2-.4-4.3-.6-6.5-.9-8.7-1.1-17.4-1.9-26.2-2.3-8.8-.4-17.6-.5-26.3-.3-8.8.3-17.5.9-26.3,1.9-34.8,4-69,13.4-99.9,28.5-7.7,3.8-15.2,7.9-22.5,12.4-7.2,4.5-14.2,9.3-20.8,14.6-3.4,2.5-6.5,5.3-9.7,8l-9.7,8-19.4,16.2-155.5,129.3-77.7,64.6-38.9,32.4-19.5,16.2c-6.6,5.3-13.6,10.3-20.9,14.8-7.3,4.6-14.8,8.9-22.5,12.7-7.8,3.9-15.7,7.4-23.8,10.6-8.1,3.3-16.4,6-24.9,8.4-2.1.6-4.2,1.3-6.3,1.8l-6.4,1.6c-2.1.5-4.3,1-6.4,1.5s-4.3,1-6.5,1.4c-34.5,7-70.5,8.5-105.6,4.2-8.8-1.1-17.5-2.6-26.1-3.9l-26-4.1-52-8.1-104.1-16.4.7-3.5,104,16.5,52,8.3,26,4.2c8.7,1.4,17.3,2.9,26,4,34.7,4.2,70.2,2.9,104.4-4,2.1-.5,4.3-.8,6.4-1.4,2.1-.5,4.2-1,6.4-1.4l6.3-1.6c2.1-.5,4.2-1.2,6.3-1.7,8.3-2.4,16.6-5.2,24.6-8.3,8-3.2,15.9-6.6,23.6-10.4,7.6-3.8,15.1-8,22.3-12.6,7.2-4.5,14.1-9.4,20.6-14.6l19.5-16.1,38.9-32.3,77.9-64.4L674.4,1.1l19.5-16.1,9.7-8c3.3-2.7,6.4-5.4,9.8-8,6.7-5.2,13.7-10,21-14.6,7.3-4.5,14.9-8.6,22.7-12.4,31.1-15.1,65.5-24.5,100.5-28.4,8.8-.9,17.6-1.5,26.4-1.8,8.8-.3,17.6,0,26.5.3,8.8.5,17.6,1.3,26.3,2.4,2.2.3,4.4.5,6.5.9l6.5,1.1,13,2.1,104,16.6L1482.9,1.4Z"/>
              <path class="cls-4" d="M1482.9,1.4l-419.3-57.8-104.8-14.5-13.1-1.8-6.5-.9-6.6-.7c-8.8-.9-17.6-1.4-26.4-1.7-17.6-.4-35.3.5-52.7,2.9-34.8,4.8-68.8,15.1-99.3,31.1-15.2,8-29.5,17.4-42.4,28.4l-38.1,33.4-152.4,133.3-76.2,66.7-38.1,33.4-9.5,8.3c-1.6,1.4-3.2,2.8-4.8,4.2l-4.9,4.1c-6.7,5.3-13.7,10.2-21,14.8-29.2,18.4-62.7,30.9-97.4,37.8-34.7,6.9-70.8,8.1-106,3.7l-209.7-28.8.6-3.6,209.6,29.3c34.8,4.4,70.5,3.3,104.8-3.4,34.3-6.8,67.5-19,96.4-37.1,7.2-4.5,14.2-9.4,20.8-14.6l4.9-4c1.6-1.4,3.2-2.7,4.8-4.2l9.5-8.3,38.2-33.3,76.4-66.5L672.3,18.3l38.2-33.3c13-10.9,27.5-20.3,42.8-28.5,30.7-16.1,64.9-26.4,100-31.1,17.5-2.3,35.3-3.3,53-2.8,8.9.3,17.7.9,26.5,1.8l6.6.7,6.6.9,13.1,1.8,104.8,14.6L1482.9,1.4Z"/>
              <path class="cls-4" d="M1482.9,1.4l-422.8-50.1-105.7-12.6c-8.8-1-17.6-2.2-26.4-2.9-8.8-.7-17.7-1-26.6-1.1-8.9,0-17.7.4-26.6,1.1-8.8.7-17.6,1.7-26.3,3.3-17.4,2.8-34.6,7.1-51.1,12.8-8.3,2.9-16.4,6.1-24.3,9.6-7.9,3.5-15.6,7.5-23.1,11.8-15,8.5-28.9,18.6-41.3,30l-37.3,34.3-149.4,137.6-74.7,68.8-37.3,34.3-4.7,4.3-2.3,2.2-2.4,2.1c-3.2,2.8-6.5,5.5-9.9,8.1-6.8,5.2-13.9,10.1-21.3,14.6s-15.1,8.7-22.9,12.6c-7.9,3.8-16,7.2-24.3,10.3-8.2,3.1-16.7,5.8-25.2,8.1s-17.2,4.3-26,6c-35,6.6-71.3,7.4-106.6,2.5l-211.4-24.9.5-3.6,211.4,25.4c35,4.9,70.8,4.2,105.4-2.3,8.7-1.6,17.2-3.5,25.7-5.9,8.4-2.4,16.8-5,25-8,8.2-3.1,16.2-6.4,24-10.1,7.8-3.8,15.4-7.9,22.7-12.3,7.3-4.4,14.4-9.2,21.1-14.5,3.3-2.6,6.7-5.2,9.8-8l2.4-2.1,2.3-2.2,4.7-4.2,37.4-34.3,74.9-68.6,149.7-137.2,37.4-34.3c12.6-11.5,26.6-21.6,41.7-30.2,7.5-4.2,15.3-8.2,23.3-11.8,8-3.5,16.2-6.8,24.5-9.6,16.7-5.7,33.9-9.9,51.5-12.8,8.8-1.4,17.6-2.5,26.5-3.2,8.9-.7,17.8-1.1,26.7-1,8.9,0,17.8.4,26.7,1.1,8.9.7,17.7,2,26.5,3l105.7,12.7L1482.9,1.4Z"/>
              <path class="cls-4" d="M1482.9,1.4l-425.9-42.3-106.5-10.6-13.3-1.4c-2.2-.3-4.4-.4-6.7-.5-2.2-.2-4.4-.4-6.7-.5-8.9-.5-17.8-.6-26.7-.4-17.8.5-35.6,2.3-53,5.7-34.8,6.7-68.4,19.1-97.7,37.3-14.6,9.1-28.2,19.6-40.1,31.6l-36.5,35.4-146.1,141.6-73,70.8-36.5,35.4c-6.1,5.9-12.7,11.5-19.6,16.7-1.7,1.3-3.4,2.6-5.2,3.9l-5.3,3.7-5.5,3.5c-1.8,1.2-3.7,2.3-5.6,3.4-7.5,4.5-15.2,8.6-23.2,12.4-8,3.7-16.2,7-24.5,10.1-8.3,3.1-16.8,5.7-25.4,8-4.3,1.2-8.6,2.2-13,3.2-4.4.9-8.7,1.9-13.1,2.6-17.6,3.2-35.5,4.8-53.5,5.1-9,0-18-.2-26.9-.7l-6.7-.5c-2.2-.2-4.5-.5-6.7-.6l-13.3-1.4-212.9-21.1.4-3.6,212.9,21.5,13.3,1.4c2.2.2,4.4.5,6.6.7l6.6.5c8.8.6,17.7.9,26.6.8,17.7-.3,35.5-1.8,52.9-4.9,4.4-.7,8.7-1.6,13-2.5,4.3-1,8.6-2,12.9-3.2,8.5-2.3,16.9-4.8,25.2-7.9,8.2-3,16.3-6.2,24.2-9.9,7.9-3.7,15.5-7.8,22.9-12.2,1.8-1.1,3.7-2.2,5.5-3.3l5.4-3.5,5.3-3.6c1.8-1.3,3.4-2.5,5.2-3.8,6.8-5.2,13.3-10.7,19.4-16.4l36.6-35.3,73.2-70.7,146.4-141.4,36.6-35.3c12-12,25.8-22.6,40.5-31.8,29.6-18.3,63.4-30.6,98.4-37.3,17.5-3.3,35.4-5.2,53.3-5.6,8.9-.2,17.9,0,26.8.5,2.2,0,4.5.3,6.7.5,2.2.2,4.5.4,6.7.5l13.3,1.4,106.4,10.8L1482.9,1.4Z"/>
              <path class="cls-4" d="M1482.9,1.4l-429.3-34.4-107.3-8.6-13.4-1.1-6.7-.4c-2.2,0-4.5-.2-6.7-.3-9-.3-17.9-.2-26.9.4-8.9.5-17.9,1.4-26.7,2.5-8.9,1.2-17.6,2.8-26.3,4.7-8.7,1.9-17.3,4.2-25.7,7-8.5,2.6-16.8,5.7-24.9,9-8.1,3.4-16.1,7.1-23.8,11.3-7.7,4.2-15.1,8.7-22.3,13.5-7.1,4.9-14,10-20.5,15.6-3.2,2.8-6.4,5.7-9.4,8.7-1.6,1.4-3,3-4.5,4.5l-4.4,4.5-35.7,36.5-142.8,145.9-71.4,72.9-17.8,18.3-8.9,9.1-4.5,4.6-4.6,4.4c-12.6,11.7-26.8,22-42,30.8-30.5,17.5-65,29.2-100.5,35-8.9,1.4-17.8,2.5-26.8,3.3-9,.7-18,1-27.1,1s-18.1-.5-27-1.2l-26.8-2.2-214.7-17,.4-3.6,214.6,17.4,26.8,2.2c8.9.7,17.8,1.2,26.7,1.3,8.9,0,17.9-.3,26.8-.9,8.9-.7,17.8-1.7,26.6-3.2,35.1-5.7,69.3-17.1,99.5-34.3,15-8.7,29.1-18.8,41.6-30.3l4.6-4.4,4.4-4.5,8.9-9.1,17.9-18.2,71.6-72.8,143.2-145.6,35.8-36.4,4.5-4.6c1.5-1.5,3-3.1,4.5-4.5,3.1-3,6.3-5.9,9.5-8.7,6.5-5.6,13.5-10.8,20.7-15.7,7.2-4.9,14.7-9.4,22.5-13.6,7.8-4.2,15.8-7.9,24-11.3,8.2-3.4,16.6-6.4,25.1-9,8.5-2.7,17.1-5,25.9-6.9,8.7-1.9,17.6-3.5,26.5-4.7,8.9-1.2,17.9-2,26.9-2.5,9-.5,18-.5,27-.3,2.2,0,4.5,0,6.7.3l6.7.4,13.4,1.1,107.3,8.9L1482.9,1.4Z"/>
              <path class="cls-4" d="M1482.9,1.4l-432.5-26.5-108.1-6.6c-35.9-2.9-72.4,0-107.1,8.9-8.7,2.3-17.2,4.8-25.6,7.7-8.4,3-16.6,6.2-24.7,9.9-16,7.4-31.3,16.2-45.2,26.6-6.9,5.2-13.6,10.7-19.8,16.5l-2.3,2.2c-.8.7-1.5,1.5-2.3,2.3-1.5,1.5-3,3-4.4,4.6l-8.7,9.4-34.8,37.5-139.3,150-69.6,75-17.4,18.8-4.4,4.7-2.2,2.4c-.7.8-1.5,1.5-2.3,2.3-3,3.1-6.1,6.1-9.4,8.9-12.9,11.7-27.4,21.7-42.8,30.4-7.7,4.3-15.7,8.2-23.9,11.7-8.2,3.5-16.5,6.8-25.1,9.6-8.5,2.8-17.2,5.2-26,7.3-8.8,2.1-17.7,3.7-26.6,5.1-9,1.4-18,2.3-27,2.9-2.3,0-4.5.3-6.8.4l-6.8.3c-4.5,0-9.1,0-13.6,0h-3.4l-3.4-.2c-2.3,0-4.5-.2-6.8-.4l-13.5-.8-27-1.6-216.2-13.2.3-3.6,216.2,13.6,27,1.7,13.5.9c2.2.2,4.5.3,6.7.4l3.4.2h3.4c4.5.2,9,0,13.5,0l6.7-.2c2.2,0,4.5-.3,6.7-.4,9-.5,17.9-1.4,26.8-2.8,8.9-1.4,17.7-3,26.4-5,8.7-2.1,17.3-4.4,25.7-7.2,8.5-2.7,16.7-5.9,24.8-9.4s16-7.3,23.7-11.6c15.3-8.5,29.6-18.4,42.4-29.8,3.2-2.9,6.3-5.8,9.3-8.9.7-.7,1.5-1.5,2.2-2.3l2.2-2.4,4.3-4.7,17.5-18.7,69.8-74.9,139.7-149.8,34.9-37.4,8.7-9.4c1.4-1.6,3-3.1,4.5-4.6.8-.7,1.5-1.5,2.3-2.3l2.4-2.3c6.3-5.9,13-11.5,20-16.6,14-10.4,29.4-19.3,45.6-26.7,8.1-3.7,16.4-7,24.8-9.9,8.4-3,17.1-5.5,25.8-7.7,34.9-8.9,71.5-11.7,107.6-8.7l108.1,6.9L1482.9,1.4Z"/>
            </g>
          </g>
        </g>
      </g>
    </g>
  </g>
</svg>