
<svg xmlns="http://www.w3.org/2000/svg" id="Calque_2" viewBox="0 0 407.9 26.3">
    <path class="cls-1" d="m390.1,25.7h17.8v-4.5h-12.4v-6h11.1v-4.5h-11.1v-5.8h12.3V.4h-17.7v25.3Zm-51.6.5c4,0,6.9-1.7,8.3-3.8v3.3h4.1v-13.8h-12.7v4.1h7.5c0,3.7-2.9,5.9-6.7,5.9s-7.4-3.3-7.4-8.8h0c0-5.4,2.8-8.7,7.4-8.7s5.4,1.3,6.3,3.9h5.5c-1.3-5.3-5.7-8.3-12-8.3s-12.9,5.3-12.9,13.1h0c0,8,5.2,13.2,12.7,13.2m-64.4-11.4l3.4-9.7h0l3.5,9.7h-7,.1Zm-9.1,10.8h5.5l2.2-6.3h9.9l2.2,6.3h5.8L281.2.5h-6.7l-9.5,25.2h.1Zm-51.8,0h16.6v-4.5h-11.2V.5h-5.4v25.2Zm-52.6-13.7v-7.2h4.5c3.2,0,4.7,1.2,4.7,3.6h0c0,2.4-1.5,3.6-4.7,3.6h-4.5Zm-5.4,13.7h5.4v-9.3h4.6c6.6,0,10.2-2.5,10.2-8h0c0-5.5-3.7-8-10.2-8h-10v25.3ZM61,14.9l3.4-9.7h0l3.5,9.7h-6.9Zm-9.2,10.8h5.5l2.2-6.3h9.9l2.2,6.3h5.8L67.9.5h-6.7l-9.5,25.2h.1ZM0,25.7h16.6v-4.5H5.4V.5H0v25.2h0Z"></path>
</svg>
