<?xml version="1.0" encoding="UTF-8"?>
<svg xmlns="http://www.w3.org/2000/svg" version="1.1" viewBox="0 0 286.4 77.6">
  <defs>
    <style>
      
    </style>
  </defs>
  <!-- Generator: Adobe Illustrator 28.7.1, SVG Export Plug-In . SVG Version: 1.2.0 Build 142)  -->
  <g>
    <g id="Calque_1">
      <path class="cls-2" d="M208.1,77.4h1.6c1.5,0,2.2-.9,2.2-2.4s-.8-2.2-2.2-2.2h-1.6v4.6ZM208.7,73.3h1c1.1,0,1.5.7,1.5,1.8,0,1.7-1.1,1.8-1.6,1.8h-1v-3.6h0ZM200.3,77.4h.6v-3.7h0l2.4,3.7h.7v-4.6h-.6v3.8h0l-2.4-3.8h-.6v4.6ZM192.3,77.4h.6l.5-1.4h2l.5,1.4h.7l-1.8-4.6h-.7l-1.8,4.6h0ZM194.5,73.4h0l.8,2.2h-1.6l.8-2.2h0ZM186.1,77.4h3.1v-.5h-2.4v-4.1h-.6v4.6h0ZM179.1,74.9v-1.6h1.5c.6,0,.8.3.8.8,0,.7-.5.8-1.1.8h-1.3ZM178.5,77.4h.6v-2h1.5c.6,0,.7.4.8.8,0,.4,0,.9.2,1.1h.7c-.3-.3-.2-.8-.3-1.3,0-.4-.2-.8-.7-.9h0c.6-.2.8-.6.8-1.2s-.5-1.2-1.4-1.2h-2.2v4.6h0ZM171.4,77.4h3.2v-.5h-2.6v-1.6h2.4v-.5h-2.4v-1.5h2.6v-.5h-3.2v4.6h0ZM163.9,77.4h3.7v-.5h-2.9l2.9-3.6v-.5h-3.4v.5h2.7l-2.9,3.6v.5h0ZM158.4,77.4h.6v-4.1h1.5v-.5h-3.7v.5h1.5v4.1h0ZM152.5,77.4h.6v-4.6h-.6v4.6ZM148.7,72.8h-.6l-.9,3.8h0l-1-3.8h-.7l-1,3.8h0l-.9-3.8h-.6l1.2,4.6h.6l1.1-3.9h0l1.1,3.9h.6l1.2-4.6h0ZM139.4,74.2c0-1-.8-1.5-1.7-1.5s-1.7.4-1.7,1.3c0,1.7,3,.9,3,2.1s-.6.8-1.2.8-1.4-.3-1.4-1.1h-.6c0,1.1.9,1.6,1.9,1.6s1.8-.4,1.8-1.4c0-1.8-3-1-3-2.2s.5-.8,1-.8,1.1.3,1.1.9h.6ZM122.5,77.4h3.2v-.5h-2.6v-1.6h2.4v-.5h-2.4v-1.5h2.6v-.5h-3.2s0,4.6,0,4.6ZM114.6,77.4h.6v-3.7h0l2.4,3.7h.7v-4.6h-.6v3.8h0l-2.4-3.8h-.7v4.6h0ZM106.8,77.4h.6v-3.7h0l2.4,3.7h.7v-4.6h-.6v3.8h0l-2.4-3.8h-.7s0,4.6,0,4.6ZM98.8,77.4h.6l.5-1.4h2l.5,1.4h.7l-1.8-4.6h-.7l-1.8,4.6h0ZM101,73.4h0l.8,2.2h-1.6l.8-2.2h0ZM95.3,74.2c0-1-.8-1.5-1.7-1.5s-1.7.4-1.7,1.3c0,1.7,3,.9,3,2.1s-.6.8-1.2.8-1.3-.3-1.3-1.1h-.6c0,1.1.9,1.6,1.9,1.6s1.8-.4,1.8-1.4c0-1.8-3-1-3-2.2s.5-.8,1-.8,1.1.3,1.2.9h.6,0ZM87.8,72.8h-.6v3c0,.8-.4,1.3-1.2,1.3s-1.3-.4-1.3-1.3v-3h-.6v3c0,1.2.7,1.8,1.9,1.8s1.8-.6,1.8-1.8v-3ZM76.2,77.4h.6l.5-1.4h2l.5,1.4h.7l-1.8-4.6h-.7l-1.8,4.6h0ZM78.3,73.4h0l.8,2.2h-1.6l.8-2.2h0ZM70,77.4h3.1v-.5h-2.4v-4.1h-.6v4.6h0Z"/>
      <path class="cls-1" d="M134.4,4.4c-1.6,1.4-3.3,3.2-4.9,5.5,1.7,1.8,7.4,8.3,9.1,17.4l.8-.8c-1-13.4-3.9-19.9-5-22.1"/>
      <path class="cls-1" d="M128.8,11c-1.3,2-2.4,4.4-3.3,7.1,2.6,1.1,8.4,4.1,11.4,10.9l.6-.6c-1.4-8.8-6.8-15.4-8.7-17.4"/>
      <path class="cls-1" d="M153.1,11c-1.9,2-7.3,8.6-8.7,17.4l.6.6c3-6.8,8.8-9.9,11.4-10.9-.9-2.7-2-5.1-3.3-7.1"/>
      <path class="cls-1" d="M141,0h0s-2.4,1-5.5,3.5c1.1,2,4,8.3,5.2,21.7l.3-.3.3.3c1.2-13.4,4.1-19.7,5.2-21.7-3-2.5-5.5-3.5-5.5-3.5"/>
      <path class="cls-1" d="M156.8,19.4c-2.5,1.1-8.1,4.1-10.7,10.6l.6.6c4.3-3.4,11.3-4.2,11.3-4.2-.2-2.6-.6-4.9-1.1-7"/>
      <path class="cls-1" d="M147.5,4.4c-1.1,2.2-3.9,8.7-5,22.1l.8.8c1.7-9.1,7.4-15.6,9.1-17.4-1.6-2.2-3.3-4-4.9-5.5"/>
      <rect class="cls-1" x="137.6" y="28.3" width="6.7" height="6.7" transform="translate(18.9 108.9) rotate(-45)"/>
      <path class="cls-1" d="M125.1,19.4c-.6,2.1-1,4.5-1.2,7,0,0,7,.8,11.3,4.2l.6-.6c-2.7-6.5-8.2-9.5-10.7-10.6"/>
      <path class="cls-2" d="M273.9,64.6h12.5v-.7h-9.7v-7h8.5v-.7h-8.5v-6.5h9.6v-.7h-12.4v15.6h0ZM263.6,64.8c1.3,0,2.5-.2,3.5-.6,1-.4,2-1,2.7-1.8l-.5-.5c-.7.7-1.5,1.2-2.4,1.6s-1.8.5-2.8.5-2.3-.3-3.2-.9c-.9-.6-1.6-1.4-2.1-2.5s-.8-2.4-.8-3.8.3-2.8.8-3.9c.5-1.1,1.2-1.9,2.2-2.5.9-.6,2-.9,3.3-.9s1.5.1,2.3.3,1.6.6,2.4,1l.4-.5c-1.6-1-3.4-1.6-5.5-1.6s-3.3.3-4.6,1-2.4,1.6-3.1,2.8c-.7,1.2-1.1,2.6-1.1,4.2s.4,3,1.1,4.2c.7,1.2,1.8,2.1,3,2.8,1.3.7,2.8,1,4.5,1M223.3,64.6h11.2v-.7h-8.4v-14.9h-2.8v15.6h0ZM164.9,64.6h12.5v-.7h-9.7v-7h8.4v-.7h-8.4v-6.5h9.6v-.7h-12.4v15.6h0ZM153,64.8c.8,0,1.5,0,2.1-.2s1.5-.3,2.4-.6c.8-.2,1.5-.4,2.2-.5v-7.1h-6.1v.6h3.4v3.7c0,1.1-.3,2-.9,2.6-.6.6-1.5.9-2.6.9s-2.3-.3-3.2-1-1.6-1.6-2-2.7c-.5-1.1-.7-2.4-.7-3.7s.2-2.6.7-3.7c.5-1.1,1.2-2,2.1-2.6s2.1-1,3.5-1,1.7.1,2.5.4,1.6.6,2.3,1.1l.4-.5c-1.7-1.1-3.6-1.7-5.8-1.7s-3.3.3-4.6,1c-1.3.7-2.4,1.6-3.1,2.8s-1.1,2.6-1.1,4.2.4,3.1,1.1,4.3,1.8,2.1,3.1,2.7c1.3.6,2.7.9,4.3.9M103.3,64.6h2.8v-15.6h-2.8v15.6ZM70,57.2h8.8v-.8h-8.8v.8ZM59.1,64.8c1.2,0,2.2-.2,3.1-.5.8-.3,1.5-.7,2.1-1.3.5-.5.8-1.1,1.1-1.7.2-.7.3-1.5.3-2.4v-9.9h-.8v9.8c0,1.6-.4,2.9-1.2,3.7-.5.5-1,.8-1.7,1s-1.4.3-2.1.3c-1.6,0-2.8-.4-3.6-1.2s-1.2-2-1.2-3.4v-10.2h-2.8v9.8c0,1,.1,1.8.4,2.5s.7,1.3,1.2,1.8c.6.5,1.3.9,2.2,1.2.9.3,1.9.4,3,.4M18,64.6h12.5v-.7h-9.7v-7h8.5v-.7h-8.5v-6.5h9.6v-.7h-12.4v15.6h0ZM6.2,56.3h-3.4v-6.6h3.2c.7,0,1.2,0,1.7.1.8.2,1.3.5,1.7,1s.6,1.2.6,2.1c0,2.2-1.2,3.3-3.7,3.3M6.5,64h-3.7v-7h4.1c1.4,0,2.4.3,3,.9.6.6.9,1.5.9,2.5s-.1,1.4-.4,1.9-.7.9-1.3,1.2c-.6.3-1.5.4-2.6.4M0,64.6h7.4c1,0,1.8,0,2.5-.2,1.2-.2,2.1-.7,2.8-1.3.7-.7,1-1.5,1-2.6s-.5-2.1-1.4-2.8c-.9-.7-2.3-1-4.1-1.2h0c1.5-.2,2.6-.6,3.4-1.2s1.1-1.4,1.1-2.5-.3-1.9-1-2.5-1.6-1-2.7-1.2c-.6,0-1.4-.1-2.4-.1H0v15.6h0Z"/>
      <path class="cls-2" d="M247.1,59.1h-6.8l3.4-6.8,3.4,6.8h0ZM252.9,64.6l-8.1-16h-.2l-8,16h.9l2.4-4.9h7.5l2.5,4.9h3,0Z"/>
      <path class="cls-2" d="M214.1,59.1h-6.8l3.4-6.8,3.4,6.8h0ZM219.9,64.6l-8.1-16h-.2l-8,16h.9l2.4-4.9h7.5l2.5,4.9h3,0Z"/>
      <path class="cls-2" d="M136.1,59.1h-6.8l3.4-6.8,3.4,6.8h0ZM141.9,64.6l-8.1-16h-.2l-8,16h.9l2.4-4.9h7.5l2.5,4.9h3,0Z"/>
      <path class="cls-2" d="M43.1,59.1h-6.8l3.4-6.8,3.4,6.8h0ZM49,64.6l-8.1-16h-.2l-8,16h.9l2.4-4.9h7.5l2.5,4.9h3,0Z"/>
      <path class="cls-2" d="M93.6,53.1c0,.8-.2,1.4-.5,2-.4.5-.9,1-1.5,1.2-.5.2-1.2.3-2.1.3h-3.2v-6.8h3.3c.9,0,1.6,0,2,.2.7.2,1.2.6,1.6,1.2.4.6.5,1.2.5,2M94.8,56c1.1-.6,1.6-1.6,1.6-3s-.4-2-1.1-2.6c-.7-.6-1.7-1-2.8-1.2-.6-.1-1.5-.2-2.6-.2h-6.5v15.6h2.8v-7.4h2.1l6.7,7.4h3.4l-7-7.7c1.3-.2,2.5-.4,3.4-1"/>
      <polygon class="cls-2" points="113.8 49 110.8 49 118.3 65 118.5 65 126.1 49 125.2 49 119.4 61.1 113.8 49"/>
      <path class="cls-2" d="M200.1,53.2c0,.8-.2,1.5-.5,2.1-.4.5-.9.9-1.7,1.2-.6.2-1.3.3-2.2.3h-3.1v-7s3.1,0,3.1,0c.9,0,1.6,0,2.1.2,1.5.4,2.2,1.5,2.2,3.2M203,53.2c0-1.1-.4-2-1.1-2.7-.7-.7-1.7-1.1-2.9-1.3-.6-.1-1.5-.2-2.7-.2h-6.4v15.6h2.8v-7.2s3.5,0,3.5,0c1.2,0,2.1,0,2.8-.2,1.2-.2,2.2-.7,2.9-1.3.8-.7,1.1-1.5,1.1-2.7"/>
    </g>
  </g>
</svg>